<?xml version="1.0" standalone="no"?>
<!DOCTYPE svg PUBLIC "-//W3C//DTD SVG 1.1//EN" "http://www.w3.org/Graphics/SVG/1.1/DTD/svg11.dtd" >
<svg xmlns="http://www.w3.org/2000/svg" xmlns:xlink="http://www.w3.org/1999/xlink" version="1.1">
<metadata>
Created by FontForge 20181014 at Fri Oct 21 17:40:20 2016
 By convertio
Copyright \(c\) 2016 by Alberto Romanos. All rights reserved.
</metadata>
<defs>
<font id="BwModelica-Light" horiz-adv-x="615" >
  <font-face 
    font-family="Bw Modelica Light"
    font-weight="400"
    font-stretch="normal"
    units-per-em="1000"
    panose-1="0 0 5 0 0 0 0 0 0 0"
    ascent="780"
    descent="-220"
    x-height="525"
    cap-height="740"
    bbox="-852 -230 1235 1020"
    underline-thickness="50"
    underline-position="-100"
    stemh="41"
    stemv="48"
    unicode-range="U+000D-FB02"
  />
<missing-glyph horiz-adv-x="1274" 
d="M91 -10c-10 0 -17 8 -17 18c0 5 1 11 5 15l342 341h-324c-10 0 -23 2 -23 19c0 7 3 11 7 16l340 342h-327c-12 0 -20 7 -20 19v1c0 12 8 19 20 19h370c10 0 23 -1 23 -20c0 -6 -2 -12 -8 -17l-341 -340h330c11 0 20 -9 20 -20v-327l339 338c5 6 11 8 17 8
c17 0 18 -13 18 -22v-324l340 338c4 5 10 8 16 8c10 0 17 -9 17 -19c0 -4 -1 -10 -6 -14l-368 -372c-6 -6 -11 -7 -17 -7c-19 0 -20 13 -20 23v324l-339 -340c-6 -6 -11 -7 -17 -7c-19 0 -20 13 -20 23v324l-340 -340c-6 -6 -11 -7 -17 -7z" />
    <glyph glyph-name="fi" unicode="fi" horiz-adv-x="588" 
d="M113 650c0 84 59 140 146 140c40 0 75 -6 103 -20l-5 -40c-24 13 -53 18 -88 18c-64 0 -108 -42 -108 -106v-117h194v-41h-194v-484h-48v484h-93v41h93v125zM475 748c21 0 37 -16 37 -36c0 -21 -16 -37 -37 -37c-20 0 -36 16 -36 37c0 20 16 36 36 36zM452 0v525h48v-525
h-48z" />
    <glyph glyph-name="fl" unicode="fl" horiz-adv-x="592" 
d="M113 650c0 84 59 140 146 140c40 0 75 -6 103 -20l-5 -40c-24 13 -53 18 -88 18c-64 0 -108 -42 -108 -106v-117h194v-41h-194v-484h-48v484h-93v41h93v125zM454 780h48v-780h-48v780z" />
    <glyph glyph-name=".notdef" horiz-adv-x="1274" 
d="M91 -10c-10 0 -17 8 -17 18c0 5 1 11 5 15l342 341h-324c-10 0 -23 2 -23 19c0 7 3 11 7 16l340 342h-327c-12 0 -20 7 -20 19v1c0 12 8 19 20 19h370c10 0 23 -1 23 -20c0 -6 -2 -12 -8 -17l-341 -340h330c11 0 20 -9 20 -20v-327l339 338c5 6 11 8 17 8
c17 0 18 -13 18 -22v-324l340 338c4 5 10 8 16 8c10 0 17 -9 17 -19c0 -4 -1 -10 -6 -14l-368 -372c-6 -6 -11 -7 -17 -7c-19 0 -20 13 -20 23v324l-339 -340c-6 -6 -11 -7 -17 -7c-19 0 -20 13 -20 23v324l-340 -340c-6 -6 -11 -7 -17 -7z" />
    <glyph glyph-name="A" unicode="A" horiz-adv-x="715" 
d="M655 0l-92 211h-410l-93 -211h-55l328 740h49l328 -740h-55zM171 254h373l-186 425z" />
    <glyph glyph-name="Aacute" unicode="&#xc1;" horiz-adv-x="715" 
d="M518 980l-147 -145h-44l128 145h63zM655 0l-92 211h-410l-93 -211h-55l328 740h49l328 -740h-55zM171 254h373l-186 425z" />
    <glyph glyph-name="Abreve" unicode="&#x102;" horiz-adv-x="715" 
d="M358 825c-92 0 -153 62 -153 155h42c0 -73 44 -123 111 -123c66 0 110 50 110 123h42c0 -93 -61 -155 -152 -155zM655 0l-92 211h-410l-93 -211h-55l328 740h49l328 -740h-55zM171 254h373l-186 425z" />
    <glyph glyph-name="Acircumflex" unicode="&#xc2;" horiz-adv-x="715" 
d="M358 951l-107 -116h-49l129 145h53l128 -145h-48zM655 0l-92 211h-410l-93 -211h-55l328 740h49l328 -740h-55zM171 254h373l-186 425z" />
    <glyph glyph-name="Adieresis" unicode="&#xc4;" horiz-adv-x="715" 
d="M264 890c-21 0 -37 16 -37 37c0 20 16 36 37 36c20 0 36 -16 36 -36c0 -21 -16 -37 -36 -37zM451 890c-20 0 -36 16 -36 37c0 20 16 36 36 36c21 0 36 -16 36 -36c0 -21 -15 -37 -36 -37zM655 0l-92 211h-410l-93 -211h-55l328 740h49l328 -740h-55zM171 254h373
l-186 425z" />
    <glyph glyph-name="Agrave" unicode="&#xc0;" horiz-adv-x="715" 
d="M389 835h-45l-146 145h63zM655 0l-92 211h-410l-93 -211h-55l328 740h49l328 -740h-55zM171 254h373l-186 425z" />
    <glyph glyph-name="Amacron" unicode="&#x100;" horiz-adv-x="715" 
d="M505 910v-40h-293v40h293zM655 0l-92 211h-410l-93 -211h-55l328 740h49l328 -740h-55zM171 254h373l-186 425z" />
    <glyph glyph-name="Aogonek" unicode="&#x104;" horiz-adv-x="715" 
d="M707 -172l6 -30c-22 -19 -47 -28 -76 -28c-48 0 -81 30 -81 75c0 53 42 109 107 155h-8l-92 211h-410l-93 -211h-55l328 740h49l328 -740c-77 -51 -113 -104 -113 -150c0 -28 19 -48 48 -48c23 0 45 10 62 26zM171 254h373l-186 425z" />
    <glyph glyph-name="Aring" unicode="&#xc5;" horiz-adv-x="715" 
d="M358 799c-63 0 -106 41 -106 104s43 104 106 104s106 -41 106 -104s-43 -104 -106 -104zM358 980c-44 0 -72 -31 -72 -77s28 -76 72 -76s72 30 72 76s-28 77 -72 77zM655 0l-92 211h-410l-93 -211h-55l328 740h49l328 -740h-55zM171 254h373l-186 425z" />
    <glyph glyph-name="Atilde" unicode="&#xc3;" horiz-adv-x="715" 
d="M276 923c-32 0 -59 -27 -59 -68h-33c0 65 40 108 93 108c70 0 103 -77 161 -77c32 0 59 26 59 67h33c0 -66 -40 -108 -93 -108c-69 0 -103 78 -161 78zM655 0l-92 211h-410l-93 -211h-55l328 740h49l328 -740h-55zM171 254h373l-186 425z" />
    <glyph glyph-name="AE" unicode="&#xc6;" horiz-adv-x="1057" 
d="M669 43h327v-43h-371l-59 211h-397l-121 -211h-57l431 740h565v-43h-506l85 -297h398v-44h-385zM193 254h361l-119 422z" />
    <glyph glyph-name="B" unicode="B" horiz-adv-x="674" 
d="M456 386c100 -20 163 -89 163 -184c0 -121 -92 -202 -231 -202h-282v740h259c134 0 222 -74 222 -185c0 -84 -50 -143 -131 -169zM158 697v-295h198c106 0 177 59 177 147c0 89 -73 148 -182 148h-193zM380 43c111 0 185 63 185 158c0 94 -74 157 -184 157h-223v-315h222
z" />
    <glyph glyph-name="C" unicode="C" horiz-adv-x="754" 
d="M422 -10c-219 0 -366 152 -366 381c0 227 147 379 367 379c121 0 207 -48 274 -121l-32 -33c-56 63 -134 111 -239 111c-190 0 -316 -134 -316 -335c0 -203 125 -339 312 -339c114 0 204 55 260 133l35 -33c-64 -86 -167 -143 -295 -143z" />
    <glyph glyph-name="Cacute" unicode="&#x106;" horiz-adv-x="754" 
d="M382 835l128 145h63l-147 -145h-44zM422 -10c-219 0 -366 152 -366 381c0 227 147 379 367 379c121 0 207 -48 274 -121l-32 -33c-56 63 -134 111 -239 111c-190 0 -316 -134 -316 -335c0 -203 125 -339 312 -339c114 0 204 55 260 133l35 -33
c-64 -86 -167 -143 -295 -143z" />
    <glyph glyph-name="Ccaron" unicode="&#x10c;" horiz-adv-x="754" 
d="M439 835h-53l-129 145h49l107 -116l106 116h48zM682 166l35 -33c-64 -86 -167 -143 -295 -143c-219 0 -366 152 -366 381c0 227 147 379 367 379c121 0 207 -48 274 -121l-32 -33c-56 63 -134 111 -239 111c-190 0 -316 -134 -316 -335c0 -203 125 -339 312 -339
c114 0 204 55 260 133z" />
    <glyph glyph-name="Ccedilla" unicode="&#xc7;" horiz-adv-x="754" 
d="M717 133c-61 -82 -156 -137 -275 -143l-40 -61c8 1 17 2 25 2c64 0 105 -32 105 -78c0 -50 -45 -83 -116 -83c-40 0 -74 11 -93 30l12 25c17 -18 44 -26 77 -26c49 0 80 22 80 54c0 31 -31 51 -78 51c-17 0 -34 -3 -49 -9l-9 17l50 78c-210 8 -350 158 -350 381
c0 227 147 379 367 379c121 0 207 -48 274 -121l-32 -33c-56 63 -134 111 -239 111c-190 0 -316 -134 -316 -335c0 -203 125 -339 312 -339c114 0 204 55 260 133z" />
    <glyph glyph-name="Cdotaccent" unicode="&#x10a;" horiz-adv-x="754" 
d="M413 890c-21 0 -37 16 -37 37c0 20 16 36 37 36c20 0 36 -16 36 -36c0 -21 -16 -37 -36 -37zM422 -10c-219 0 -366 152 -366 381c0 227 147 379 367 379c121 0 207 -48 274 -121l-32 -33c-56 63 -134 111 -239 111c-190 0 -316 -134 -316 -335c0 -203 125 -339 312 -339
c114 0 204 55 260 133l35 -33c-64 -86 -167 -143 -295 -143z" />
    <glyph glyph-name="D" unicode="D" horiz-adv-x="755" 
d="M342 740c214 0 357 -149 357 -372c0 -221 -143 -368 -357 -368h-236v740h236zM334 43c187 0 311 130 311 325c0 197 -124 329 -311 329h-176v-654h176z" />
    <glyph glyph-name="Eth" unicode="&#xd0;" horiz-adv-x="755" 
d="M342 740c214 0 357 -149 357 -372c0 -221 -143 -368 -357 -368h-236v354h-87v37h87v349h236zM334 43c187 0 311 130 311 325c0 197 -124 329 -311 329h-176v-306h215v-37h-215v-311h176z" />
    <glyph glyph-name="Dcaron" unicode="&#x10e;" horiz-adv-x="755" 
d="M339 835h-53l-129 145h49l107 -116l106 116h48zM342 740c214 0 357 -149 357 -372c0 -221 -143 -368 -357 -368h-236v740h236zM334 43c187 0 311 130 311 325c0 197 -124 329 -311 329h-176v-654h176z" />
    <glyph glyph-name="Dcroat" unicode="&#x110;" horiz-adv-x="755" 
d="M342 740c214 0 357 -149 357 -372c0 -221 -143 -368 -357 -368h-236v354h-87v37h87v349h236zM334 43c187 0 311 130 311 325c0 197 -124 329 -311 329h-176v-306h215v-37h-215v-311h176z" />
    <glyph glyph-name="E" unicode="E" 
d="M158 43h396v-43h-448v740h439v-43h-387v-297h364v-44h-364v-313z" />
    <glyph glyph-name="Eacute" unicode="&#xc9;" 
d="M485 980l-147 -145h-44l128 145h63zM158 43h396v-43h-448v740h439v-43h-387v-297h364v-44h-364v-313z" />
    <glyph glyph-name="Ecaron" unicode="&#x11a;" 
d="M351 835h-53l-129 145h49l107 -116l106 116h48zM158 43h396v-43h-448v740h439v-43h-387v-297h364v-44h-364v-313z" />
    <glyph glyph-name="Ecircumflex" unicode="&#xca;" 
d="M325 951l-107 -116h-49l129 145h53l128 -145h-48zM158 43h396v-43h-448v740h439v-43h-387v-297h364v-44h-364v-313z" />
    <glyph glyph-name="Edieresis" unicode="&#xcb;" 
d="M231 890c-21 0 -37 16 -37 37c0 20 16 36 37 36c20 0 36 -16 36 -36c0 -21 -16 -37 -36 -37zM418 890c-20 0 -36 16 -36 37c0 20 16 36 36 36c21 0 36 -16 36 -36c0 -21 -15 -37 -36 -37zM158 43h396v-43h-448v740h439v-43h-387v-297h364v-44h-364v-313z" />
    <glyph glyph-name="Edotaccent" unicode="&#x116;" 
d="M325 890c-21 0 -37 16 -37 37c0 20 16 36 37 36c20 0 36 -16 36 -36c0 -21 -16 -37 -36 -37zM158 43h396v-43h-448v740h439v-43h-387v-297h364v-44h-364v-313z" />
    <glyph glyph-name="Egrave" unicode="&#xc8;" 
d="M356 835h-45l-146 145h63zM158 43h396v-43h-448v740h439v-43h-387v-297h364v-44h-364v-313z" />
    <glyph glyph-name="Emacron" unicode="&#x112;" 
d="M472 910v-40h-293v40h293zM158 43h396v-43h-448v740h439v-43h-387v-297h364v-44h-364v-313z" />
    <glyph glyph-name="Eogonek" unicode="&#x118;" 
d="M551 -172l6 -30c-22 -19 -47 -28 -76 -28c-48 0 -81 30 -81 75c0 51 39 105 108 155h-402v740h439v-43h-387v-297h364v-44h-364v-313h396v-43c-77 -51 -113 -104 -113 -150c0 -28 19 -48 48 -48c23 0 45 10 62 26z" />
    <glyph glyph-name="F" unicode="F" horiz-adv-x="543" 
d="M506 697h-348v-317h314v-44h-314v-336h-52v740h400v-43z" />
    <glyph glyph-name="G" unicode="G" horiz-adv-x="791" 
d="M755 384v-14c0 -233 -133 -380 -343 -380c-213 0 -355 152 -355 380s142 380 355 380c95 0 168 -19 242 -74l-34 -34c-59 46 -126 65 -207 65c-181 0 -302 -135 -302 -337s121 -337 302 -337c172 0 282 122 288 307h-252v44h306z" />
    <glyph glyph-name="Gbreve" unicode="&#x11e;" horiz-adv-x="791" 
d="M412 825c-92 0 -153 62 -153 155h42c0 -73 44 -123 111 -123c66 0 110 50 110 123h42c0 -93 -61 -155 -152 -155zM755 384v-14c0 -233 -133 -380 -343 -380c-213 0 -355 152 -355 380s142 380 355 380c95 0 168 -19 242 -74l-34 -34c-59 46 -126 65 -207 65
c-181 0 -302 -135 -302 -337s121 -337 302 -337c172 0 282 122 288 307h-252v44h306z" />
    <glyph glyph-name="Gcommaaccent" unicode="&#x122;" horiz-adv-x="791" 
d="M755 384v-14c0 -233 -133 -380 -343 -380c-213 0 -355 152 -355 380s142 380 355 380c95 0 168 -19 242 -74l-34 -34c-59 46 -126 65 -207 65c-181 0 -302 -135 -302 -337s121 -337 302 -337c172 0 282 122 288 307h-252v44h306zM335 -220l56 168h47l-65 -168h-38z" />
    <glyph glyph-name="Gdotaccent" unicode="&#x120;" horiz-adv-x="791" 
d="M412 890c-21 0 -37 16 -37 37c0 20 16 36 37 36c20 0 36 -16 36 -36c0 -21 -16 -37 -36 -37zM755 384v-14c0 -233 -133 -380 -343 -380c-213 0 -355 152 -355 380s142 380 355 380c95 0 168 -19 242 -74l-34 -34c-59 46 -126 65 -207 65c-181 0 -302 -135 -302 -337
s121 -337 302 -337c172 0 282 122 288 307h-252v44h306z" />
    <glyph glyph-name="H" unicode="H" horiz-adv-x="796" 
d="M638 740h51v-740h-51v354h-480v-354h-52v740h52v-343h480v343z" />
    <glyph glyph-name="Hbar" unicode="&#x126;" horiz-adv-x="796" 
d="M778 598v-37h-89v-561h-51v354h-480v-354h-52v561h-91v37h91v142h52v-142h480v142h51v-142h89zM638 397v164h-480v-164h480z" />
    <glyph glyph-name="I" unicode="I" horiz-adv-x="264" 
d="M106 0v740h52v-740h-52z" />
    <glyph glyph-name="Iacute" unicode="&#xcd;" horiz-adv-x="264" 
d="M101 835l128 145h63l-147 -145h-44zM106 0v740h52v-740h-52z" />
    <glyph glyph-name="Icircumflex" unicode="&#xce;" horiz-adv-x="264" 
d="M158 980l128 -145h-48l-106 116l-107 -116h-49l129 145h53zM106 0v740h52v-740h-52z" />
    <glyph glyph-name="Idieresis" unicode="&#xcf;" horiz-adv-x="264" 
d="M38 890c-21 0 -37 16 -37 37c0 20 16 36 37 36c20 0 36 -16 36 -36c0 -21 -16 -37 -36 -37zM225 890c-20 0 -36 16 -36 37c0 20 16 36 36 36c21 0 36 -16 36 -36c0 -21 -15 -37 -36 -37zM106 0v740h52v-740h-52z" />
    <glyph glyph-name="Idotaccent" unicode="&#x130;" horiz-adv-x="264" 
d="M132 890c-21 0 -37 16 -37 37c0 20 16 36 37 36c20 0 36 -16 36 -36c0 -21 -16 -37 -36 -37zM106 0v740h52v-740h-52z" />
    <glyph glyph-name="Igrave" unicode="&#xcc;" horiz-adv-x="264" 
d="M118 835l-146 145h63l128 -145h-45zM106 0v740h52v-740h-52z" />
    <glyph glyph-name="Imacron" unicode="&#x12a;" horiz-adv-x="264" 
d="M-14 870v40h293v-40h-293zM106 0v740h52v-740h-52z" />
    <glyph glyph-name="Iogonek" unicode="&#x12e;" horiz-adv-x="264" 
d="M155 -172l6 -30c-22 -19 -47 -28 -76 -28c-48 0 -81 30 -81 75c0 51 39 105 108 155h-6v740h52v-740c-77 -51 -113 -104 -113 -150c0 -28 19 -48 48 -48c23 0 45 10 62 26z" />
    <glyph glyph-name="J" unicode="J" horiz-adv-x="401" 
d="M141 -10c-51 0 -101 18 -130 51l14 35c29 -29 71 -43 109 -43c72 0 115 47 115 116v591h52v-602c0 -89 -60 -148 -160 -148z" />
    <glyph glyph-name="K" unicode="K" horiz-adv-x="667" 
d="M593 0l-275 358h-160v-358h-52v740h52v-339h161l265 339h64l-284 -361l293 -379h-64z" />
    <glyph glyph-name="Kcommaaccent" unicode="&#x136;" horiz-adv-x="667" 
d="M364 379l293 -379h-64l-275 358h-160v-358h-52v740h52v-339h161l265 339h64zM286 -220l56 168h47l-65 -168h-38z" />
    <glyph glyph-name="L" unicode="L" horiz-adv-x="530" 
d="M158 43h358v-43h-410v740h52v-697z" />
    <glyph glyph-name="Lacute" unicode="&#x139;" horiz-adv-x="530" 
d="M292 980l-147 -145h-44l128 145h63zM158 43h358v-43h-410v740h52v-697z" />
    <glyph glyph-name="Lcaron" unicode="&#x13d;" horiz-adv-x="517" 
d="M158 43h358v-43h-410v740h52v-697zM457 740l-72 -194h-43l64 194h51z" />
    <glyph glyph-name="Lcommaaccent" unicode="&#x13b;" horiz-adv-x="530" 
d="M158 43h358v-43h-410v740h52v-697zM216 -220l56 168h47l-65 -168h-38z" />
    <glyph glyph-name="Lslash" unicode="&#x141;" horiz-adv-x="530" 
d="M158 43h358v-43h-410v358l-82 -58v43l82 58v339h52v-309l111 77v-43l-111 -77v-345z" />
    <glyph glyph-name="M" unicode="M" horiz-adv-x="983" 
d="M897 0h-51l-35 647l-302 -647h-35l-302 647l-34 -647h-52l43 748h51l312 -669l312 669h51z" />
    <glyph glyph-name="N" unicode="N" horiz-adv-x="829" 
d="M106 0v740h34l532 -649v649h51v-740h-34l-532 649l1 -649h-52z" />
    <glyph glyph-name="Nacute" unicode="&#x143;" horiz-adv-x="829" 
d="M383 835l128 145h63l-147 -145h-44zM106 0v740h34l532 -649v649h51v-740h-34l-532 649l1 -649h-52z" />
    <glyph glyph-name="Ncaron" unicode="&#x147;" horiz-adv-x="829" 
d="M440 835h-53l-129 145h49l107 -116l106 116h48zM672 740h51v-740h-34l-532 649l1 -649h-52v740h34l532 -649v649z" />
    <glyph glyph-name="Ncommaaccent" unicode="&#x145;" horiz-adv-x="829" 
d="M106 0v740h34l532 -649v649h51v-740h-34l-532 649l1 -649h-52zM344 -220l56 168h47l-65 -168h-38z" />
    <glyph glyph-name="Eng" unicode="&#x14a;" horiz-adv-x="829" 
d="M672 740h51v-822c0 -89 -60 -148 -160 -148c-51 0 -101 18 -130 50l14 36c30 -29 71 -43 110 -43c72 0 115 47 115 116v92l-515 628l1 -649h-52v740h34l532 -649v649z" />
    <glyph glyph-name="Ntilde" unicode="&#xd1;" horiz-adv-x="829" 
d="M493 845c-69 0 -103 78 -161 78c-32 0 -59 -27 -59 -68h-33c0 65 40 108 93 108c70 0 103 -77 161 -77c32 0 59 26 59 67h33c0 -66 -40 -108 -93 -108zM106 0v740h34l532 -649v649h51v-740h-34l-532 649l1 -649h-52z" />
    <glyph glyph-name="O" unicode="O" horiz-adv-x="837" 
d="M419 -10c-218 0 -363 152 -363 380s145 380 363 380c217 0 362 -152 362 -380s-145 -380 -362 -380zM419 33c185 0 308 135 308 337s-123 337 -308 337s-309 -135 -309 -337s124 -337 309 -337z" />
    <glyph glyph-name="Oacute" unicode="&#xd3;" horiz-adv-x="837" 
d="M388 835l128 145h63l-147 -145h-44zM419 -10c-218 0 -363 152 -363 380s145 380 363 380c217 0 362 -152 362 -380s-145 -380 -362 -380zM419 33c185 0 308 135 308 337s-123 337 -308 337s-309 -135 -309 -337s124 -337 309 -337z" />
    <glyph glyph-name="Ocircumflex" unicode="&#xd4;" horiz-adv-x="837" 
d="M419 951l-107 -116h-49l129 145h53l128 -145h-48zM419 750c217 0 362 -152 362 -380s-145 -380 -362 -380c-218 0 -363 152 -363 380s145 380 363 380zM419 33c185 0 308 135 308 337s-123 337 -308 337s-309 -135 -309 -337s124 -337 309 -337z" />
    <glyph glyph-name="Odieresis" unicode="&#xd6;" horiz-adv-x="837" 
d="M325 890c-21 0 -37 16 -37 37c0 20 16 36 37 36c20 0 36 -16 36 -36c0 -21 -16 -37 -36 -37zM512 890c-20 0 -36 16 -36 37c0 20 16 36 36 36c21 0 36 -16 36 -36c0 -21 -15 -37 -36 -37zM419 -10c-218 0 -363 152 -363 380s145 380 363 380c217 0 362 -152 362 -380
s-145 -380 -362 -380zM419 33c185 0 308 135 308 337s-123 337 -308 337s-309 -135 -309 -337s124 -337 309 -337z" />
    <glyph glyph-name="Ograve" unicode="&#xd2;" horiz-adv-x="837" 
d="M405 835l-146 145h63l128 -145h-45zM419 -10c-218 0 -363 152 -363 380s145 380 363 380c217 0 362 -152 362 -380s-145 -380 -362 -380zM419 33c185 0 308 135 308 337s-123 337 -308 337s-309 -135 -309 -337s124 -337 309 -337z" />
    <glyph glyph-name="Ohungarumlaut" unicode="&#x150;" horiz-adv-x="837" 
d="M325 835l106 145h62l-124 -145h-44zM456 835l106 145h62l-124 -145h-44zM419 -10c-218 0 -363 152 -363 380s145 380 363 380c217 0 362 -152 362 -380s-145 -380 -362 -380zM419 33c185 0 308 135 308 337s-123 337 -308 337s-309 -135 -309 -337s124 -337 309 -337z
" />
    <glyph glyph-name="Omacron" unicode="&#x14c;" horiz-adv-x="837" 
d="M273 870v40h293v-40h-293zM419 -10c-218 0 -363 152 -363 380s145 380 363 380c217 0 362 -152 362 -380s-145 -380 -362 -380zM419 33c185 0 308 135 308 337s-123 337 -308 337s-309 -135 -309 -337s124 -337 309 -337z" />
    <glyph glyph-name="Oslash" unicode="&#xd8;" horiz-adv-x="842" 
d="M695 630c55 -65 86 -154 86 -260c0 -228 -145 -380 -362 -380c-98 0 -182 31 -244 86l-80 -86l-33 30l82 88c-56 65 -88 155 -88 262c0 228 145 380 363 380c99 0 183 -32 245 -88l82 88l33 -30zM110 370c0 -91 25 -168 69 -225l451 482c-53 51 -125 80 -211 80
c-185 0 -309 -135 -309 -337zM419 33c185 0 308 135 308 337c0 89 -24 166 -67 223l-451 -481c53 -51 125 -79 210 -79z" />
    <glyph glyph-name="Otilde" unicode="&#xd5;" horiz-adv-x="837" 
d="M498 845c-69 0 -103 78 -161 78c-32 0 -59 -27 -59 -68h-33c0 65 40 108 93 108c70 0 103 -77 161 -77c32 0 59 26 59 67h33c0 -66 -40 -108 -93 -108zM419 -10c-218 0 -363 152 -363 380s145 380 363 380c217 0 362 -152 362 -380s-145 -380 -362 -380zM419 33
c185 0 308 135 308 337s-123 337 -308 337s-309 -135 -309 -337s124 -337 309 -337z" />
    <glyph glyph-name="OE" unicode="&#x152;" horiz-adv-x="1239" 
d="M781 43h397v-43h-448v176c-57 -116 -169 -186 -313 -186c-217 0 -361 152 -361 380s144 380 361 380c144 0 256 -70 313 -186v176h438v-43h-387v-297h365v-44h-365v-313zM419 33c185 0 308 135 308 337s-123 337 -308 337s-309 -135 -309 -337s124 -337 309 -337z" />
    <glyph glyph-name="P" unicode="P" horiz-adv-x="635" 
d="M364 740c141 0 235 -88 235 -220c0 -135 -93 -224 -234 -224h-207v-296h-52v740h258zM355 339c115 0 190 72 190 179s-76 179 -190 179h-197v-358h197z" />
    <glyph glyph-name="Thorn" unicode="&#xde;" horiz-adv-x="638" 
d="M364 597c141 0 235 -88 235 -220c0 -134 -93 -224 -234 -224h-207v-153h-52v740h52v-143h206zM355 197c115 0 190 71 190 178c0 108 -76 179 -190 179h-197v-357h197z" />
    <glyph glyph-name="Q" unicode="Q" horiz-adv-x="838" 
d="M797 0h-64l-75 72c-61 -52 -143 -82 -239 -82c-218 0 -363 152 -363 380s145 380 363 380c217 0 362 -152 362 -380c0 -109 -33 -201 -92 -267zM419 33c82 0 151 26 204 73l-144 139h62l112 -107c47 58 74 138 74 232c0 202 -123 337 -308 337s-309 -135 -309 -337
s124 -337 309 -337z" />
    <glyph glyph-name="R" unicode="R" horiz-adv-x="686" 
d="M658 0h-61l-208 314c-8 -1 -16 -1 -24 -1h-207v-313h-52v740h259c147 0 244 -85 244 -214c0 -103 -64 -179 -167 -204zM361 356c116 0 194 69 194 170c0 103 -79 171 -197 171h-200v-341h203z" />
    <glyph glyph-name="Racute" unicode="&#x154;" horiz-adv-x="686" 
d="M485 980l-147 -145h-44l128 145h63zM658 0h-61l-208 314c-8 -1 -16 -1 -24 -1h-207v-313h-52v740h259c147 0 244 -85 244 -214c0 -103 -64 -179 -167 -204zM361 356c116 0 194 69 194 170c0 103 -79 171 -197 171h-200v-341h203z" />
    <glyph glyph-name="Rcaron" unicode="&#x158;" horiz-adv-x="686" 
d="M351 835h-53l-129 145h49l107 -116l106 116h48zM658 0h-61l-208 314c-8 -1 -16 -1 -24 -1h-207v-313h-52v740h259c147 0 244 -85 244 -214c0 -103 -64 -179 -167 -204zM361 356c116 0 194 69 194 170c0 103 -79 171 -197 171h-200v-341h203z" />
    <glyph glyph-name="Rcommaaccent" unicode="&#x156;" horiz-adv-x="686" 
d="M658 0h-61l-208 314c-8 -1 -16 -1 -24 -1h-207v-313h-52v740h259c147 0 244 -85 244 -214c0 -103 -64 -179 -167 -204zM361 356c116 0 194 69 194 170c0 103 -79 171 -197 171h-200v-341h203zM279 -220l56 168h47l-65 -168h-38z" />
    <glyph glyph-name="S" unicode="S" horiz-adv-x="611" 
d="M298 -10c-92 0 -181 26 -233 84l23 37c54 -55 126 -78 205 -78c127 0 210 59 210 149c0 92 -85 134 -206 170l-52 16c-98 28 -184 73 -184 187c0 117 97 195 245 195c102 0 171 -32 223 -85l-26 -37c-51 52 -115 79 -199 79c-114 0 -189 -59 -189 -145
c0 -91 75 -124 158 -148l55 -17c103 -31 230 -79 230 -211c0 -117 -105 -196 -260 -196z" />
    <glyph glyph-name="Sacute" unicode="&#x15a;" horiz-adv-x="611" 
d="M276 835l128 145h63l-147 -145h-44zM298 -10c-92 0 -181 26 -233 84l23 37c54 -55 126 -78 205 -78c127 0 210 59 210 149c0 92 -85 134 -206 170l-52 16c-98 28 -184 73 -184 187c0 117 97 195 245 195c102 0 171 -32 223 -85l-26 -37c-51 52 -115 79 -199 79
c-114 0 -189 -59 -189 -145c0 -91 75 -124 158 -148l55 -17c103 -31 230 -79 230 -211c0 -117 -105 -196 -260 -196z" />
    <glyph glyph-name="Scaron" unicode="&#x160;" horiz-adv-x="611" 
d="M333 835h-53l-129 145h49l107 -116l106 116h48zM328 397c103 -31 230 -79 230 -211c0 -117 -105 -196 -260 -196c-92 0 -181 26 -233 84l23 37c54 -55 126 -78 205 -78c127 0 210 59 210 149c0 92 -85 134 -206 170l-52 16c-98 28 -184 73 -184 187c0 117 97 195 245 195
c102 0 171 -32 223 -85l-26 -37c-51 52 -115 79 -199 79c-114 0 -189 -59 -189 -145c0 -91 75 -124 158 -148z" />
    <glyph glyph-name="Scedilla" unicode="&#x15e;" horiz-adv-x="611" 
d="M558 186c0 -108 -90 -184 -226 -195l-40 -62c8 1 17 2 25 2c64 0 105 -32 105 -78c0 -50 -45 -83 -116 -83c-40 0 -74 11 -93 30l12 25c17 -18 44 -26 77 -26c49 0 80 22 80 54c0 31 -31 51 -78 51c-17 0 -34 -3 -49 -9l-9 17l50 78c-92 0 -179 26 -231 84l23 37
c54 -55 126 -78 205 -78c127 0 210 59 210 149c0 92 -85 134 -206 170l-52 16c-98 28 -184 73 -184 187c0 117 97 195 245 195c102 0 171 -32 223 -85l-26 -37c-51 52 -115 79 -199 79c-114 0 -189 -59 -189 -145c0 -91 75 -124 158 -148l55 -17c103 -31 230 -79 230 -211z
" />
    <glyph glyph-name="Scommaaccent" unicode="&#x218;" horiz-adv-x="611" 
d="M298 -10c-92 0 -181 26 -233 84l23 37c54 -55 126 -78 205 -78c127 0 210 59 210 149c0 92 -85 134 -206 170l-52 16c-98 28 -184 73 -184 187c0 117 97 195 245 195c102 0 171 -32 223 -85l-26 -37c-51 52 -115 79 -199 79c-114 0 -189 -59 -189 -145
c0 -91 75 -124 158 -148l55 -17c103 -31 230 -79 230 -211c0 -117 -105 -196 -260 -196zM248 -220l56 168h47l-65 -168h-38z" />
    <glyph glyph-name="uni1E9E" unicode="&#x1e9e;" horiz-adv-x="661" 
d="M435 388c106 -25 172 -97 172 -193c0 -123 -98 -205 -245 -205c-37 0 -71 5 -106 21l5 42c33 -16 63 -20 94 -20c119 0 198 67 198 166c0 100 -84 168 -210 168v41c104 0 173 60 173 150s-73 149 -183 149c-109 0 -183 -60 -183 -149v-558h-51v564c0 112 93 186 234 186
c142 0 237 -74 237 -185c0 -86 -51 -150 -135 -177z" />
    <glyph glyph-name="T" unicode="T" horiz-adv-x="564" 
d="M551 740v-43h-244v-697h-51v697h-243v43h538z" />
    <glyph glyph-name="Tbar" unicode="&#x166;" horiz-adv-x="564" 
d="M551 697h-244v-317h156v-37h-156v-343h-51v343h-147v37h147v317h-243v43h538v-43z" />
    <glyph glyph-name="Tcaron" unicode="&#x164;" horiz-adv-x="564" 
d="M307 835h-53l-129 145h49l107 -116l106 116h48zM551 740v-43h-244v-697h-51v697h-243v43h538z" />
    <glyph glyph-name="uni0162" unicode="&#x162;" horiz-adv-x="564" 
d="M307 0h-7l-46 -71c8 1 17 2 25 2c64 0 105 -32 105 -78c0 -50 -45 -83 -116 -83c-40 0 -74 11 -93 30l12 25c17 -18 44 -26 77 -26c49 0 80 22 80 54c0 31 -31 51 -78 51c-17 0 -34 -3 -49 -9l-9 17l56 88h-8v697h-243v43h538v-43h-244v-697z" />
    <glyph glyph-name="uni021A" unicode="&#x21a;" horiz-adv-x="564" 
d="M551 740v-43h-244v-697h-51v697h-243v43h538zM210 -220l56 168h47l-65 -168h-38z" />
    <glyph glyph-name="U" unicode="U" horiz-adv-x="786" 
d="M393 -10c-178 0 -296 107 -296 268v482h51v-480c0 -136 98 -227 245 -227s245 91 245 227v480h52v-482c0 -161 -119 -268 -297 -268z" />
    <glyph glyph-name="Uacute" unicode="&#xda;" horiz-adv-x="786" 
d="M362 835l128 145h63l-147 -145h-44zM393 -10c-178 0 -296 107 -296 268v482h51v-480c0 -136 98 -227 245 -227s245 91 245 227v480h52v-482c0 -161 -119 -268 -297 -268z" />
    <glyph glyph-name="Ucircumflex" unicode="&#xdb;" horiz-adv-x="786" 
d="M393 951l-107 -116h-49l129 145h53l128 -145h-48zM638 740h52v-482c0 -161 -119 -268 -297 -268s-296 107 -296 268v482h51v-480c0 -136 98 -227 245 -227s245 91 245 227v480z" />
    <glyph glyph-name="Udieresis" unicode="&#xdc;" horiz-adv-x="786" 
d="M299 890c-21 0 -37 16 -37 37c0 20 16 36 37 36c20 0 36 -16 36 -36c0 -21 -16 -37 -36 -37zM486 890c-20 0 -36 16 -36 37c0 20 16 36 36 36c21 0 36 -16 36 -36c0 -21 -15 -37 -36 -37zM393 -10c-178 0 -296 107 -296 268v482h51v-480c0 -136 98 -227 245 -227
s245 91 245 227v480h52v-482c0 -161 -119 -268 -297 -268z" />
    <glyph glyph-name="Ugrave" unicode="&#xd9;" horiz-adv-x="786" 
d="M379 835l-146 145h63l128 -145h-45zM393 -10c-178 0 -296 107 -296 268v482h51v-480c0 -136 98 -227 245 -227s245 91 245 227v480h52v-482c0 -161 -119 -268 -297 -268z" />
    <glyph glyph-name="Uhungarumlaut" unicode="&#x170;" horiz-adv-x="786" 
d="M299 835l106 145h62l-124 -145h-44zM430 835l106 145h62l-124 -145h-44zM393 -10c-178 0 -296 107 -296 268v482h51v-480c0 -136 98 -227 245 -227s245 91 245 227v480h52v-482c0 -161 -119 -268 -297 -268z" />
    <glyph glyph-name="Umacron" unicode="&#x16a;" horiz-adv-x="786" 
d="M247 870v40h293v-40h-293zM393 -10c-178 0 -296 107 -296 268v482h51v-480c0 -136 98 -227 245 -227s245 91 245 227v480h52v-482c0 -161 -119 -268 -297 -268z" />
    <glyph glyph-name="Uogonek" unicode="&#x172;" horiz-adv-x="786" 
d="M638 740h52v-482c0 -133 -81 -228 -208 -258c-77 -51 -113 -104 -113 -150c0 -28 19 -48 48 -48c23 0 45 10 62 26l6 -30c-22 -19 -47 -28 -76 -28c-48 0 -81 30 -81 75c0 48 34 99 96 146c-10 -1 -20 -1 -31 -1c-178 0 -296 107 -296 268v482h51v-480
c0 -136 98 -227 245 -227s245 91 245 227v480z" />
    <glyph glyph-name="Uring" unicode="&#x16e;" horiz-adv-x="786" 
d="M393 799c-63 0 -106 41 -106 104s43 104 106 104s106 -41 106 -104s-43 -104 -106 -104zM393 827c44 0 72 30 72 76s-28 77 -72 77s-72 -31 -72 -77s28 -76 72 -76zM393 -10c-178 0 -296 107 -296 268v482h51v-480c0 -136 98 -227 245 -227s245 91 245 227v480h52v-482
c0 -161 -119 -268 -297 -268z" />
    <glyph glyph-name="V" unicode="V" horiz-adv-x="716" 
d="M334 0l-328 740h55l298 -680l296 680h56l-328 -740h-49z" />
    <glyph glyph-name="W" unicode="W" horiz-adv-x="1092" 
d="M1025 740h55l-268 -740h-49l-217 664l-217 -664h-50l-268 740h56l239 -671l215 671h50l216 -671z" />
    <glyph glyph-name="Wacute" unicode="&#x1e82;" horiz-adv-x="1092" 
d="M706 980l-147 -145h-44l128 145h63zM1025 740h55l-268 -740h-49l-217 664l-217 -664h-50l-268 740h56l239 -671l215 671h50l216 -671z" />
    <glyph glyph-name="Wcircumflex" unicode="&#x174;" horiz-adv-x="1092" 
d="M546 951l-107 -116h-49l129 145h53l128 -145h-48zM1025 740h55l-268 -740h-49l-217 664l-217 -664h-50l-268 740h56l239 -671l215 671h50l216 -671z" />
    <glyph glyph-name="Wdieresis" unicode="&#x1e84;" horiz-adv-x="1092" 
d="M452 890c-21 0 -37 16 -37 37c0 20 16 36 37 36c20 0 36 -16 36 -36c0 -21 -16 -37 -36 -37zM639 890c-20 0 -36 16 -36 37c0 20 16 36 36 36c21 0 36 -16 36 -36c0 -21 -15 -37 -36 -37zM1025 740h55l-268 -740h-49l-217 664l-217 -664h-50l-268 740h56l239 -671
l215 671h50l216 -671z" />
    <glyph glyph-name="Wgrave" unicode="&#x1e80;" horiz-adv-x="1092" 
d="M577 835h-45l-146 145h63zM1025 740h55l-268 -740h-49l-217 664l-217 -664h-50l-268 740h56l239 -671l215 671h50l216 -671z" />
    <glyph glyph-name="X" unicode="X" horiz-adv-x="625" 
d="M618 0h-60l-245 343l-246 -343h-59l274 381l-250 359h60l221 -319l221 319h59l-250 -359z" />
    <glyph glyph-name="Y" unicode="Y" horiz-adv-x="643" 
d="M567 740h58l-278 -430v-310h-51v310l-278 430h58l246 -383z" />
    <glyph glyph-name="Yacute" unicode="&#xdd;" horiz-adv-x="643" 
d="M483 980l-147 -145h-44l128 145h63zM567 740h58l-278 -430v-310h-51v310l-278 430h58l246 -383z" />
    <glyph glyph-name="Ycircumflex" unicode="&#x176;" horiz-adv-x="643" 
d="M323 951l-107 -116h-49l129 145h53l128 -145h-48zM567 740h58l-278 -430v-310h-51v310l-278 430h58l246 -383z" />
    <glyph glyph-name="Ydieresis" unicode="&#x178;" horiz-adv-x="643" 
d="M229 890c-21 0 -37 16 -37 37c0 20 16 36 37 36c20 0 36 -16 36 -36c0 -21 -16 -37 -36 -37zM416 890c-20 0 -36 16 -36 37c0 20 16 36 36 36c21 0 36 -16 36 -36c0 -21 -15 -37 -36 -37zM567 740h58l-278 -430v-310h-51v310l-278 430h58l246 -383z" />
    <glyph glyph-name="Ygrave" unicode="&#x1ef2;" horiz-adv-x="643" 
d="M354 835h-45l-146 145h63zM567 740h58l-278 -430v-310h-51v310l-278 430h58l246 -383z" />
    <glyph glyph-name="Z" unicode="Z" horiz-adv-x="613" 
d="M103 43h477v-43h-546v34l467 663h-461v43h530v-34z" />
    <glyph glyph-name="Zacute" unicode="&#x179;" horiz-adv-x="613" 
d="M465 980l-147 -145h-44l128 145h63zM103 43h477v-43h-546v34l467 663h-461v43h530v-34z" />
    <glyph glyph-name="Zcaron" unicode="&#x17d;" horiz-adv-x="613" 
d="M331 835h-53l-129 145h49l107 -116l106 116h48zM103 43h477v-43h-546v34l467 663h-461v43h530v-34z" />
    <glyph glyph-name="Zdotaccent" unicode="&#x17b;" horiz-adv-x="613" 
d="M305 890c-21 0 -37 16 -37 37c0 20 16 36 37 36c20 0 36 -16 36 -36c0 -21 -16 -37 -36 -37zM103 43h477v-43h-546v34l467 663h-461v43h530v-34z" />
    <glyph glyph-name="A.ss01" horiz-adv-x="788" 
d="M394 750c178 0 297 -107 297 -268v-482h-52v265h-490v-265h-52v482c0 161 119 268 297 268zM149 309h490v171c0 136 -98 227 -245 227s-245 -91 -245 -227v-171z" />
    <glyph glyph-name="Aacute.ss01" horiz-adv-x="788" 
d="M554 980l-147 -145h-44l128 145h63zM394 750c178 0 297 -107 297 -268v-482h-52v265h-490v-265h-52v482c0 161 119 268 297 268zM149 309h490v171c0 136 -98 227 -245 227s-245 -91 -245 -227v-171z" />
    <glyph glyph-name="Abreve.ss01" horiz-adv-x="788" 
d="M394 825c-92 0 -153 62 -153 155h42c0 -73 44 -123 111 -123c66 0 110 50 110 123h42c0 -93 -61 -155 -152 -155zM394 750c178 0 297 -107 297 -268v-482h-52v265h-490v-265h-52v482c0 161 119 268 297 268zM149 309h490v171c0 136 -98 227 -245 227s-245 -91 -245 -227
v-171z" />
    <glyph glyph-name="Acircumflex.ss01" horiz-adv-x="788" 
d="M394 951l-107 -116h-49l129 145h53l128 -145h-48zM394 750c178 0 297 -107 297 -268v-482h-52v265h-490v-265h-52v482c0 161 119 268 297 268zM149 309h490v171c0 136 -98 227 -245 227s-245 -91 -245 -227v-171z" />
    <glyph glyph-name="Adieresis.ss01" horiz-adv-x="788" 
d="M300 890c-21 0 -37 16 -37 37c0 20 16 36 37 36c20 0 36 -16 36 -36c0 -21 -16 -37 -36 -37zM487 890c-20 0 -36 16 -36 37c0 20 16 36 36 36c21 0 36 -16 36 -36c0 -21 -15 -37 -36 -37zM394 750c178 0 297 -107 297 -268v-482h-52v265h-490v-265h-52v482
c0 161 119 268 297 268zM149 309h490v171c0 136 -98 227 -245 227s-245 -91 -245 -227v-171z" />
    <glyph glyph-name="Agrave.ss01" horiz-adv-x="788" 
d="M425 835h-45l-146 145h63zM394 750c178 0 297 -107 297 -268v-482h-52v265h-490v-265h-52v482c0 161 119 268 297 268zM149 309h490v171c0 136 -98 227 -245 227s-245 -91 -245 -227v-171z" />
    <glyph glyph-name="Amacron.ss01" horiz-adv-x="788" 
d="M541 910v-40h-293v40h293zM394 750c178 0 297 -107 297 -268v-482h-52v265h-490v-265h-52v482c0 161 119 268 297 268zM149 309h490v171c0 136 -98 227 -245 227s-245 -91 -245 -227v-171z" />
    <glyph glyph-name="Aogonek.ss01" horiz-adv-x="788" 
d="M688 -172l6 -30c-22 -19 -47 -28 -76 -28c-48 0 -81 30 -81 75c0 51 39 105 108 155h-6v265h-490v-265h-52v482c0 161 119 268 297 268s297 -107 297 -268v-482c-77 -51 -113 -104 -113 -150c0 -28 19 -48 48 -48c23 0 45 10 62 26zM149 309h490v171
c0 136 -98 227 -245 227s-245 -91 -245 -227v-171z" />
    <glyph glyph-name="Aring.ss01" horiz-adv-x="788" 
d="M394 799c-63 0 -106 41 -106 104s43 104 106 104s106 -41 106 -104s-43 -104 -106 -104zM394 980c-44 0 -72 -31 -72 -77s28 -76 72 -76s72 30 72 76s-28 77 -72 77zM394 750c178 0 297 -107 297 -268v-482h-52v265h-490v-265h-52v482c0 161 119 268 297 268zM149 309
h490v171c0 136 -98 227 -245 227s-245 -91 -245 -227v-171z" />
    <glyph glyph-name="Atilde.ss01" horiz-adv-x="788" 
d="M312 923c-32 0 -59 -27 -59 -68h-33c0 65 40 108 93 108c70 0 103 -77 161 -77c32 0 59 26 59 67h33c0 -66 -40 -108 -93 -108c-69 0 -103 78 -161 78zM394 750c178 0 297 -107 297 -268v-482h-52v265h-490v-265h-52v482c0 161 119 268 297 268zM149 309h490v171
c0 136 -98 227 -245 227s-245 -91 -245 -227v-171z" />
    <glyph glyph-name="AE.ss01" horiz-adv-x="900" 
d="M493 43h347v-43h-398v265h-295v-265h-52v422c0 191 139 318 347 318h388v-43h-337v-297h315v-44h-315v-313zM147 309h295v388c-177 0 -295 -111 -295 -277v-111z" />
    <glyph glyph-name="J.ss01" horiz-adv-x="557" 
d="M459 740v-535c0 -129 -88 -215 -220 -215c-86 0 -156 38 -200 95l26 36c40 -55 97 -88 172 -88c102 0 170 70 170 174v490h-354v43h406z" />
    <glyph glyph-name="C.ss02" horiz-adv-x="679" 
d="M419 -10c-218 0 -363 152 -363 380s145 380 363 380c83 0 155 -24 212 -67v-51c-53 47 -126 75 -211 75c-186 0 -310 -135 -310 -337s124 -337 310 -337c85 0 158 28 211 75v-51c-57 -43 -129 -67 -212 -67z" />
    <glyph glyph-name="Cacute.ss02" horiz-adv-x="679" 
d="M382 835l128 145h63l-147 -145h-44zM419 -10c-218 0 -363 152 -363 380s145 380 363 380c83 0 155 -24 212 -67v-51c-53 47 -126 75 -211 75c-186 0 -310 -135 -310 -337s124 -337 310 -337c85 0 158 28 211 75v-51c-57 -43 -129 -67 -212 -67z" />
    <glyph glyph-name="Ccaron.ss02" horiz-adv-x="679" 
d="M439 835h-53l-129 145h49l107 -116l106 116h48zM420 707c-186 0 -310 -135 -310 -337s124 -337 310 -337c85 0 158 28 211 75v-51c-57 -43 -129 -67 -212 -67c-218 0 -363 152 -363 380s145 380 363 380c83 0 155 -24 212 -67v-51c-53 47 -126 75 -211 75z" />
    <glyph glyph-name="Ccedilla.ss02" horiz-adv-x="679" 
d="M420 707c-186 0 -310 -135 -310 -337s124 -337 310 -337c85 0 158 28 211 75v-51c-54 -41 -122 -65 -199 -67l-40 -61c8 1 17 2 25 2c64 0 105 -32 105 -78c0 -50 -45 -83 -116 -83c-40 0 -74 11 -93 30l12 25c17 -18 44 -26 77 -26c49 0 80 22 80 54c0 31 -31 51 -78 51
c-17 0 -34 -3 -49 -9l-9 17l50 79c-205 10 -340 159 -340 379c0 228 145 380 363 380c83 0 155 -24 212 -67v-51c-53 47 -126 75 -211 75z" />
    <glyph glyph-name="Cdotaccent.ss02" horiz-adv-x="679" 
d="M413 890c-21 0 -37 16 -37 37c0 20 16 36 37 36c20 0 36 -16 36 -36c0 -21 -16 -37 -36 -37zM419 -10c-218 0 -363 152 -363 380s145 380 363 380c83 0 155 -24 212 -67v-51c-53 47 -126 75 -211 75c-186 0 -310 -135 -310 -337s124 -337 310 -337c85 0 158 28 211 75
v-51c-57 -43 -129 -67 -212 -67z" />
    <glyph glyph-name="Z.ss02" horiz-adv-x="563" 
d="M112 43h420v-43h-501l414 697h-408v43h489z" />
    <glyph glyph-name="Zacute.ss02" horiz-adv-x="563" 
d="M442 980l-147 -145h-44l128 145h63zM112 43h420v-43h-501l414 697h-408v43h489z" />
    <glyph glyph-name="Zcaron.ss02" horiz-adv-x="563" 
d="M308 835h-53l-129 145h49l107 -116l106 116h48zM112 43h420v-43h-501l414 697h-408v43h489z" />
    <glyph glyph-name="Zdotaccent.ss02" horiz-adv-x="563" 
d="M282 890c-21 0 -37 16 -37 37c0 20 16 36 37 36c20 0 36 -16 36 -36c0 -21 -16 -37 -36 -37zM112 43h420v-43h-501l414 697h-408v43h489z" />
    <glyph glyph-name="a" unicode="a" horiz-adv-x="546" 
d="M259 535c126 0 207 -82 207 -204v-331h-47l-1 116v11c-36 -86 -118 -137 -209 -137c-101 0 -169 59 -169 149c0 94 84 157 211 157c55 0 114 -7 167 -21v47c0 105 -66 173 -168 173c-67 0 -115 -23 -153 -65l-23 31c44 47 104 74 185 74zM222 27c91 0 196 76 196 212
c-51 14 -109 21 -161 21c-100 0 -166 -48 -166 -120c0 -68 51 -113 131 -113z" />
    <glyph glyph-name="aacute" unicode="&#xe1;" horiz-adv-x="546" 
d="M432 765l-147 -145h-44l128 145h63zM259 535c126 0 207 -82 207 -204v-331h-47l-1 116v11c-36 -86 -118 -137 -209 -137c-101 0 -169 59 -169 149c0 94 84 157 211 157c55 0 114 -7 167 -21v47c0 105 -66 173 -168 173c-67 0 -115 -23 -153 -65l-23 31
c44 47 104 74 185 74zM222 27c91 0 196 76 196 212c-51 14 -109 21 -161 21c-100 0 -166 -48 -166 -120c0 -68 51 -113 131 -113z" />
    <glyph glyph-name="abreve" unicode="&#x103;" horiz-adv-x="546" 
d="M272 610c-92 0 -153 62 -153 155h42c0 -73 44 -123 111 -123c66 0 110 50 110 123h42c0 -93 -61 -155 -152 -155zM259 535c126 0 207 -82 207 -204v-331h-47l-1 116v11c-36 -86 -118 -137 -209 -137c-101 0 -169 59 -169 149c0 94 84 157 211 157c55 0 114 -7 167 -21v47
c0 105 -66 173 -168 173c-67 0 -115 -23 -153 -65l-23 31c44 47 104 74 185 74zM222 27c91 0 196 76 196 212c-51 14 -109 21 -161 21c-100 0 -166 -48 -166 -120c0 -68 51 -113 131 -113z" />
    <glyph glyph-name="acircumflex" unicode="&#xe2;" horiz-adv-x="546" 
d="M272 736l-107 -116h-49l129 145h53l128 -145h-48zM259 535c126 0 207 -82 207 -204v-331h-47l-1 116v11c-36 -86 -118 -137 -209 -137c-101 0 -169 59 -169 149c0 94 84 157 211 157c55 0 114 -7 167 -21v47c0 105 -66 173 -168 173c-67 0 -115 -23 -153 -65l-23 31
c44 47 104 74 185 74zM222 27c91 0 196 76 196 212c-51 14 -109 21 -161 21c-100 0 -166 -48 -166 -120c0 -68 51 -113 131 -113z" />
    <glyph glyph-name="adieresis" unicode="&#xe4;" horiz-adv-x="546" 
d="M178 675c-21 0 -37 16 -37 37c0 20 16 36 37 36c20 0 36 -16 36 -36c0 -21 -16 -37 -36 -37zM365 675c-20 0 -36 16 -36 37c0 20 16 36 36 36c21 0 36 -16 36 -36c0 -21 -15 -37 -36 -37zM259 535c126 0 207 -82 207 -204v-331h-47l-1 116v11
c-36 -86 -118 -137 -209 -137c-101 0 -169 59 -169 149c0 94 84 157 211 157c55 0 114 -7 167 -21v47c0 105 -66 173 -168 173c-67 0 -115 -23 -153 -65l-23 31c44 47 104 74 185 74zM222 27c91 0 196 76 196 212c-51 14 -109 21 -161 21c-100 0 -166 -48 -166 -120
c0 -68 51 -113 131 -113z" />
    <glyph glyph-name="agrave" unicode="&#xe0;" horiz-adv-x="546" 
d="M303 620h-45l-146 145h63zM259 535c126 0 207 -82 207 -204v-331h-47l-1 116v11c-36 -86 -118 -137 -209 -137c-101 0 -169 59 -169 149c0 94 84 157 211 157c55 0 114 -7 167 -21v47c0 105 -66 173 -168 173c-67 0 -115 -23 -153 -65l-23 31c44 47 104 74 185 74z
M222 27c91 0 196 76 196 212c-51 14 -109 21 -161 21c-100 0 -166 -48 -166 -120c0 -68 51 -113 131 -113z" />
    <glyph glyph-name="amacron" unicode="&#x101;" horiz-adv-x="546" 
d="M419 695v-40h-293v40h293zM259 535c126 0 207 -82 207 -204v-331h-47l-1 116v11c-36 -86 -118 -137 -209 -137c-101 0 -169 59 -169 149c0 94 84 157 211 157c55 0 114 -7 167 -21v47c0 105 -66 173 -168 173c-67 0 -115 -23 -153 -65l-23 31c44 47 104 74 185 74z
M222 27c91 0 196 76 196 212c-51 14 -109 21 -161 21c-100 0 -166 -48 -166 -120c0 -68 51 -113 131 -113z" />
    <glyph glyph-name="aogonek" unicode="&#x105;" horiz-adv-x="546" 
d="M463 -172l6 -30c-22 -19 -47 -28 -76 -28c-48 0 -81 30 -81 75c0 51 39 105 108 155h-1l-1 116v11c-36 -86 -118 -137 -209 -137c-101 0 -169 59 -169 149c0 94 84 157 211 157c55 0 114 -7 167 -21v47c0 105 -66 173 -168 173c-67 0 -115 -23 -153 -65l-23 31
c44 47 104 74 185 74c126 0 207 -82 207 -204v-331c-77 -51 -113 -104 -113 -150c0 -28 19 -48 48 -48c23 0 45 10 62 26zM222 27c91 0 196 76 196 212c-51 14 -109 21 -161 21c-100 0 -166 -48 -166 -120c0 -68 51 -113 131 -113z" />
    <glyph glyph-name="aring" unicode="&#xe5;" horiz-adv-x="546" 
d="M272 584c-63 0 -106 41 -106 104s43 104 106 104s106 -41 106 -104s-43 -104 -106 -104zM272 765c-44 0 -72 -31 -72 -77s28 -76 72 -76s72 30 72 76s-28 77 -72 77zM259 535c126 0 207 -82 207 -204v-331h-47l-1 116v11c-36 -86 -118 -137 -209 -137
c-101 0 -169 59 -169 149c0 94 84 157 211 157c55 0 114 -7 167 -21v47c0 105 -66 173 -168 173c-67 0 -115 -23 -153 -65l-23 31c44 47 104 74 185 74zM222 27c91 0 196 76 196 212c-51 14 -109 21 -161 21c-100 0 -166 -48 -166 -120c0 -68 51 -113 131 -113z" />
    <glyph glyph-name="atilde" unicode="&#xe3;" horiz-adv-x="546" 
d="M190 708c-32 0 -59 -27 -59 -68h-33c0 65 40 108 93 108c70 0 103 -77 161 -77c32 0 59 26 59 67h33c0 -66 -40 -108 -93 -108c-69 0 -103 78 -161 78zM259 535c126 0 207 -82 207 -204v-331h-47l-1 116v11c-36 -86 -118 -137 -209 -137c-101 0 -169 59 -169 149
c0 94 84 157 211 157c55 0 114 -7 167 -21v47c0 105 -66 173 -168 173c-67 0 -115 -23 -153 -65l-23 31c44 47 104 74 185 74zM222 27c91 0 196 76 196 212c-51 14 -109 21 -161 21c-100 0 -166 -48 -166 -120c0 -68 51 -113 131 -113z" />
    <glyph glyph-name="ae" unicode="&#xe6;" horiz-adv-x="946" 
d="M901 269l-1 -25h-433c7 -129 79 -215 192 -215c77 0 142 40 187 100l36 -23c-52 -76 -130 -116 -220 -116c-105 0 -185 59 -221 154c-33 -97 -124 -154 -227 -154c-104 0 -174 59 -174 149c0 94 84 157 211 157c55 0 114 -7 167 -21v47c0 105 -66 173 -168 173
c-67 0 -115 -23 -153 -65l-23 31c43 47 103 74 183 74c97 0 167 -51 194 -131c39 81 114 131 210 131c143 0 240 -107 240 -266zM658 495c-113 0 -186 -84 -192 -215h384c-5 131 -79 215 -192 215zM222 27c91 0 196 76 196 212c-51 14 -109 21 -161 21
c-100 0 -166 -48 -166 -120c0 -68 51 -113 131 -113z" />
    <glyph glyph-name="b" unicode="b" horiz-adv-x="660" 
d="M357 535c149 0 252 -110 252 -274c0 -162 -103 -271 -252 -271c-116 0 -189 57 -223 141v-7l-1 -124h-47v780h48v-387c34 85 107 142 223 142zM346 32c128 0 213 91 213 229c0 139 -85 232 -213 232c-127 0 -212 -93 -212 -231s85 -230 212 -230z" />
    <glyph glyph-name="c" unicode="c" horiz-adv-x="531" 
d="M311 -10c-156 0 -260 109 -260 273c0 163 105 272 264 272c67 0 120 -19 167 -56l-29 -34c-41 33 -84 48 -139 48c-127 0 -212 -92 -212 -231c0 -138 85 -230 214 -230c57 0 112 19 153 60l28 -33c-46 -46 -111 -69 -186 -69z" />
    <glyph glyph-name="cacute" unicode="&#x107;" horiz-adv-x="531" 
d="M275 620l128 145h63l-147 -145h-44zM311 -10c-156 0 -260 109 -260 273c0 163 105 272 264 272c67 0 120 -19 167 -56l-29 -34c-41 33 -84 48 -139 48c-127 0 -212 -92 -212 -231c0 -138 85 -230 214 -230c57 0 112 19 153 60l28 -33c-46 -46 -111 -69 -186 -69z" />
    <glyph glyph-name="ccaron" unicode="&#x10d;" horiz-adv-x="531" 
d="M332 620h-53l-129 145h49l107 -116l106 116h48zM469 92l28 -33c-46 -46 -111 -69 -186 -69c-156 0 -260 109 -260 273c0 163 105 272 264 272c67 0 120 -19 167 -56l-29 -34c-41 33 -84 48 -139 48c-127 0 -212 -92 -212 -231c0 -138 85 -230 214 -230
c57 0 112 19 153 60z" />
    <glyph glyph-name="ccedilla" unicode="&#xe7;" horiz-adv-x="531" 
d="M311 -69c64 0 105 -32 105 -78c0 -50 -45 -83 -116 -83c-40 0 -74 11 -93 30l12 25c17 -18 44 -26 77 -26c49 0 80 22 80 54c0 31 -31 51 -78 51c-17 0 -34 -3 -49 -9l-9 17l50 79c-144 9 -239 115 -239 272c0 163 105 272 264 272c67 0 120 -19 167 -56l-29 -34
c-41 33 -84 48 -139 48c-127 0 -212 -92 -212 -231c0 -138 85 -230 214 -230c57 0 112 19 153 60l28 -33c-43 -43 -103 -66 -171 -69l-40 -61c8 1 17 2 25 2z" />
    <glyph glyph-name="cdotaccent" unicode="&#x10b;" horiz-adv-x="531" 
d="M306 675c-21 0 -37 16 -37 37c0 20 16 36 37 36c20 0 36 -16 36 -36c0 -21 -16 -37 -36 -37zM311 -10c-156 0 -260 109 -260 273c0 163 105 272 264 272c67 0 120 -19 167 -56l-29 -34c-41 33 -84 48 -139 48c-127 0 -212 -92 -212 -231c0 -138 85 -230 214 -230
c57 0 112 19 153 60l28 -33c-46 -46 -111 -69 -186 -69z" />
    <glyph glyph-name="d" unicode="d" horiz-adv-x="660" 
d="M526 780h48v-780h-47l-1 124v7c-34 -84 -107 -141 -223 -141c-149 0 -252 109 -252 271c0 164 103 274 252 274c116 0 189 -57 223 -142v387zM314 32c127 0 212 92 212 230s-85 231 -212 231c-128 0 -212 -93 -212 -232c0 -138 84 -229 212 -229z" />
    <glyph glyph-name="eth" unicode="&#xf0;" horiz-adv-x="630" 
d="M340 709c152 -117 236 -263 236 -424c0 -182 -105 -295 -262 -295c-158 0 -263 109 -263 273c0 162 103 269 252 269c82 0 144 -29 185 -77c-38 85 -102 161 -188 227l-88 -59l-31 21l89 60c-29 21 -60 41 -94 59l40 27c34 -19 65 -38 94 -59l88 59l30 -22zM314 32
c127 0 212 92 212 230c0 139 -87 231 -212 231c-127 0 -212 -92 -212 -231c0 -138 85 -230 212 -230z" />
    <glyph glyph-name="dcaron" unicode="&#x10f;" horiz-adv-x="668" 
d="M526 393v387h48v-780h-47l-1 124v7c-34 -84 -107 -141 -223 -141c-149 0 -252 109 -252 271c0 164 103 274 252 274c116 0 189 -57 223 -142zM685 780h46l-71 -187h-38zM314 32c127 0 212 92 212 230s-85 231 -212 231c-128 0 -212 -93 -212 -232
c0 -138 84 -229 212 -229z" />
    <glyph glyph-name="dcroat" unicode="&#x111;" horiz-adv-x="660" 
d="M662 674v-37h-88v-637h-47l-1 124v7c-34 -84 -107 -141 -223 -141c-149 0 -252 109 -252 271c0 164 103 274 252 274c116 0 189 -57 223 -142v244h-218v37h218v106h48v-106h88zM314 32c127 0 212 92 212 230s-85 231 -212 231c-128 0 -212 -93 -212 -232
c0 -138 84 -229 212 -229z" />
    <glyph glyph-name="e" unicode="e" horiz-adv-x="583" 
d="M537 269v-25h-433c6 -129 78 -215 192 -215c77 0 142 40 187 100l36 -23c-53 -76 -132 -116 -222 -116c-147 0 -245 110 -245 274c0 163 97 271 243 271c145 0 242 -107 242 -266zM295 495c-114 0 -187 -84 -192 -215h384c-5 131 -79 215 -192 215z" />
    <glyph glyph-name="eacute" unicode="&#xe9;" horiz-adv-x="583" 
d="M455 765l-147 -145h-44l128 145h63zM537 269v-25h-433c6 -129 78 -215 192 -215c77 0 142 40 187 100l36 -23c-53 -76 -132 -116 -222 -116c-147 0 -245 110 -245 274c0 163 97 271 243 271c145 0 242 -107 242 -266zM295 495c-114 0 -187 -84 -192 -215h384
c-5 131 -79 215 -192 215z" />
    <glyph glyph-name="ecaron" unicode="&#x11b;" horiz-adv-x="583" 
d="M321 620h-53l-129 145h49l107 -116l106 116h48zM537 269v-25h-433c6 -129 78 -215 192 -215c77 0 142 40 187 100l36 -23c-53 -76 -132 -116 -222 -116c-147 0 -245 110 -245 274c0 163 97 271 243 271c145 0 242 -107 242 -266zM295 495c-114 0 -187 -84 -192 -215h384
c-5 131 -79 215 -192 215z" />
    <glyph glyph-name="ecircumflex" unicode="&#xea;" horiz-adv-x="583" 
d="M295 736l-107 -116h-49l129 145h53l128 -145h-48zM537 269v-25h-433c6 -129 78 -215 192 -215c77 0 142 40 187 100l36 -23c-53 -76 -132 -116 -222 -116c-147 0 -245 110 -245 274c0 163 97 271 243 271c145 0 242 -107 242 -266zM295 495c-114 0 -187 -84 -192 -215
h384c-5 131 -79 215 -192 215z" />
    <glyph glyph-name="edieresis" unicode="&#xeb;" horiz-adv-x="583" 
d="M201 675c-21 0 -37 16 -37 37c0 20 16 36 37 36c20 0 36 -16 36 -36c0 -21 -16 -37 -36 -37zM388 675c-20 0 -36 16 -36 37c0 20 16 36 36 36c21 0 36 -16 36 -36c0 -21 -15 -37 -36 -37zM537 269v-25h-433c6 -129 78 -215 192 -215c77 0 142 40 187 100l36 -23
c-53 -76 -132 -116 -222 -116c-147 0 -245 110 -245 274c0 163 97 271 243 271c145 0 242 -107 242 -266zM295 495c-114 0 -187 -84 -192 -215h384c-5 131 -79 215 -192 215z" />
    <glyph glyph-name="edotaccent" unicode="&#x117;" horiz-adv-x="583" 
d="M295 675c-21 0 -37 16 -37 37c0 20 16 36 37 36c20 0 36 -16 36 -36c0 -21 -16 -37 -36 -37zM537 269v-25h-433c6 -129 78 -215 192 -215c77 0 142 40 187 100l36 -23c-53 -76 -132 -116 -222 -116c-147 0 -245 110 -245 274c0 163 97 271 243 271
c145 0 242 -107 242 -266zM295 495c-114 0 -187 -84 -192 -215h384c-5 131 -79 215 -192 215z" />
    <glyph glyph-name="egrave" unicode="&#xe8;" horiz-adv-x="583" 
d="M326 620h-45l-146 145h63zM537 269v-25h-433c6 -129 78 -215 192 -215c77 0 142 40 187 100l36 -23c-53 -76 -132 -116 -222 -116c-147 0 -245 110 -245 274c0 163 97 271 243 271c145 0 242 -107 242 -266zM295 495c-114 0 -187 -84 -192 -215h384
c-5 131 -79 215 -192 215z" />
    <glyph glyph-name="emacron" unicode="&#x113;" horiz-adv-x="583" 
d="M442 695v-40h-293v40h293zM537 269v-25h-433c6 -129 78 -215 192 -215c77 0 142 40 187 100l36 -23c-53 -76 -132 -116 -222 -116c-147 0 -245 110 -245 274c0 163 97 271 243 271c145 0 242 -107 242 -266zM295 495c-114 0 -187 -84 -192 -215h384
c-5 131 -79 215 -192 215z" />
    <glyph glyph-name="eogonek" unicode="&#x119;" horiz-adv-x="583" 
d="M537 269v-25h-433c6 -129 78 -215 192 -215c77 0 142 40 187 100l36 -23c-38 -54 -89 -90 -147 -106c-77 -51 -113 -104 -113 -150c0 -28 19 -48 48 -48c23 0 45 10 62 26l6 -30c-22 -19 -47 -28 -76 -28c-48 0 -81 30 -81 75c0 47 34 98 95 145h-16
c-147 0 -245 110 -245 274c0 163 97 271 243 271c145 0 242 -107 242 -266zM295 495c-114 0 -187 -84 -192 -215h384c-5 131 -79 215 -192 215z" />
    <glyph glyph-name="f" unicode="f" horiz-adv-x="364" 
d="M269 748c-64 0 -108 -42 -108 -106v-117h194v-41h-194v-484h-48v484h-93v41h93v125c0 84 59 140 146 140c40 0 75 -6 103 -20l-5 -40c-24 13 -53 18 -88 18z" />
    <glyph glyph-name="g" unicode="g" horiz-adv-x="660" 
d="M528 525h47v-492c0 -158 -112 -263 -280 -263c-92 0 -170 23 -229 70l11 39c55 -40 124 -67 217 -67c140 0 233 90 233 226v94c-34 -85 -107 -142 -223 -142c-149 0 -252 109 -252 274c0 162 103 271 252 271c116 0 189 -57 223 -142v8zM315 32c127 0 212 92 212 230
c0 139 -85 231 -212 231c-128 0 -212 -92 -212 -230c0 -139 84 -231 212 -231z" />
    <glyph glyph-name="gbreve" unicode="&#x11f;" horiz-adv-x="660" 
d="M326 610c-92 0 -153 62 -153 155h42c0 -73 44 -123 111 -123c66 0 110 50 110 123h42c0 -93 -61 -155 -152 -155zM528 525h47v-492c0 -158 -112 -263 -280 -263c-92 0 -170 23 -229 70l11 39c55 -40 124 -67 217 -67c140 0 233 90 233 226v94
c-34 -85 -107 -142 -223 -142c-149 0 -252 109 -252 274c0 162 103 271 252 271c116 0 189 -57 223 -142v8zM315 32c127 0 212 92 212 230c0 139 -85 231 -212 231c-128 0 -212 -92 -212 -230c0 -139 84 -231 212 -231z" />
    <glyph glyph-name="gcommaaccent" unicode="&#x123;" horiz-adv-x="660" 
d="M399 780l-63 -187h-47l71 187h39zM528 525h47v-492c0 -158 -112 -263 -280 -263c-92 0 -170 23 -229 70l11 39c55 -40 124 -67 217 -67c140 0 233 90 233 226v94c-34 -85 -107 -142 -223 -142c-149 0 -252 109 -252 274c0 162 103 271 252 271c116 0 189 -57 223 -142v8z
M315 32c127 0 212 92 212 230c0 139 -85 231 -212 231c-128 0 -212 -92 -212 -230c0 -139 84 -231 212 -231z" />
    <glyph glyph-name="gdotaccent" unicode="&#x121;" horiz-adv-x="660" 
d="M326 675c-21 0 -37 16 -37 37c0 20 16 36 37 36c20 0 36 -16 36 -36c0 -21 -16 -37 -36 -37zM528 525h47v-492c0 -158 -112 -263 -280 -263c-92 0 -170 23 -229 70l11 39c55 -40 124 -67 217 -67c140 0 233 90 233 226v94c-34 -85 -107 -142 -223 -142
c-149 0 -252 109 -252 274c0 162 103 271 252 271c116 0 189 -57 223 -142v8zM315 32c127 0 212 92 212 230c0 139 -85 231 -212 231c-128 0 -212 -92 -212 -230c0 -139 84 -231 212 -231z" />
    <glyph glyph-name="h" unicode="h" horiz-adv-x="629" 
d="M332 535c130 0 218 -81 218 -204v-331h-48v320c0 104 -74 173 -184 173s-184 -69 -184 -173v-320h-48v780h48v-356c31 68 96 111 198 111z" />
    <glyph glyph-name="hbar" unicode="&#x127;" horiz-adv-x="629" 
d="M332 535c130 0 218 -81 218 -204v-331h-48v320c0 104 -74 173 -184 173s-184 -69 -184 -173v-320h-48v637h-88v37h88v106h48v-106h218v-37h-218v-213c31 68 96 111 198 111z" />
    <glyph glyph-name="i" unicode="i" horiz-adv-x="224" 
d="M111 675c-20 0 -36 16 -36 37c0 20 16 36 36 36c21 0 37 -16 37 -36c0 -21 -16 -37 -37 -37zM88 0v525h48v-525h-48z" />
    <glyph glyph-name="dotlessi" unicode="&#x131;" horiz-adv-x="224" 
d="M88 0v525h48v-525h-48z" />
    <glyph glyph-name="iacute" unicode="&#xed;" horiz-adv-x="224" 
d="M81 620l128 145h63l-147 -145h-44zM88 0v525h48v-525h-48z" />
    <glyph glyph-name="icircumflex" unicode="&#xee;" horiz-adv-x="224" 
d="M138 765l128 -145h-48l-106 116l-107 -116h-49l129 145h53zM88 0v525h48v-525h-48z" />
    <glyph glyph-name="idieresis" unicode="&#xef;" horiz-adv-x="224" 
d="M18 675c-21 0 -37 16 -37 37c0 20 16 36 37 36c20 0 36 -16 36 -36c0 -21 -16 -37 -36 -37zM205 675c-20 0 -36 16 -36 37c0 20 16 36 36 36c21 0 36 -16 36 -36c0 -21 -15 -37 -36 -37zM88 0v525h48v-525h-48z" />
    <glyph glyph-name="igrave" unicode="&#xec;" horiz-adv-x="224" 
d="M98 620l-146 145h63l128 -145h-45zM88 0v525h48v-525h-48z" />
    <glyph glyph-name="imacron" unicode="&#x12b;" horiz-adv-x="224" 
d="M-34 655v40h293v-40h-293zM88 0v525h48v-525h-48z" />
    <glyph glyph-name="iogonek" unicode="&#x12f;" horiz-adv-x="224" 
d="M112 675c-21 0 -37 16 -37 37c0 20 16 36 37 36c20 0 36 -16 36 -36c0 -21 -16 -37 -36 -37zM71 -198c23 0 45 10 62 26l6 -30c-22 -19 -47 -28 -76 -28c-48 0 -81 30 -81 75c0 51 39 105 108 155h-2v525h48v-525c-77 -51 -113 -104 -113 -150c0 -28 19 -48 48 -48z" />
    <glyph glyph-name="j" unicode="j" horiz-adv-x="232" 
d="M118 675c-20 0 -36 16 -36 37c0 20 16 36 36 36c21 0 36 -16 36 -36c0 -21 -15 -37 -36 -37zM3 -230c-33 0 -62 5 -85 15l5 40c20 -9 43 -13 70 -13c61 0 102 46 102 116v597h48v-607c0 -89 -56 -148 -140 -148z" />
    <glyph glyph-name="k" unicode="k" horiz-adv-x="556" 
d="M488 0l-223 255h-131v-255h-48v780h48v-484h131l211 229h62l-233 -250l245 -275h-62z" />
    <glyph glyph-name="kcommaaccent" unicode="&#x137;" horiz-adv-x="556" 
d="M305 275l245 -275h-62l-223 255h-131v-255h-48v780h48v-484h131l211 229h62zM213 -220l56 168h47l-65 -168h-38z" />
    <glyph glyph-name="l" unicode="l" horiz-adv-x="228" 
d="M90 0v780h48v-780h-48z" />
    <glyph glyph-name="lacute" unicode="&#x13a;" horiz-adv-x="228" 
d="M83 875l128 145h63l-147 -145h-44zM90 0v780h48v-780h-48z" />
    <glyph glyph-name="lcaron" unicode="&#x13e;" horiz-adv-x="232" 
d="M90 0v780h48v-780h-48zM186 593l63 187h46l-71 -187h-38z" />
    <glyph glyph-name="lcommaaccent" unicode="&#x13c;" horiz-adv-x="228" 
d="M90 0v780h48v-780h-48zM43 -220l56 168h47l-65 -168h-38z" />
    <glyph glyph-name="lslash" unicode="&#x142;" horiz-adv-x="228" 
d="M235 508v-43l-97 -67v-398h-48v370l-100 -70v43l100 70v367h48v-339z" />
    <glyph glyph-name="m" unicode="m" horiz-adv-x="969" 
d="M684 535c123 0 205 -81 205 -204v-331h-48v320c0 104 -66 173 -164 173c-99 0 -165 -69 -165 -173v-320h-48v320c0 104 -66 173 -165 173s-165 -69 -165 -173v-320h-48v525h47l1 -97c29 66 88 107 179 107c89 0 156 -47 185 -121c28 72 90 121 186 121z" />
    <glyph glyph-name="n" unicode="n" horiz-adv-x="629" 
d="M332 535c130 0 218 -81 218 -204v-331h-48v320c0 104 -74 173 -184 173s-184 -69 -184 -173v-320h-48v525h47l1 -102c31 69 96 112 198 112z" />
    <glyph glyph-name="nacute" unicode="&#x144;" horiz-adv-x="629" 
d="M479 765l-147 -145h-44l128 145h63zM332 535c130 0 218 -81 218 -204v-331h-48v320c0 104 -74 173 -184 173s-184 -69 -184 -173v-320h-48v525h47l1 -102c31 69 96 112 198 112z" />
    <glyph glyph-name="ncaron" unicode="&#x148;" horiz-adv-x="629" 
d="M345 620h-53l-129 145h49l107 -116l106 116h48zM332 535c130 0 218 -81 218 -204v-331h-48v320c0 104 -74 173 -184 173s-184 -69 -184 -173v-320h-48v525h47l1 -102c31 69 96 112 198 112z" />
    <glyph glyph-name="ncommaaccent" unicode="&#x146;" horiz-adv-x="629" 
d="M332 535c130 0 218 -81 218 -204v-331h-48v320c0 104 -74 173 -184 173s-184 -69 -184 -173v-320h-48v525h47l1 -102c31 69 96 112 198 112zM247 -220l56 168h47l-65 -168h-38z" />
    <glyph glyph-name="eng" unicode="&#x14b;" horiz-adv-x="629" 
d="M332 535c130 0 218 -81 218 -204v-413c0 -89 -57 -148 -141 -148c-33 0 -62 5 -84 15l4 40c20 -9 43 -13 70 -13c61 0 103 46 103 116v392c0 104 -74 173 -184 173s-184 -69 -184 -173v-320h-48v525h47l1 -102c31 69 96 112 198 112z" />
    <glyph glyph-name="ntilde" unicode="&#xf1;" horiz-adv-x="629" 
d="M237 708c-32 0 -59 -27 -59 -68h-33c0 65 40 108 93 108c70 0 103 -77 161 -77c32 0 59 26 59 67h33c0 -66 -40 -108 -93 -108c-69 0 -103 78 -161 78zM332 535c130 0 218 -81 218 -204v-331h-48v320c0 104 -74 173 -184 173s-184 -69 -184 -173v-320h-48v525h47l1 -102
c31 69 96 112 198 112z" />
    <glyph glyph-name="o" unicode="o" horiz-adv-x="627" 
d="M314 -10c-158 0 -263 109 -263 272c0 164 105 273 263 273c157 0 262 -109 262 -273c0 -163 -105 -272 -262 -272zM314 32c127 0 212 92 212 230c0 139 -85 231 -212 231c-128 0 -212 -92 -212 -231c0 -138 84 -230 212 -230z" />
    <glyph glyph-name="oacute" unicode="&#xf3;" horiz-adv-x="627" 
d="M283 620l128 145h63l-147 -145h-44zM314 -10c-158 0 -263 109 -263 272c0 164 105 273 263 273c157 0 262 -109 262 -273c0 -163 -105 -272 -262 -272zM314 32c127 0 212 92 212 230c0 139 -85 231 -212 231c-128 0 -212 -92 -212 -231c0 -138 84 -230 212 -230z" />
    <glyph glyph-name="ocircumflex" unicode="&#xf4;" horiz-adv-x="627" 
d="M314 736l-107 -116h-49l129 145h53l128 -145h-48zM314 535c157 0 262 -109 262 -273c0 -163 -105 -272 -262 -272c-158 0 -263 109 -263 272c0 164 105 273 263 273zM314 32c127 0 212 92 212 230c0 139 -85 231 -212 231c-128 0 -212 -92 -212 -231
c0 -138 84 -230 212 -230z" />
    <glyph glyph-name="odieresis" unicode="&#xf6;" horiz-adv-x="627" 
d="M220 675c-21 0 -37 16 -37 37c0 20 16 36 37 36c20 0 36 -16 36 -36c0 -21 -16 -37 -36 -37zM407 675c-20 0 -36 16 -36 37c0 20 16 36 36 36c21 0 36 -16 36 -36c0 -21 -15 -37 -36 -37zM314 -10c-158 0 -263 109 -263 272c0 164 105 273 263 273
c157 0 262 -109 262 -273c0 -163 -105 -272 -262 -272zM314 32c127 0 212 92 212 230c0 139 -85 231 -212 231c-128 0 -212 -92 -212 -231c0 -138 84 -230 212 -230z" />
    <glyph glyph-name="ograve" unicode="&#xf2;" horiz-adv-x="627" 
d="M300 620l-146 145h63l128 -145h-45zM314 -10c-158 0 -263 109 -263 272c0 164 105 273 263 273c157 0 262 -109 262 -273c0 -163 -105 -272 -262 -272zM314 32c127 0 212 92 212 230c0 139 -85 231 -212 231c-128 0 -212 -92 -212 -231c0 -138 84 -230 212 -230z" />
    <glyph glyph-name="ohungarumlaut" unicode="&#x151;" horiz-adv-x="627" 
d="M220 620l106 145h62l-124 -145h-44zM351 620l106 145h62l-124 -145h-44zM314 -10c-158 0 -263 109 -263 272c0 164 105 273 263 273c157 0 262 -109 262 -273c0 -163 -105 -272 -262 -272zM314 32c127 0 212 92 212 230c0 139 -85 231 -212 231
c-128 0 -212 -92 -212 -231c0 -138 84 -230 212 -230z" />
    <glyph glyph-name="omacron" unicode="&#x14d;" horiz-adv-x="627" 
d="M168 655v40h293v-40h-293zM314 -10c-158 0 -263 109 -263 272c0 164 105 273 263 273c157 0 262 -109 262 -273c0 -163 -105 -272 -262 -272zM314 32c127 0 212 92 212 230c0 139 -85 231 -212 231c-128 0 -212 -92 -212 -231c0 -138 84 -230 212 -230z" />
    <glyph glyph-name="oslash" unicode="&#xf8;" horiz-adv-x="631" 
d="M576 506l-58 -62c37 -46 58 -109 58 -182c0 -163 -105 -272 -262 -272c-69 0 -128 21 -172 58l-55 -58l-33 29l57 60c-38 46 -60 109 -60 183c0 164 105 273 263 273c70 0 129 -21 173 -60l57 60zM102 262c0 -59 15 -109 43 -148l310 328c-36 33 -84 51 -141 51
c-128 0 -212 -92 -212 -231zM526 262c0 58 -15 109 -42 147l-310 -327c36 -32 84 -50 140 -50c127 0 212 92 212 230z" />
    <glyph glyph-name="otilde" unicode="&#xf5;" horiz-adv-x="627" 
d="M393 630c-69 0 -103 78 -161 78c-32 0 -59 -27 -59 -68h-33c0 65 40 108 93 108c70 0 103 -77 161 -77c32 0 59 26 59 67h33c0 -66 -40 -108 -93 -108zM314 -10c-158 0 -263 109 -263 272c0 164 105 273 263 273c157 0 262 -109 262 -273c0 -163 -105 -272 -262 -272z
M314 32c127 0 212 92 212 230c0 139 -85 231 -212 231c-128 0 -212 -92 -212 -231c0 -138 84 -230 212 -230z" />
    <glyph glyph-name="oe" unicode="&#x153;" horiz-adv-x="1057" 
d="M1011 269v-25h-434c7 -129 79 -215 193 -215c77 0 142 40 187 100l36 -23c-53 -76 -131 -116 -220 -116c-110 0 -191 66 -222 171c-33 -106 -121 -171 -239 -171c-157 0 -261 109 -261 272c0 164 104 273 261 273c117 0 205 -65 239 -170c30 105 111 170 220 170
c144 0 240 -107 240 -266zM769 495c-114 0 -187 -84 -193 -215h385c-5 131 -79 215 -192 215zM314 32c127 0 212 92 212 230c0 139 -85 231 -212 231s-212 -92 -212 -231c0 -138 85 -230 212 -230z" />
    <glyph glyph-name="p" unicode="p" horiz-adv-x="660" 
d="M357 535c149 0 252 -109 252 -271c0 -165 -103 -274 -252 -274c-116 0 -189 57 -223 142v-352h-48v745h47l1 -124v-8c34 85 107 142 223 142zM346 32c128 0 213 92 213 231c0 138 -85 230 -213 230c-127 0 -212 -92 -212 -231c0 -138 85 -230 212 -230z" />
    <glyph glyph-name="thorn" unicode="&#xfe;" horiz-adv-x="660" 
d="M357 535c149 0 252 -109 252 -271c0 -165 -103 -274 -252 -274c-116 0 -189 57 -223 142v-352h-48v1000h48v-387c34 85 107 142 223 142zM346 32c128 0 213 92 213 231c0 138 -85 230 -213 230c-127 0 -212 -92 -212 -231c0 -138 85 -230 212 -230z" />
    <glyph glyph-name="q" unicode="q" horiz-adv-x="660" 
d="M527 525h47v-745h-48v352c-34 -85 -107 -142 -223 -142c-149 0 -252 109 -252 274c0 162 103 271 252 271c116 0 189 -57 223 -142v8zM314 32c127 0 212 92 212 230c0 139 -85 231 -212 231c-128 0 -212 -92 -212 -230c0 -139 84 -231 212 -231z" />
    <glyph glyph-name="r" unicode="r" horiz-adv-x="356" 
d="M134 424c34 76 107 111 214 111l-4 -44c-135 0 -210 -69 -210 -178v-313h-48v525h47z" />
    <glyph glyph-name="racute" unicode="&#x155;" horiz-adv-x="356" 
d="M363 765l-147 -145h-44l128 145h63zM134 424c34 76 107 111 214 111l-4 -44c-135 0 -210 -69 -210 -178v-313h-48v525h47z" />
    <glyph glyph-name="rcaron" unicode="&#x159;" horiz-adv-x="356" 
d="M229 620h-53l-129 145h49l107 -116l106 116h48zM134 424c34 76 107 111 214 111l-4 -44c-135 0 -210 -69 -210 -178v-313h-48v525h47z" />
    <glyph glyph-name="rcommaaccent" unicode="&#x157;" horiz-adv-x="356" 
d="M134 424c34 76 107 111 214 111l-4 -44c-135 0 -210 -69 -210 -178v-313h-48v525h47zM53 -220l56 168h47l-65 -168h-38z" />
    <glyph glyph-name="s" unicode="s" horiz-adv-x="468" 
d="M228 -10c-72 0 -136 18 -173 53l22 31c42 -33 96 -45 151 -45c84 0 140 42 140 104c0 55 -51 88 -118 107l-61 18c-80 23 -136 55 -136 133c0 86 71 144 176 144c68 0 122 -14 172 -45l-22 -35c-44 29 -93 40 -146 40c-77 0 -130 -38 -130 -98c0 -56 45 -81 105 -98
l62 -18c75 -22 148 -61 148 -145c0 -87 -73 -146 -190 -146z" />
    <glyph glyph-name="sacute" unicode="&#x15b;" horiz-adv-x="468" 
d="M199 620l128 145h63l-147 -145h-44zM228 -10c-72 0 -136 18 -173 53l22 31c42 -33 96 -45 151 -45c84 0 140 42 140 104c0 55 -51 88 -118 107l-61 18c-80 23 -136 55 -136 133c0 86 71 144 176 144c68 0 122 -14 172 -45l-22 -35c-44 29 -93 40 -146 40
c-77 0 -130 -38 -130 -98c0 -56 45 -81 105 -98l62 -18c75 -22 148 -61 148 -145c0 -87 -73 -146 -190 -146z" />
    <glyph glyph-name="scaron" unicode="&#x161;" horiz-adv-x="468" 
d="M256 620h-53l-129 145h49l107 -116l106 116h48zM270 281c75 -22 148 -61 148 -145c0 -87 -73 -146 -190 -146c-72 0 -136 18 -173 53l22 31c42 -33 96 -45 151 -45c84 0 140 42 140 104c0 55 -51 88 -118 107l-61 18c-80 23 -136 55 -136 133c0 86 71 144 176 144
c68 0 122 -14 172 -45l-22 -35c-44 29 -93 40 -146 40c-77 0 -130 -38 -130 -98c0 -56 45 -81 105 -98z" />
    <glyph glyph-name="scedilla" unicode="&#x15f;" horiz-adv-x="468" 
d="M418 136c0 -81 -63 -137 -165 -145l-40 -62c8 1 17 2 25 2c64 0 105 -32 105 -78c0 -50 -45 -83 -116 -83c-40 0 -74 11 -93 30l12 25c17 -18 44 -26 77 -26c49 0 80 22 80 54c0 31 -31 51 -78 51c-17 0 -34 -3 -49 -9l-9 17l50 78c-68 2 -127 20 -162 53l22 31
c42 -33 96 -45 151 -45c84 0 140 42 140 104c0 55 -51 88 -118 107l-61 18c-80 23 -136 55 -136 133c0 86 71 144 176 144c68 0 122 -14 172 -45l-22 -35c-44 29 -93 40 -146 40c-77 0 -130 -38 -130 -98c0 -56 45 -81 105 -98l62 -18c75 -22 148 -61 148 -145z" />
    <glyph glyph-name="scommaaccent" unicode="&#x219;" horiz-adv-x="468" 
d="M228 -10c-72 0 -136 18 -173 53l22 31c42 -33 96 -45 151 -45c84 0 140 42 140 104c0 55 -51 88 -118 107l-61 18c-80 23 -136 55 -136 133c0 86 71 144 176 144c68 0 122 -14 172 -45l-22 -35c-44 29 -93 40 -146 40c-77 0 -130 -38 -130 -98c0 -56 45 -81 105 -98
l62 -18c75 -22 148 -61 148 -145c0 -87 -73 -146 -190 -146zM169 -220l56 168h47l-65 -168h-38z" />
    <glyph glyph-name="germandbls" unicode="&#xdf;" horiz-adv-x="597" 
d="M383 418c102 -27 165 -104 165 -208c0 -132 -97 -220 -242 -220c-26 0 -52 3 -77 12l6 41c22 -9 43 -11 65 -11c119 0 197 73 197 182c0 110 -80 183 -200 183v40c98 0 163 62 163 156c0 93 -65 155 -163 155c-97 0 -163 -61 -163 -155v-593h-48v599
c0 115 85 191 211 191c128 0 214 -76 214 -191c0 -88 -49 -154 -128 -181z" />
    <glyph glyph-name="t" unicode="t" horiz-adv-x="377" 
d="M259 32c38 0 74 6 110 19v-40c-33 -15 -75 -21 -124 -21c-81 0 -135 55 -135 137v357h-94v41h94v154h48v-154h203v-41h-203v-348c0 -62 41 -104 101 -104z" />
    <glyph glyph-name="tbar" unicode="&#x167;" horiz-adv-x="386" 
d="M259 32c38 0 74 6 110 19v-40c-33 -15 -75 -21 -124 -21c-81 0 -135 55 -135 137v133h-83v37h83v187h-94v41h94v154h48v-154h203v-41h-203v-187h202v-37h-202v-124c0 -62 41 -104 101 -104z" />
    <glyph glyph-name="tcaron" unicode="&#x165;" horiz-adv-x="377" 
d="M354 780l-71 -187h-38l63 187h46zM259 32c38 0 74 6 110 19v-40c-33 -15 -75 -21 -124 -21c-81 0 -135 55 -135 137v357h-94v41h94v154h48v-154h203v-41h-203v-348c0 -62 41 -104 101 -104z" />
    <glyph glyph-name="uni0163" unicode="&#x163;" horiz-adv-x="377" 
d="M245 -10c-11 0 -22 1 -32 3l-41 -64c8 1 16 2 25 2c64 0 106 -32 106 -78c0 -50 -46 -83 -116 -83c-40 0 -74 11 -94 30l13 25c17 -18 44 -26 76 -26c49 0 81 22 81 54c0 31 -32 51 -78 51c-18 0 -34 -3 -49 -9l-9 17l56 91c-45 20 -73 65 -73 124v357h-94v41h94v154h48
v-154h203v-41h-203v-348c0 -62 41 -104 101 -104c38 0 74 6 110 19v-40c-33 -15 -75 -21 -124 -21z" />
    <glyph glyph-name="uni021B" unicode="&#x21b;" horiz-adv-x="377" 
d="M259 32c38 0 74 6 110 19v-40c-33 -15 -75 -21 -124 -21c-81 0 -135 55 -135 137v357h-94v41h94v154h48v-154h203v-41h-203v-348c0 -62 41 -104 101 -104zM135 -220l56 168h47l-65 -168h-38z" />
    <glyph glyph-name="u" unicode="u" horiz-adv-x="618" 
d="M484 525h48v-525h-47l-1 100c-30 -68 -93 -110 -192 -110c-127 0 -212 82 -212 203v332h48v-320c0 -104 71 -173 178 -173s178 69 178 173v320z" />
    <glyph glyph-name="uacute" unicode="&#xfa;" horiz-adv-x="618" 
d="M466 765l-147 -145h-44l128 145h63zM484 525h48v-525h-47l-1 100c-30 -68 -93 -110 -192 -110c-127 0 -212 82 -212 203v332h48v-320c0 -104 71 -173 178 -173s178 69 178 173v320z" />
    <glyph glyph-name="ucircumflex" unicode="&#xfb;" horiz-adv-x="618" 
d="M306 736l-107 -116h-49l129 145h53l128 -145h-48zM484 525h48v-525h-47l-1 100c-30 -68 -93 -110 -192 -110c-127 0 -212 82 -212 203v332h48v-320c0 -104 71 -173 178 -173s178 69 178 173v320z" />
    <glyph glyph-name="udieresis" unicode="&#xfc;" horiz-adv-x="618" 
d="M212 675c-21 0 -37 16 -37 37c0 20 16 36 37 36c20 0 36 -16 36 -36c0 -21 -16 -37 -36 -37zM399 675c-20 0 -36 16 -36 37c0 20 16 36 36 36c21 0 36 -16 36 -36c0 -21 -15 -37 -36 -37zM484 525h48v-525h-47l-1 100c-30 -68 -93 -110 -192 -110
c-127 0 -212 82 -212 203v332h48v-320c0 -104 71 -173 178 -173s178 69 178 173v320z" />
    <glyph glyph-name="ugrave" unicode="&#xf9;" horiz-adv-x="618" 
d="M337 620h-45l-146 145h63zM484 525h48v-525h-47l-1 100c-30 -68 -93 -110 -192 -110c-127 0 -212 82 -212 203v332h48v-320c0 -104 71 -173 178 -173s178 69 178 173v320z" />
    <glyph glyph-name="uhungarumlaut" unicode="&#x171;" horiz-adv-x="618" 
d="M380 765l-124 -145h-44l106 145h62zM387 620h-44l106 145h62zM484 525h48v-525h-47l-1 100c-30 -68 -93 -110 -192 -110c-127 0 -212 82 -212 203v332h48v-320c0 -104 71 -173 178 -173s178 69 178 173v320z" />
    <glyph glyph-name="umacron" unicode="&#x16b;" horiz-adv-x="618" 
d="M453 695v-40h-293v40h293zM484 525h48v-525h-47l-1 100c-30 -68 -93 -110 -192 -110c-127 0 -212 82 -212 203v332h48v-320c0 -104 71 -173 178 -173s178 69 178 173v320z" />
    <glyph glyph-name="uogonek" unicode="&#x173;" horiz-adv-x="618" 
d="M529 -172l6 -30c-22 -19 -47 -28 -76 -28c-48 0 -81 30 -81 75c0 51 39 105 108 155h-1l-1 100c-30 -68 -93 -110 -192 -110c-127 0 -212 82 -212 203v332h48v-320c0 -104 71 -173 178 -173s178 69 178 173v320h48v-525c-77 -51 -113 -104 -113 -150c0 -28 19 -48 48 -48
c23 0 45 10 62 26z" />
    <glyph glyph-name="uring" unicode="&#x16f;" horiz-adv-x="618" 
d="M306 584c-63 0 -106 41 -106 104s43 104 106 104s106 -41 106 -104s-43 -104 -106 -104zM306 765c-44 0 -72 -31 -72 -77s28 -76 72 -76s72 30 72 76s-28 77 -72 77zM484 525h48v-525h-47l-1 100c-30 -68 -93 -110 -192 -110c-127 0 -212 82 -212 203v332h48v-320
c0 -104 71 -173 178 -173s178 69 178 173v320z" />
    <glyph glyph-name="v" unicode="v" horiz-adv-x="555" 
d="M253 0l-239 525h54l210 -469l210 469h53l-239 -525h-49z" />
    <glyph glyph-name="w" unicode="w" horiz-adv-x="910" 
d="M840 525h54l-209 -525h-49l-181 468l-181 -468h-49l-209 525h54l182 -469l181 469h44l181 -469z" />
    <glyph glyph-name="wacute" unicode="&#x1e83;" horiz-adv-x="910" 
d="M616 765l-147 -145h-44l128 145h63zM840 525h54l-209 -525h-49l-181 468l-181 -468h-49l-209 525h54l182 -469l181 469h44l181 -469z" />
    <glyph glyph-name="wcircumflex" unicode="&#x175;" horiz-adv-x="910" 
d="M456 736l-107 -116h-49l129 145h53l128 -145h-48zM840 525h54l-209 -525h-49l-181 468l-181 -468h-49l-209 525h54l182 -469l181 469h44l181 -469z" />
    <glyph glyph-name="wdieresis" unicode="&#x1e85;" horiz-adv-x="910" 
d="M362 675c-21 0 -37 16 -37 37c0 20 16 36 37 36c20 0 36 -16 36 -36c0 -21 -16 -37 -36 -37zM549 675c-20 0 -36 16 -36 37c0 20 16 36 36 36c21 0 36 -16 36 -36c0 -21 -15 -37 -36 -37zM840 525h54l-209 -525h-49l-181 468l-181 -468h-49l-209 525h54l182 -469l181 469
h44l181 -469z" />
    <glyph glyph-name="wgrave" unicode="&#x1e81;" horiz-adv-x="910" 
d="M487 620h-45l-146 145h63zM840 525h54l-209 -525h-49l-181 468l-181 -468h-49l-209 525h54l182 -469l181 469h44l181 -469z" />
    <glyph glyph-name="x" unicode="x" horiz-adv-x="530" 
d="M514 0h-60l-189 237l-189 -237h-60l219 269l-207 256h59l178 -224l178 224h59l-207 -256z" />
    <glyph glyph-name="y" unicode="y" horiz-adv-x="555" 
d="M123 -230c-21 0 -43 4 -58 11l6 40c12 -6 27 -9 44 -9c46 0 65 31 87 76l54 117l-240 520h54l212 -467l207 467h54l-294 -643c-30 -68 -58 -112 -126 -112z" />
    <glyph glyph-name="yacute" unicode="&#xfd;" horiz-adv-x="555" 
d="M249 620l128 145h63l-147 -145h-44zM123 -230c-21 0 -43 4 -58 11l6 40c12 -6 27 -9 44 -9c46 0 65 31 87 76l54 117l-240 520h54l212 -467l207 467h54l-294 -643c-30 -68 -58 -112 -126 -112z" />
    <glyph glyph-name="ycircumflex" unicode="&#x177;" horiz-adv-x="555" 
d="M280 736l-107 -116h-49l129 145h53l128 -145h-48zM489 525h54l-294 -643c-30 -68 -58 -112 -126 -112c-21 0 -43 4 -58 11l6 40c12 -6 27 -9 44 -9c46 0 65 31 87 76l54 117l-240 520h54l212 -467z" />
    <glyph glyph-name="ydieresis" unicode="&#xff;" horiz-adv-x="555" 
d="M186 675c-21 0 -37 16 -37 37c0 20 16 36 37 36c20 0 36 -16 36 -36c0 -21 -16 -37 -36 -37zM373 675c-20 0 -36 16 -36 37c0 20 16 36 36 36c21 0 36 -16 36 -36c0 -21 -15 -37 -36 -37zM123 -230c-21 0 -43 4 -58 11l6 40c12 -6 27 -9 44 -9c46 0 65 31 87 76l54 117
l-240 520h54l212 -467l207 467h54l-294 -643c-30 -68 -58 -112 -126 -112z" />
    <glyph glyph-name="ygrave" unicode="&#x1ef3;" horiz-adv-x="555" 
d="M266 620l-146 145h63l128 -145h-45zM123 -230c-21 0 -43 4 -58 11l6 40c12 -6 27 -9 44 -9c46 0 65 31 87 76l54 117l-240 520h54l212 -467l207 467h54l-294 -643c-30 -68 -58 -112 -126 -112z" />
    <glyph glyph-name="z" unicode="z" horiz-adv-x="498" 
d="M37 0v33l347 451h-342v41h409v-33l-346 -451h360v-41h-428z" />
    <glyph glyph-name="zacute" unicode="&#x17a;" horiz-adv-x="498" 
d="M215 620l128 145h63l-147 -145h-44zM37 0v33l347 451h-342v41h409v-33l-346 -451h360v-41h-428z" />
    <glyph glyph-name="zcaron" unicode="&#x17e;" horiz-adv-x="498" 
d="M272 620h-53l-129 145h49l107 -116l106 116h48zM105 41h360v-41h-428v33l347 451h-342v41h409v-33z" />
    <glyph glyph-name="zdotaccent" unicode="&#x17c;" horiz-adv-x="498" 
d="M246 675c-21 0 -37 16 -37 37c0 20 16 36 37 36c20 0 36 -16 36 -36c0 -21 -16 -37 -36 -37zM37 0v33l347 451h-342v41h409v-33l-346 -451h360v-41h-428z" />
    <glyph glyph-name="i.loclTRK" horiz-adv-x="224" 
d="M112 675c-21 0 -37 16 -37 37c0 20 16 36 37 36c20 0 36 -16 36 -36c0 -21 -16 -37 -36 -37zM88 0v525h48v-525h-48z" />
    <glyph glyph-name="a.ss01" horiz-adv-x="660" 
d="M527 525h47v-525h-47l-1 124v7c-34 -84 -107 -141 -223 -141c-149 0 -252 109 -252 271c0 164 103 274 252 274c116 0 189 -57 223 -142v8zM314 32c127 0 212 92 212 230s-85 231 -212 231c-128 0 -212 -93 -212 -232c0 -138 84 -229 212 -229z" />
    <glyph glyph-name="aacute.ss01" horiz-adv-x="660" 
d="M483 765l-147 -145h-44l128 145h63zM527 525h47v-525h-47l-1 124v7c-34 -84 -107 -141 -223 -141c-149 0 -252 109 -252 271c0 164 103 274 252 274c116 0 189 -57 223 -142v8zM314 32c127 0 212 92 212 230s-85 231 -212 231c-128 0 -212 -93 -212 -232
c0 -138 84 -229 212 -229z" />
    <glyph glyph-name="abreve.ss01" horiz-adv-x="660" 
d="M323 610c-92 0 -153 62 -153 155h42c0 -73 44 -123 111 -123c66 0 110 50 110 123h42c0 -93 -61 -155 -152 -155zM527 525h47v-525h-47l-1 124v7c-34 -84 -107 -141 -223 -141c-149 0 -252 109 -252 271c0 164 103 274 252 274c116 0 189 -57 223 -142v8zM314 32
c127 0 212 92 212 230s-85 231 -212 231c-128 0 -212 -93 -212 -232c0 -138 84 -229 212 -229z" />
    <glyph glyph-name="acircumflex.ss01" horiz-adv-x="660" 
d="M323 736l-107 -116h-49l129 145h53l128 -145h-48zM527 525h47v-525h-47l-1 124v7c-34 -84 -107 -141 -223 -141c-149 0 -252 109 -252 271c0 164 103 274 252 274c116 0 189 -57 223 -142v8zM314 32c127 0 212 92 212 230s-85 231 -212 231c-128 0 -212 -93 -212 -232
c0 -138 84 -229 212 -229z" />
    <glyph glyph-name="adieresis.ss01" horiz-adv-x="660" 
d="M229 675c-21 0 -37 16 -37 37c0 20 16 36 37 36c20 0 36 -16 36 -36c0 -21 -16 -37 -36 -37zM416 675c-20 0 -36 16 -36 37c0 20 16 36 36 36c21 0 36 -16 36 -36c0 -21 -15 -37 -36 -37zM527 525h47v-525h-47l-1 124v7c-34 -84 -107 -141 -223 -141
c-149 0 -252 109 -252 271c0 164 103 274 252 274c116 0 189 -57 223 -142v8zM314 32c127 0 212 92 212 230s-85 231 -212 231c-128 0 -212 -93 -212 -232c0 -138 84 -229 212 -229z" />
    <glyph glyph-name="agrave.ss01" horiz-adv-x="660" 
d="M354 620h-45l-146 145h63zM527 525h47v-525h-47l-1 124v7c-34 -84 -107 -141 -223 -141c-149 0 -252 109 -252 271c0 164 103 274 252 274c116 0 189 -57 223 -142v8zM314 32c127 0 212 92 212 230s-85 231 -212 231c-128 0 -212 -93 -212 -232c0 -138 84 -229 212 -229z
" />
    <glyph glyph-name="amacron.ss01" horiz-adv-x="660" 
d="M470 695v-40h-293v40h293zM527 525h47v-525h-47l-1 124v7c-34 -84 -107 -141 -223 -141c-149 0 -252 109 -252 271c0 164 103 274 252 274c116 0 189 -57 223 -142v8zM314 32c127 0 212 92 212 230s-85 231 -212 231c-128 0 -212 -93 -212 -232c0 -138 84 -229 212 -229z
" />
    <glyph glyph-name="aogonek.ss01" horiz-adv-x="660" 
d="M571 -172l6 -30c-22 -19 -47 -28 -76 -28c-48 0 -81 30 -81 75c0 51 39 105 108 155h-1l-1 124v7c-34 -84 -107 -141 -223 -141c-149 0 -252 109 -252 271c0 164 103 274 252 274c116 0 189 -57 223 -142v8l1 124h47v-525c-77 -51 -113 -104 -113 -150
c0 -28 19 -48 48 -48c23 0 45 10 62 26zM314 32c127 0 212 92 212 230s-85 231 -212 231c-128 0 -212 -93 -212 -232c0 -138 84 -229 212 -229z" />
    <glyph glyph-name="aring.ss01" horiz-adv-x="660" 
d="M323 584c-63 0 -106 41 -106 104s43 104 106 104s106 -41 106 -104s-43 -104 -106 -104zM323 765c-44 0 -72 -31 -72 -77s28 -76 72 -76s72 30 72 76s-28 77 -72 77zM527 525h47v-525h-47l-1 124v7c-34 -84 -107 -141 -223 -141c-149 0 -252 109 -252 271
c0 164 103 274 252 274c116 0 189 -57 223 -142v8zM314 32c127 0 212 92 212 230s-85 231 -212 231c-128 0 -212 -93 -212 -232c0 -138 84 -229 212 -229z" />
    <glyph glyph-name="atilde.ss01" horiz-adv-x="660" 
d="M241 708c-32 0 -59 -27 -59 -68h-33c0 65 40 108 93 108c70 0 103 -77 161 -77c32 0 59 26 59 67h33c0 -66 -40 -108 -93 -108c-69 0 -103 78 -161 78zM527 525h47v-525h-47l-1 124v7c-34 -84 -107 -141 -223 -141c-149 0 -252 109 -252 271c0 164 103 274 252 274
c116 0 189 -57 223 -142v8zM314 32c127 0 212 92 212 230s-85 231 -212 231c-128 0 -212 -93 -212 -232c0 -138 84 -229 212 -229z" />
    <glyph glyph-name="f.ss01" horiz-adv-x="338" 
d="M243 748c-65 0 -109 -42 -109 -106v-117h194v-41h-194v-484h-48v650c0 84 59 140 146 140c41 0 75 -6 103 -20l-4 -40c-25 13 -54 18 -88 18z" />
    <glyph glyph-name="j.ss01" horiz-adv-x="224" 
d="M111 675c-20 0 -36 16 -36 37c0 20 16 36 36 36c21 0 36 -16 36 -36c0 -21 -15 -37 -36 -37zM88 -220v745h48v-745h-48z" />
    <glyph glyph-name="t.ss01" horiz-adv-x="348" 
d="M230 32c39 0 75 6 110 19v-40c-33 -15 -74 -21 -124 -21c-81 0 -135 55 -135 137v552h48v-154h203v-41h-203v-348c0 -62 41 -104 101 -104z" />
    <glyph glyph-name="tbar.ss01" horiz-adv-x="350" 
d="M230 32c39 0 75 6 110 19v-40c-33 -15 -74 -21 -124 -21c-81 0 -135 55 -135 137v552h48v-154h203v-41h-203v-187h195v-37h-195v-124c0 -62 41 -104 101 -104z" />
    <glyph glyph-name="tcaron.ss01" horiz-adv-x="348" 
d="M325 780l-71 -187h-38l63 187h46zM230 32c39 0 75 6 110 19v-40c-33 -15 -74 -21 -124 -21c-81 0 -135 55 -135 137v552h48v-154h203v-41h-203v-348c0 -62 41 -104 101 -104z" />
    <glyph glyph-name="uni0163.ss01" horiz-adv-x="348" 
d="M216 -10c-11 0 -21 1 -31 3l-41 -64c8 1 17 2 25 2c64 0 105 -32 105 -78c0 -50 -45 -83 -116 -83c-40 0 -74 11 -93 30l12 25c17 -18 44 -26 76 -26c50 0 81 22 81 54c0 31 -31 51 -78 51c-18 0 -34 -3 -49 -9l-9 17l56 91c-45 20 -73 65 -73 124v552h48v-154h203v-41
h-203v-348c0 -62 41 -104 101 -104c39 0 75 6 110 19v-40c-33 -15 -74 -21 -124 -21z" />
    <glyph glyph-name="uni021B.ss01" horiz-adv-x="348" 
d="M230 32c39 0 75 6 110 19v-40c-33 -15 -74 -21 -124 -21c-81 0 -135 55 -135 137v552h48v-154h203v-41h-203v-348c0 -62 41 -104 101 -104zM108 -220l56 168h47l-65 -168h-38z" />
    <glyph glyph-name="u.ss01" horiz-adv-x="611" 
d="M306 -10c-136 0 -227 82 -227 207v328h48v-320c0 -104 71 -173 179 -173c107 0 178 69 178 173v320h48v-328c0 -125 -91 -207 -226 -207z" />
    <glyph glyph-name="uacute.ss01" horiz-adv-x="611" 
d="M275 620l128 145h63l-147 -145h-44zM306 -10c-136 0 -227 82 -227 207v328h48v-320c0 -104 71 -173 179 -173c107 0 178 69 178 173v320h48v-328c0 -125 -91 -207 -226 -207z" />
    <glyph glyph-name="ucircumflex.ss01" horiz-adv-x="611" 
d="M306 736l-107 -116h-49l129 145h53l128 -145h-48zM484 525h48v-328c0 -125 -91 -207 -226 -207c-136 0 -227 82 -227 207v328h48v-320c0 -104 71 -173 179 -173c107 0 178 69 178 173v320z" />
    <glyph glyph-name="udieresis.ss01" horiz-adv-x="611" 
d="M212 675c-21 0 -37 16 -37 37c0 20 16 36 37 36c20 0 36 -16 36 -36c0 -21 -16 -37 -36 -37zM399 675c-20 0 -36 16 -36 37c0 20 16 36 36 36c21 0 36 -16 36 -36c0 -21 -15 -37 -36 -37zM306 -10c-136 0 -227 82 -227 207v328h48v-320c0 -104 71 -173 179 -173
c107 0 178 69 178 173v320h48v-328c0 -125 -91 -207 -226 -207z" />
    <glyph glyph-name="ugrave.ss01" horiz-adv-x="611" 
d="M292 620l-146 145h63l128 -145h-45zM306 -10c-136 0 -227 82 -227 207v328h48v-320c0 -104 71 -173 179 -173c107 0 178 69 178 173v320h48v-328c0 -125 -91 -207 -226 -207z" />
    <glyph glyph-name="uhungarumlaut.ss01" horiz-adv-x="611" 
d="M212 620l106 145h62l-124 -145h-44zM343 620l106 145h62l-124 -145h-44zM306 -10c-136 0 -227 82 -227 207v328h48v-320c0 -104 71 -173 179 -173c107 0 178 69 178 173v320h48v-328c0 -125 -91 -207 -226 -207z" />
    <glyph glyph-name="umacron.ss01" horiz-adv-x="611" 
d="M160 655v40h293v-40h-293zM306 -10c-136 0 -227 82 -227 207v328h48v-320c0 -104 71 -173 179 -173c107 0 178 69 178 173v320h48v-328c0 -125 -91 -207 -226 -207z" />
    <glyph glyph-name="uogonek.ss01" horiz-adv-x="611" 
d="M484 525h48v-328c0 -100 -58 -173 -151 -197c-76 -51 -112 -104 -112 -150c0 -28 19 -48 48 -48c23 0 45 10 62 26l6 -30c-22 -19 -47 -28 -76 -28c-48 0 -81 30 -81 75c0 47 34 98 95 145h-17c-136 0 -227 82 -227 207v328h48v-320c0 -104 71 -173 179 -173
c107 0 178 69 178 173v320z" />
    <glyph glyph-name="uring.ss01" horiz-adv-x="611" 
d="M306 584c-63 0 -106 41 -106 104s43 104 106 104s106 -41 106 -104s-43 -104 -106 -104zM306 612c44 0 72 30 72 76s-28 77 -72 77s-72 -31 -72 -77s28 -76 72 -76zM306 -10c-136 0 -227 82 -227 207v328h48v-320c0 -104 71 -173 179 -173c107 0 178 69 178 173v320h48
v-328c0 -125 -91 -207 -226 -207z" />
    <glyph glyph-name="y.ss01" horiz-adv-x="618" 
d="M484 525h48v-492c0 -158 -98 -263 -246 -263c-85 0 -157 23 -211 70l10 39c51 -40 115 -67 200 -67c120 0 199 90 199 226v61c-30 -67 -94 -109 -192 -109c-127 0 -212 82 -212 203v332h48v-320c0 -104 71 -173 178 -173s178 69 178 173v320z" />
    <glyph glyph-name="yacute.ss01" horiz-adv-x="618" 
d="M461 765l-147 -145h-44l128 145h63zM484 525h48v-492c0 -158 -98 -263 -246 -263c-85 0 -157 23 -211 70l10 39c51 -40 115 -67 200 -67c120 0 199 90 199 226v61c-30 -67 -94 -109 -192 -109c-127 0 -212 82 -212 203v332h48v-320c0 -104 71 -173 178 -173
s178 69 178 173v320z" />
    <glyph glyph-name="ycircumflex.ss01" horiz-adv-x="618" 
d="M301 736l-107 -116h-49l129 145h53l128 -145h-48zM484 525h48v-492c0 -158 -98 -263 -246 -263c-85 0 -157 23 -211 70l10 39c51 -40 115 -67 200 -67c120 0 199 90 199 226v61c-30 -67 -94 -109 -192 -109c-127 0 -212 82 -212 203v332h48v-320c0 -104 71 -173 178 -173
s178 69 178 173v320z" />
    <glyph glyph-name="ydieresis.ss01" horiz-adv-x="618" 
d="M207 675c-21 0 -37 16 -37 37c0 20 16 36 37 36c20 0 36 -16 36 -36c0 -21 -16 -37 -36 -37zM394 675c-20 0 -36 16 -36 37c0 20 16 36 36 36c21 0 36 -16 36 -36c0 -21 -15 -37 -36 -37zM484 525h48v-492c0 -158 -98 -263 -246 -263c-85 0 -157 23 -211 70l10 39
c51 -40 115 -67 200 -67c120 0 199 90 199 226v61c-30 -67 -94 -109 -192 -109c-127 0 -212 82 -212 203v332h48v-320c0 -104 71 -173 178 -173s178 69 178 173v320z" />
    <glyph glyph-name="ygrave.ss01" horiz-adv-x="618" 
d="M332 620h-45l-146 145h63zM484 525h48v-492c0 -158 -98 -263 -246 -263c-85 0 -157 23 -211 70l10 39c51 -40 115 -67 200 -67c120 0 199 90 199 226v61c-30 -67 -94 -109 -192 -109c-127 0 -212 82 -212 203v332h48v-320c0 -104 71 -173 178 -173s178 69 178 173v320z
" />
    <glyph glyph-name="a.ss02" horiz-adv-x="552" 
d="M74 525h392v-525h-47l-1 116v11c-36 -86 -118 -137 -209 -137c-101 0 -169 59 -169 149c0 94 84 157 211 157c55 0 114 -7 167 -21v210h-344v40zM221 27c92 0 197 76 197 212c-51 14 -109 21 -161 21c-100 0 -167 -48 -167 -120c0 -68 51 -113 131 -113z" />
    <glyph glyph-name="aacute.ss02" horiz-adv-x="552" 
d="M432 765l-147 -145h-44l128 145h63zM74 525h392v-525h-47l-1 116v11c-36 -86 -118 -137 -209 -137c-101 0 -169 59 -169 149c0 94 84 157 211 157c55 0 114 -7 167 -21v210h-344v40zM221 27c92 0 197 76 197 212c-51 14 -109 21 -161 21c-100 0 -167 -48 -167 -120
c0 -68 51 -113 131 -113z" />
    <glyph glyph-name="abreve.ss02" horiz-adv-x="552" 
d="M272 610c-92 0 -153 62 -153 155h42c0 -73 44 -123 111 -123c66 0 110 50 110 123h42c0 -93 -61 -155 -152 -155zM74 525h392v-525h-47l-1 116v11c-36 -86 -118 -137 -209 -137c-101 0 -169 59 -169 149c0 94 84 157 211 157c55 0 114 -7 167 -21v210h-344v40zM221 27
c92 0 197 76 197 212c-51 14 -109 21 -161 21c-100 0 -167 -48 -167 -120c0 -68 51 -113 131 -113z" />
    <glyph glyph-name="acircumflex.ss02" horiz-adv-x="552" 
d="M272 736l-107 -116h-49l129 145h53l128 -145h-48zM74 525h392v-525h-47l-1 116v11c-36 -86 -118 -137 -209 -137c-101 0 -169 59 -169 149c0 94 84 157 211 157c55 0 114 -7 167 -21v210h-344v40zM221 27c92 0 197 76 197 212c-51 14 -109 21 -161 21
c-100 0 -167 -48 -167 -120c0 -68 51 -113 131 -113z" />
    <glyph glyph-name="adieresis.ss02" horiz-adv-x="552" 
d="M178 675c-21 0 -37 16 -37 37c0 20 16 36 37 36c20 0 36 -16 36 -36c0 -21 -16 -37 -36 -37zM365 675c-20 0 -36 16 -36 37c0 20 16 36 36 36c21 0 36 -16 36 -36c0 -21 -15 -37 -36 -37zM74 525h392v-525h-47l-1 116v11c-36 -86 -118 -137 -209 -137
c-101 0 -169 59 -169 149c0 94 84 157 211 157c55 0 114 -7 167 -21v210h-344v40zM221 27c92 0 197 76 197 212c-51 14 -109 21 -161 21c-100 0 -167 -48 -167 -120c0 -68 51 -113 131 -113z" />
    <glyph glyph-name="agrave.ss02" horiz-adv-x="552" 
d="M303 620h-45l-146 145h63zM74 525h392v-525h-47l-1 116v11c-36 -86 -118 -137 -209 -137c-101 0 -169 59 -169 149c0 94 84 157 211 157c55 0 114 -7 167 -21v210h-344v40zM221 27c92 0 197 76 197 212c-51 14 -109 21 -161 21c-100 0 -167 -48 -167 -120
c0 -68 51 -113 131 -113z" />
    <glyph glyph-name="amacron.ss02" horiz-adv-x="552" 
d="M419 695v-40h-293v40h293zM74 525h392v-525h-47l-1 116v11c-36 -86 -118 -137 -209 -137c-101 0 -169 59 -169 149c0 94 84 157 211 157c55 0 114 -7 167 -21v210h-344v40zM221 27c92 0 197 76 197 212c-51 14 -109 21 -161 21c-100 0 -167 -48 -167 -120
c0 -68 51 -113 131 -113z" />
    <glyph glyph-name="aogonek.ss02" horiz-adv-x="552" 
d="M463 -172l6 -30c-22 -19 -47 -28 -76 -28c-48 0 -81 30 -81 75c0 51 39 105 108 155h-1l-1 116v11c-36 -86 -118 -137 -209 -137c-101 0 -169 59 -169 149c0 94 84 157 211 157c55 0 114 -7 167 -21v210h-344v40h392v-525c-77 -51 -113 -104 -113 -150
c0 -28 19 -48 48 -48c23 0 45 10 62 26zM221 27c92 0 197 76 197 212c-51 14 -109 21 -161 21c-100 0 -167 -48 -167 -120c0 -68 51 -113 131 -113z" />
    <glyph glyph-name="aring.ss02" horiz-adv-x="552" 
d="M272 584c-63 0 -106 41 -106 104s43 104 106 104s106 -41 106 -104s-43 -104 -106 -104zM272 765c-44 0 -72 -31 -72 -77s28 -76 72 -76s72 30 72 76s-28 77 -72 77zM74 525h392v-525h-47l-1 116v11c-36 -86 -118 -137 -209 -137c-101 0 -169 59 -169 149
c0 94 84 157 211 157c55 0 114 -7 167 -21v210h-344v40zM221 27c92 0 197 76 197 212c-51 14 -109 21 -161 21c-100 0 -167 -48 -167 -120c0 -68 51 -113 131 -113z" />
    <glyph glyph-name="atilde.ss02" horiz-adv-x="552" 
d="M190 708c-32 0 -59 -27 -59 -68h-33c0 65 40 108 93 108c70 0 103 -77 161 -77c32 0 59 26 59 67h33c0 -66 -40 -108 -93 -108c-69 0 -103 78 -161 78zM74 525h392v-525h-47l-1 116v11c-36 -86 -118 -137 -209 -137c-101 0 -169 59 -169 149c0 94 84 157 211 157
c55 0 114 -7 167 -21v210h-344v40zM221 27c92 0 197 76 197 212c-51 14 -109 21 -161 21c-100 0 -167 -48 -167 -120c0 -68 51 -113 131 -113z" />
    <glyph glyph-name="c.ss02" horiz-adv-x="479" 
d="M307 -10c-154 0 -256 109 -256 272c0 164 102 273 256 273c45 0 89 -16 123 -42v-48c-32 31 -75 48 -122 48c-124 0 -206 -92 -206 -231c0 -138 82 -230 206 -230c48 0 91 17 123 48v-47c-34 -27 -78 -43 -124 -43z" />
    <glyph glyph-name="cacute.ss02" horiz-adv-x="479" 
d="M267 620l128 145h63l-147 -145h-44zM307 -10c-154 0 -256 109 -256 272c0 164 102 273 256 273c45 0 89 -16 123 -42v-48c-32 31 -75 48 -122 48c-124 0 -206 -92 -206 -231c0 -138 82 -230 206 -230c48 0 91 17 123 48v-47c-34 -27 -78 -43 -124 -43z" />
    <glyph glyph-name="ccaron.ss02" horiz-adv-x="479" 
d="M324 620h-53l-129 145h49l107 -116l106 116h48zM102 262c0 -138 82 -230 206 -230c48 0 91 17 123 48v-47c-34 -27 -78 -43 -124 -43c-154 0 -256 109 -256 272c0 164 102 273 256 273c45 0 89 -16 123 -42v-48c-32 31 -75 48 -122 48c-124 0 -206 -92 -206 -231z" />
    <glyph glyph-name="ccedilla.ss02" horiz-adv-x="479" 
d="M431 33c-33 -26 -74 -42 -118 -43l-40 -61c8 1 17 2 25 2c64 0 105 -32 105 -78c0 -50 -45 -83 -116 -83c-40 0 -74 11 -93 30l12 25c17 -18 44 -26 77 -26c49 0 80 22 80 54c0 31 -31 51 -78 51c-17 0 -34 -3 -49 -9l-9 17l51 79c-138 13 -227 119 -227 271
c0 164 102 273 256 273c45 0 89 -16 123 -42v-48c-32 31 -75 48 -122 48c-124 0 -206 -92 -206 -231c0 -138 82 -230 206 -230c48 0 91 17 123 48v-47z" />
    <glyph glyph-name="cdotaccent.ss02" horiz-adv-x="479" 
d="M298 675c-21 0 -37 16 -37 37c0 20 16 36 37 36c20 0 36 -16 36 -36c0 -21 -16 -37 -36 -37zM307 -10c-154 0 -256 109 -256 272c0 164 102 273 256 273c45 0 89 -16 123 -42v-48c-32 31 -75 48 -122 48c-124 0 -206 -92 -206 -231c0 -138 82 -230 206 -230
c48 0 91 17 123 48v-47c-34 -27 -78 -43 -124 -43z" />
    <glyph glyph-name="f.ss02" horiz-adv-x="364" 
d="M360 739h-199v-214h194v-41h-194v-484h-48v484h-93v41h93v255h247v-41z" />
    <glyph glyph-name="g.ss02" horiz-adv-x="660" 
d="M528 525h47v-745h-503v41h455v311c-34 -85 -107 -142 -223 -142c-149 0 -252 109 -252 274c0 162 103 271 252 271c116 0 189 -57 223 -142v8zM315 32c127 0 212 92 212 230c0 139 -85 231 -212 231c-128 0 -212 -92 -212 -230c0 -139 84 -231 212 -231z" />
    <glyph glyph-name="gbreve.ss02" horiz-adv-x="660" 
d="M326 610c-92 0 -153 62 -153 155h42c0 -73 44 -123 111 -123c66 0 110 50 110 123h42c0 -93 -61 -155 -152 -155zM528 525h47v-745h-503v41h455v311c-34 -85 -107 -142 -223 -142c-149 0 -252 109 -252 274c0 162 103 271 252 271c116 0 189 -57 223 -142v8zM315 32
c127 0 212 92 212 230c0 139 -85 231 -212 231c-128 0 -212 -92 -212 -230c0 -139 84 -231 212 -231z" />
    <glyph glyph-name="gcommaaccent.ss02" horiz-adv-x="660" 
d="M399 780l-63 -187h-47l71 187h39zM528 525h47v-745h-503v41h455v311c-34 -85 -107 -142 -223 -142c-149 0 -252 109 -252 274c0 162 103 271 252 271c116 0 189 -57 223 -142v8zM315 32c127 0 212 92 212 230c0 139 -85 231 -212 231c-128 0 -212 -92 -212 -230
c0 -139 84 -231 212 -231z" />
    <glyph glyph-name="gdotaccent.ss02" horiz-adv-x="660" 
d="M326 675c-21 0 -37 16 -37 37c0 20 16 36 37 36c20 0 36 -16 36 -36c0 -21 -16 -37 -36 -37zM528 525h47v-745h-503v41h455v311c-34 -85 -107 -142 -223 -142c-149 0 -252 109 -252 274c0 162 103 271 252 271c116 0 189 -57 223 -142v8zM315 32c127 0 212 92 212 230
c0 139 -85 231 -212 231c-128 0 -212 -92 -212 -230c0 -139 84 -231 212 -231z" />
    <glyph glyph-name="j.ss02" horiz-adv-x="224" 
d="M111 675c-20 0 -36 16 -36 37c0 20 16 36 36 36c21 0 36 -16 36 -36c0 -21 -15 -37 -36 -37zM88 -220v745h48v-745h-48z" />
    <glyph glyph-name="l.ss02" horiz-adv-x="259" 
d="M90 0v780h48v-739h115v-41h-163z" />
    <glyph glyph-name="lacute.ss02" horiz-adv-x="259" 
d="M83 875l128 145h63l-147 -145h-44zM90 0v780h48v-739h115v-41h-163z" />
    <glyph glyph-name="lcaron.ss02" horiz-adv-x="263" 
d="M90 0v780h48v-739h115v-41h-163zM186 593l63 187h46l-71 -187h-38z" />
    <glyph glyph-name="lcommaaccent.ss02" horiz-adv-x="259" 
d="M90 0v780h48v-739h115v-41h-163zM93 -220l56 168h47l-65 -168h-38z" />
    <glyph glyph-name="lslash.ss02" horiz-adv-x="259" 
d="M138 41h115v-41h-163v370l-100 -70v43l100 70v367h48v-339l97 67v-43l-97 -67v-357z" />
    <glyph glyph-name="t.ss02" horiz-adv-x="331" 
d="M337 525v-41h-138v-484h-48v484h-139v41h139v154h48v-154h138z" />
    <glyph glyph-name="tbar.ss02" horiz-adv-x="335" 
d="M337 484h-138v-205h121v-37h-121v-242h-48v242h-120v37h120v205h-139v41h139v154h48v-154h138v-41z" />
    <glyph glyph-name="tcaron.ss02" horiz-adv-x="331" 
d="M395 780l-71 -187h-39l63 187h47zM199 679v-154h138v-41h-138v-484h-48v484h-139v41h139v154h48z" />
    <glyph glyph-name="uni0163.ss02" horiz-adv-x="331" 
d="M199 0h-7l-46 -71c9 1 18 2 27 2c64 0 105 -32 105 -78c0 -50 -45 -83 -116 -83c-40 0 -74 11 -93 30l12 25c17 -18 44 -26 76 -26c50 0 81 22 81 54c0 31 -31 51 -78 51c-18 0 -34 -3 -49 -9l-9 17l56 88h-7v484h-139v41h139v154h48v-154h138v-41h-138v-484z" />
    <glyph glyph-name="uni021B.ss02" horiz-adv-x="331" 
d="M199 525h138v-41h-138v-484h-48v484h-139v41h139v154h48v-154zM104 -220l56 168h47l-65 -168h-38z" />
    <glyph glyph-name="u.ss02" horiz-adv-x="611" 
d="M306 -10c-136 0 -227 82 -227 207v328h48v-320c0 -104 71 -173 179 -173c107 0 178 69 178 173v320h48v-328c0 -125 -91 -207 -226 -207z" />
    <glyph glyph-name="uacute.ss02" horiz-adv-x="611" 
d="M275 620l128 145h63l-147 -145h-44zM306 -10c-136 0 -227 82 -227 207v328h48v-320c0 -104 71 -173 179 -173c107 0 178 69 178 173v320h48v-328c0 -125 -91 -207 -226 -207z" />
    <glyph glyph-name="ucircumflex.ss02" horiz-adv-x="611" 
d="M306 736l-107 -116h-49l129 145h53l128 -145h-48zM484 525h48v-328c0 -125 -91 -207 -226 -207c-136 0 -227 82 -227 207v328h48v-320c0 -104 71 -173 179 -173c107 0 178 69 178 173v320z" />
    <glyph glyph-name="udieresis.ss02" horiz-adv-x="611" 
d="M212 675c-21 0 -37 16 -37 37c0 20 16 36 37 36c20 0 36 -16 36 -36c0 -21 -16 -37 -36 -37zM399 675c-20 0 -36 16 -36 37c0 20 16 36 36 36c21 0 36 -16 36 -36c0 -21 -15 -37 -36 -37zM306 -10c-136 0 -227 82 -227 207v328h48v-320c0 -104 71 -173 179 -173
c107 0 178 69 178 173v320h48v-328c0 -125 -91 -207 -226 -207z" />
    <glyph glyph-name="ugrave.ss02" horiz-adv-x="611" 
d="M292 620l-146 145h63l128 -145h-45zM306 -10c-136 0 -227 82 -227 207v328h48v-320c0 -104 71 -173 179 -173c107 0 178 69 178 173v320h48v-328c0 -125 -91 -207 -226 -207z" />
    <glyph glyph-name="uhungarumlaut.ss02" horiz-adv-x="611" 
d="M212 620l106 145h62l-124 -145h-44zM343 620l106 145h62l-124 -145h-44zM306 -10c-136 0 -227 82 -227 207v328h48v-320c0 -104 71 -173 179 -173c107 0 178 69 178 173v320h48v-328c0 -125 -91 -207 -226 -207z" />
    <glyph glyph-name="umacron.ss02" horiz-adv-x="611" 
d="M160 655v40h293v-40h-293zM306 -10c-136 0 -227 82 -227 207v328h48v-320c0 -104 71 -173 179 -173c107 0 178 69 178 173v320h48v-328c0 -125 -91 -207 -226 -207z" />
    <glyph glyph-name="uogonek.ss02" horiz-adv-x="611" 
d="M484 525h48v-328c0 -100 -58 -173 -151 -197c-76 -51 -112 -104 -112 -150c0 -28 19 -48 48 -48c23 0 45 10 62 26l6 -30c-22 -19 -47 -28 -76 -28c-48 0 -81 30 -81 75c0 47 34 98 95 145h-17c-136 0 -227 82 -227 207v328h48v-320c0 -104 71 -173 179 -173
c107 0 178 69 178 173v320z" />
    <glyph glyph-name="uring.ss02" horiz-adv-x="611" 
d="M306 584c-63 0 -106 41 -106 104s43 104 106 104s106 -41 106 -104s-43 -104 -106 -104zM306 612c44 0 72 30 72 76s-28 77 -72 77s-72 -31 -72 -77s28 -76 72 -76zM306 -10c-136 0 -227 82 -227 207v328h48v-320c0 -104 71 -173 179 -173c107 0 178 69 178 173v320h48
v-328c0 -125 -91 -207 -226 -207z" />
    <glyph glyph-name="y.ss02" horiz-adv-x="618" 
d="M484 525h48v-745h-447v41h399v278c-30 -67 -94 -109 -192 -109c-127 0 -212 82 -212 203v332h48v-320c0 -104 71 -173 178 -173s178 69 178 173v320z" />
    <glyph glyph-name="yacute.ss02" horiz-adv-x="618" 
d="M466 765l-147 -145h-44l128 145h63zM484 525h48v-745h-447v41h399v278c-30 -67 -94 -109 -192 -109c-127 0 -212 82 -212 203v332h48v-320c0 -104 71 -173 178 -173s178 69 178 173v320z" />
    <glyph glyph-name="ycircumflex.ss02" horiz-adv-x="618" 
d="M306 736l-107 -116h-49l129 145h53l128 -145h-48zM484 525h48v-745h-447v41h399v278c-30 -67 -94 -109 -192 -109c-127 0 -212 82 -212 203v332h48v-320c0 -104 71 -173 178 -173s178 69 178 173v320z" />
    <glyph glyph-name="ydieresis.ss02" horiz-adv-x="618" 
d="M212 675c-21 0 -37 16 -37 37c0 20 16 36 37 36c20 0 36 -16 36 -36c0 -21 -16 -37 -36 -37zM399 675c-20 0 -36 16 -36 37c0 20 16 36 36 36c21 0 36 -16 36 -36c0 -21 -15 -37 -36 -37zM484 525h48v-745h-447v41h399v278c-30 -67 -94 -109 -192 -109
c-127 0 -212 82 -212 203v332h48v-320c0 -104 71 -173 178 -173s178 69 178 173v320z" />
    <glyph glyph-name="ygrave.ss02" horiz-adv-x="618" 
d="M337 620h-45l-146 145h63zM484 525h48v-745h-447v41h399v278c-30 -67 -94 -109 -192 -109c-127 0 -212 82 -212 203v332h48v-320c0 -104 71 -173 178 -173s178 69 178 173v320z" />
    <glyph glyph-name="z.ss02" horiz-adv-x="485" 
d="M34 0l333 484h-329v41h408l-333 -484h338v-41h-417z" />
    <glyph glyph-name="zacute.ss02" horiz-adv-x="485" 
d="M212 620l128 145h63l-147 -145h-44zM34 0l333 484h-329v41h408l-333 -484h338v-41h-417z" />
    <glyph glyph-name="zcaron.ss02" horiz-adv-x="485" 
d="M269 620h-53l-129 145h49l107 -116l106 116h48zM113 41h338v-41h-417l333 484h-329v41h408z" />
    <glyph glyph-name="zdotaccent.ss02" horiz-adv-x="485" 
d="M243 675c-21 0 -37 16 -37 37c0 20 16 36 37 36c20 0 36 -16 36 -36c0 -21 -16 -37 -36 -37zM34 0l333 484h-329v41h408l-333 -484h338v-41h-417z" />
    <glyph glyph-name="fi.ss01" horiz-adv-x="562" 
d="M86 650c0 84 59 140 146 140c41 0 75 -6 103 -20l-4 -40c-25 13 -54 18 -88 18c-65 0 -109 -42 -109 -106v-117h194v-41h-194v-484h-48v650zM449 748c21 0 37 -16 37 -36c0 -21 -16 -37 -37 -37c-20 0 -36 16 -36 37c0 20 16 36 36 36zM426 0v525h48v-525h-48z" />
    <glyph glyph-name="fl.ss01" horiz-adv-x="566" 
d="M86 650c0 84 59 140 146 140c41 0 75 -6 103 -20l-4 -40c-25 13 -54 18 -88 18c-65 0 -109 -42 -109 -106v-117h194v-41h-194v-484h-48v650zM428 780h48v-780h-48v780z" />
    <glyph glyph-name="fi.ss02" horiz-adv-x="588" 
d="M113 525v255h247v-41h-199v-214h194v-41h-194v-484h-48v484h-93v41h93zM475 748c21 0 37 -16 37 -36c0 -21 -16 -37 -37 -37c-20 0 -36 16 -36 37c0 20 16 36 36 36zM452 0v525h48v-525h-48z" />
    <glyph glyph-name="fl.ss02" horiz-adv-x="623" 
d="M113 525v255h247v-41h-199v-214h194v-41h-194v-484h-48v484h-93v41h93zM502 41h115v-41h-163v780h48v-739z" />
    <glyph glyph-name="ordfeminine" unicode="&#xaa;" horiz-adv-x="393" 
d="M191 750c76 0 126 -49 126 -123v-199h-36v74c-22 -51 -69 -80 -122 -80c-62 0 -103 36 -103 91c0 57 51 95 128 95c31 0 66 -4 97 -12v25c0 61 -39 99 -98 99c-40 0 -67 -13 -90 -37l-17 23c28 28 65 44 115 44zM169 449c53 0 112 44 112 121c-29 7 -63 11 -92 11
c-57 0 -95 -26 -95 -68c0 -39 29 -64 75 -64z" />
    <glyph glyph-name="ordmasculine" unicode="&#xba;" horiz-adv-x="427" 
d="M214 422c-96 0 -160 65 -160 164c0 98 64 164 160 164c95 0 160 -66 160 -164c0 -99 -65 -164 -160 -164zM214 453c72 0 121 53 121 133c0 79 -49 132 -121 132c-73 0 -122 -53 -122 -132c0 -80 49 -133 122 -133z" />
    <glyph glyph-name="uni0394" unicode="&#x394;" horiz-adv-x="771" 
d="M410 740l328 -740h-705l328 740h49zM107 43h557l-278 636z" />
    <glyph glyph-name="uni03A9" unicode="&#x3a9;" horiz-adv-x="769" 
d="M503 150v-107h205v-43h-250v184c124 27 201 123 201 257c0 160 -110 266 -274 266s-274 -106 -274 -266c0 -134 78 -229 201 -257v-184h-249v43h205v107c-130 41 -211 147 -211 291c0 185 131 309 328 309c196 0 327 -124 327 -309c0 -144 -79 -251 -209 -291z" />
    <glyph glyph-name="uni03BC" unicode="&#x3bc;" horiz-adv-x="625" 
d="M491 525h48v-525h-47l-1 97c-28 -66 -87 -107 -179 -107c-91 0 -149 40 -178 106v-316h-48v745h48v-320c0 -104 71 -173 178 -173c108 0 179 69 179 173v320z" />
    <glyph glyph-name="pi" unicode="&#x3c0;" horiz-adv-x="679" 
d="M634 484h-134v-380c0 -43 25 -72 62 -72c25 0 49 6 72 19v-40c-23 -15 -51 -21 -86 -21c-57 0 -96 42 -96 105v389h-245v-484h-48v484h-134v41h609v-41z" />
    <glyph glyph-name="zero" unicode="0" horiz-adv-x="614" 
d="M307 -10c-152 0 -254 152 -254 380s102 380 254 380c153 0 254 -152 254 -380s-101 -380 -254 -380zM307 33c121 0 200 135 200 337s-79 337 -200 337s-200 -135 -200 -337s79 -337 200 -337z" />
    <glyph glyph-name="one" unicode="1" horiz-adv-x="400" 
d="M243 0v671l-200 -146l-28 38l240 177h39v-740h-51z" />
    <glyph glyph-name="two" unicode="2" horiz-adv-x="553" 
d="M48 0v34l222 239c66 71 168 167 168 282c0 94 -66 152 -164 152c-101 0 -167 -64 -167 -160l-53 4c0 119 88 199 219 199c130 0 217 -74 217 -190c0 -127 -101 -229 -187 -320l-185 -197h383v-43h-453z" />
    <glyph glyph-name="three" unicode="3" horiz-adv-x="557" 
d="M270 418c142 0 236 -84 236 -209c0 -132 -99 -219 -251 -219c-91 0 -168 29 -210 87l21 38c40 -55 103 -82 183 -82c122 0 202 70 202 176c0 101 -79 168 -198 168c-43 0 -84 -8 -120 -26l-13 27l294 319h-344v43h414v-33l-275 -294c19 3 40 5 61 5z" />
    <glyph glyph-name="four" unicode="4" horiz-adv-x="597" 
d="M398 0v167h-375v40l383 533h44v-530h115v-43h-115v-167h-52zM81 209h319v445z" />
    <glyph glyph-name="five" unicode="5" horiz-adv-x="561" 
d="M251 -10c-90 0 -162 23 -210 70l16 40c46 -46 115 -67 190 -67c125 0 209 74 209 183c0 107 -74 178 -184 178c-49 0 -100 -9 -149 -26l-36 5l51 367h339v-43h-293l-42 -279c45 13 92 20 139 20c137 0 229 -88 229 -219c0 -137 -105 -229 -259 -229z" />
    <glyph glyph-name="six" unicode="6" horiz-adv-x="552" 
d="M289 445c132 0 224 -90 224 -226c0 -138 -93 -229 -233 -229s-233 91 -233 227c0 61 17 112 49 157l244 366h59l-217 -318c30 15 66 23 107 23zM280 33c107 0 179 74 179 185c0 112 -72 186 -179 186s-179 -74 -179 -186c0 -111 72 -185 179 -185z" />
    <glyph glyph-name="seven" unicode="7" horiz-adv-x="497" 
d="M21 740h457l-270 -740h-56l258 697h-389v43z" />
    <glyph glyph-name="eight" unicode="8" horiz-adv-x="587" 
d="M382 384c89 -27 145 -96 145 -190c0 -122 -94 -204 -233 -204c-140 0 -234 81 -234 203c0 94 56 164 146 191c-78 26 -126 90 -126 174c0 115 86 192 214 192c127 0 213 -76 213 -191c0 -84 -48 -148 -125 -175zM134 555c0 -90 64 -150 159 -150c96 0 159 60 159 150
c0 91 -63 152 -159 152c-95 0 -159 -61 -159 -152zM293 33c108 0 179 65 179 164c0 98 -71 164 -179 164c-107 0 -179 -66 -179 -164c0 -99 72 -164 179 -164z" />
    <glyph glyph-name="nine" unicode="9" horiz-adv-x="552" 
d="M272 750c140 0 233 -91 233 -227c0 -61 -17 -112 -49 -157l-244 -366h-59l217 318c-30 -15 -66 -23 -107 -23c-132 0 -224 90 -224 226c0 138 93 229 233 229zM93 522c0 -112 72 -186 179 -186s179 74 179 186c0 111 -72 185 -179 185s-179 -74 -179 -185z" />
    <glyph glyph-name="zero.lf" horiz-adv-x="681" 
d="M307 -10c-152 0 -254 152 -254 380s102 380 254 380c153 0 254 -152 254 -380s-101 -380 -254 -380zM307 33c121 0 200 135 200 337s-79 337 -200 337s-200 -135 -200 -337s79 -337 200 -337z" />
    <glyph glyph-name="one.lf" horiz-adv-x="400" 
d="M243 0v671l-200 -146l-28 38l240 177h39v-740h-51z" />
    <glyph glyph-name="two.lf" horiz-adv-x="553" 
d="M48 0v34l222 239c66 71 168 167 168 282c0 94 -66 152 -164 152c-101 0 -167 -64 -167 -160l-53 4c0 119 88 199 219 199c130 0 217 -74 217 -190c0 -127 -101 -229 -187 -320l-185 -197h383v-43h-453z" />
    <glyph glyph-name="three.lf" horiz-adv-x="557" 
d="M270 418c142 0 236 -84 236 -209c0 -132 -99 -219 -251 -219c-91 0 -168 29 -210 87l21 38c40 -55 103 -82 183 -82c122 0 202 70 202 176c0 101 -79 168 -198 168c-43 0 -84 -8 -120 -26l-13 27l294 319h-344v43h414v-33l-275 -294c19 3 40 5 61 5z" />
    <glyph glyph-name="four.lf" horiz-adv-x="597" 
d="M398 0v167h-375v40l383 533h44v-530h115v-43h-115v-167h-52zM81 209h319v445z" />
    <glyph glyph-name="five.lf" horiz-adv-x="561" 
d="M251 -10c-90 0 -162 23 -210 70l16 40c46 -46 115 -67 190 -67c125 0 209 74 209 183c0 107 -74 178 -184 178c-49 0 -100 -9 -149 -26l-36 5l51 367h339v-43h-293l-42 -279c45 13 92 20 139 20c137 0 229 -88 229 -219c0 -137 -105 -229 -259 -229z" />
    <glyph glyph-name="six.lf" horiz-adv-x="552" 
d="M289 445c132 0 224 -90 224 -226c0 -138 -93 -229 -233 -229s-233 91 -233 227c0 61 17 112 49 157l244 366h59l-217 -318c30 15 66 23 107 23zM280 33c107 0 179 74 179 185c0 112 -72 186 -179 186s-179 -74 -179 -186c0 -111 72 -185 179 -185z" />
    <glyph glyph-name="seven.lf" horiz-adv-x="497" 
d="M21 740h457l-270 -740h-56l258 697h-389v43z" />
    <glyph glyph-name="eight.lf" horiz-adv-x="587" 
d="M382 384c89 -27 145 -96 145 -190c0 -122 -94 -204 -233 -204c-140 0 -234 81 -234 203c0 94 56 164 146 191c-78 26 -126 90 -126 174c0 115 86 192 214 192c127 0 213 -76 213 -191c0 -84 -48 -148 -125 -175zM134 555c0 -90 64 -150 159 -150c96 0 159 60 159 150
c0 91 -63 152 -159 152c-95 0 -159 -61 -159 -152zM293 33c108 0 179 65 179 164c0 98 -71 164 -179 164c-107 0 -179 -66 -179 -164c0 -99 72 -164 179 -164z" />
    <glyph glyph-name="nine.lf" horiz-adv-x="552" 
d="M272 750c140 0 233 -91 233 -227c0 -61 -17 -112 -49 -157l-244 -366h-59l217 318c-30 -15 -66 -23 -107 -23c-132 0 -224 90 -224 226c0 138 93 229 233 229zM93 522c0 -112 72 -186 179 -186s179 74 179 186c0 111 -72 185 -179 185s-179 -74 -179 -185z" />
    <glyph glyph-name="zero.osf" horiz-adv-x="650" 
d="M326 -10c-164 0 -273 129 -273 322c0 194 109 323 273 323c162 0 271 -129 271 -323c0 -193 -109 -322 -271 -322zM326 32c131 0 219 112 219 280c0 169 -88 281 -219 281c-133 0 -221 -112 -221 -281c0 -168 88 -280 221 -280z" />
    <glyph glyph-name="one.osf" horiz-adv-x="350" 
d="M198 0v559l-149 -108l-26 36l187 138h36v-625h-48z" />
    <glyph glyph-name="two.osf" horiz-adv-x="566" 
d="M56 0v34l242 188c59 45 151 118 151 218c0 92 -66 153 -167 153c-102 0 -170 -65 -170 -161l-49 4c0 119 87 199 219 199c130 0 217 -76 217 -191c0 -121 -102 -200 -179 -259l-189 -144h378v-41h-453z" />
    <glyph glyph-name="three.osf" horiz-adv-x="569" 
d="M279 310c139 0 232 -82 232 -205c0 -129 -98 -215 -248 -215c-91 0 -167 29 -210 87l21 38c40 -57 103 -83 184 -83c122 0 202 69 202 173c0 100 -80 166 -199 166c-42 0 -84 -9 -119 -27l-13 27l297 313h-347v41h414v-34l-275 -286c19 3 40 5 61 5z" />
    <glyph glyph-name="four.osf" horiz-adv-x="593" 
d="M402 -110v110h-378v37l383 588h43v-584h116v-41h-116v-110h-48zM80 40h324v496z" />
    <glyph glyph-name="five.osf" horiz-adv-x="565" 
d="M251 -110c-91 0 -162 23 -210 70l15 38c46 -46 116 -66 190 -66c126 0 210 73 210 180c0 105 -74 175 -184 175c-49 0 -101 -10 -150 -27l-35 5l51 360h339v-41h-296l-42 -276c45 14 94 21 142 21c134 0 226 -86 226 -214c0 -135 -105 -225 -256 -225z" />
    <glyph glyph-name="six.osf" horiz-adv-x="547" 
d="M286 445c133 0 221 -90 221 -226c0 -138 -92 -229 -230 -229c-137 0 -229 91 -229 227c0 59 14 109 47 157l246 366h56l-217 -319c31 16 67 24 106 24zM277 33c108 0 179 74 179 185c0 112 -71 186 -179 186c-107 0 -179 -74 -179 -186c0 -111 72 -185 179 -185z" />
    <glyph glyph-name="seven.osf" horiz-adv-x="530" 
d="M40 625h457l-265 -729l-46 13l244 675h-390v41z" />
    <glyph glyph-name="eight.osf" horiz-adv-x="580" 
d="M377 384c88 -27 143 -96 143 -190c0 -122 -92 -204 -230 -204s-230 81 -230 203c0 94 55 164 143 191c-76 26 -123 90 -123 174c0 115 84 192 210 192s210 -76 210 -191c0 -84 -47 -148 -123 -175zM131 555c0 -90 63 -150 159 -150c95 0 159 60 159 150
c0 91 -64 152 -159 152c-96 0 -159 -61 -159 -152zM290 33c107 0 179 65 179 164c0 98 -72 164 -179 164c-108 0 -179 -66 -179 -164c0 -99 71 -164 179 -164z" />
    <glyph glyph-name="nine.osf" horiz-adv-x="549" 
d="M269 635c138 0 230 -91 230 -228c0 -58 -14 -108 -48 -156l-238 -355l-47 13l200 294c-31 -16 -66 -24 -105 -24c-133 0 -222 91 -222 227c0 138 92 229 230 229zM90 406c0 -111 72 -186 179 -186s179 75 179 186c0 112 -72 185 -179 185s-179 -73 -179 -185z" />
    <glyph glyph-name="one.ss02" horiz-adv-x="319" 
d="M162 0v697h-143v43h194v-740h-51z" />
    <glyph glyph-name="one.lf.ss02" horiz-adv-x="319" 
d="M162 0v697h-143v43h194v-740h-51z" />
    <glyph glyph-name="one.osf.ss02" horiz-adv-x="326" 
d="M174 0v584h-134v41h182v-625h-48z" />
    <glyph glyph-name="one.tf.ss02" 
d="M377 43h152v-43h-432v43h228v654h-173v43h225v-697z" />
    <glyph glyph-name="one.tosf.ss02" 
d="M377 41h156v-41h-432v41h228v543h-164v41h212v-584z" />
    <glyph glyph-name="zero.tf" 
d="M308 -10c-138 0 -231 152 -231 380s93 380 231 380s230 -152 230 -380s-92 -380 -230 -380zM308 33c106 0 176 135 176 337s-70 337 -176 337c-107 0 -177 -135 -177 -337s70 -337 177 -337z" />
    <glyph glyph-name="one.tf" 
d="M388 43h152v-43h-431v43h228v628l-200 -146l-28 38l240 177h39v-697z" />
    <glyph glyph-name="two.tf" 
d="M79 0v34l222 239c66 71 167 167 167 282c0 94 -65 152 -163 152c-101 0 -167 -64 -167 -160l-53 4c0 119 87 199 219 199c130 0 217 -74 217 -190c0 -127 -102 -229 -187 -320l-185 -197h383v-43h-453z" />
    <glyph glyph-name="three.tf" 
d="M299 418c142 0 236 -84 236 -209c0 -132 -99 -219 -251 -219c-92 0 -168 29 -210 87l21 38c40 -55 103 -82 183 -82c122 0 202 70 202 176c0 101 -79 168 -199 168c-42 0 -83 -8 -119 -26l-13 27l294 319h-344v43h414v-33l-275 -294c19 3 40 5 61 5z" />
    <glyph glyph-name="four.tf" 
d="M400 0v167h-362v40l369 533h44v-531h116v-42h-116v-167h-51zM95 208h307v446z" />
    <glyph glyph-name="five.tf" 
d="M278 -10c-90 0 -162 23 -210 70l16 40c46 -46 115 -67 190 -67c126 0 209 74 209 183c0 107 -74 178 -184 178c-49 0 -100 -9 -149 -26l-36 5l51 367h339v-43h-293l-42 -279c45 13 92 20 139 20c137 0 229 -88 229 -219c0 -137 -105 -229 -259 -229z" />
    <glyph glyph-name="six.tf" 
d="M320 445c132 0 224 -90 224 -226c0 -138 -93 -229 -233 -229s-233 91 -233 227c0 61 18 112 49 157l244 366h59l-217 -318c30 15 66 23 107 23zM311 33c108 0 179 74 179 185c0 112 -71 186 -179 186c-107 0 -179 -74 -179 -186c0 -111 72 -185 179 -185z" />
    <glyph glyph-name="seven.tf" 
d="M80 740h457l-270 -740h-56l258 697h-389v43z" />
    <glyph glyph-name="eight.tf" 
d="M395 384c90 -27 145 -96 145 -190c0 -122 -93 -204 -233 -204s-233 81 -233 203c0 94 55 164 145 191c-78 26 -125 90 -125 174c0 115 85 192 213 192s213 -76 213 -191c0 -84 -47 -148 -125 -175zM148 555c0 -90 64 -150 159 -150s159 60 159 150c0 91 -64 152 -159 152
s-159 -61 -159 -152zM307 33c107 0 179 65 179 164c0 98 -72 164 -179 164s-179 -66 -179 -164c0 -99 72 -164 179 -164z" />
    <glyph glyph-name="nine.tf" 
d="M303 750c140 0 233 -91 233 -227c0 -61 -17 -112 -49 -157l-244 -366h-59l217 318c-30 -15 -66 -23 -107 -23c-132 0 -224 90 -224 226c0 138 93 229 233 229zM124 522c0 -112 72 -186 179 -186s179 74 179 186c0 111 -72 185 -179 185s-179 -74 -179 -185z" />
    <glyph glyph-name="zero.tosf" 
d="M308 -10c-138 0 -229 129 -229 322c0 194 91 323 229 323c137 0 228 -129 228 -323c0 -193 -91 -322 -228 -322zM308 32c106 0 176 112 176 280c0 169 -70 281 -176 281c-107 0 -177 -112 -177 -281c0 -168 70 -280 177 -280z" />
    <glyph glyph-name="one.tosf" 
d="M361 41h174v-41h-432v41h210v518l-150 -108l-25 36l186 138h37v-584z" />
    <glyph glyph-name="two.tosf" 
d="M80 0v34l242 188c59 45 152 118 152 218c0 92 -67 153 -167 153c-103 0 -171 -65 -171 -161l-49 4c0 119 87 199 219 199c130 0 217 -76 217 -191c0 -121 -101 -200 -179 -259l-188 -144h377v-41h-453z" />
    <glyph glyph-name="three.tosf" 
d="M302 310c139 0 231 -82 231 -205c0 -129 -97 -215 -247 -215c-92 0 -168 29 -210 87l20 38c41 -57 104 -83 185 -83c122 0 202 69 202 173c0 100 -80 166 -200 166c-42 0 -83 -9 -118 -27l-14 27l298 313h-347v41h414v-34l-275 -286c19 3 40 5 61 5z" />
    <glyph glyph-name="four.tosf" 
d="M407 -110v110h-366v37l371 588h43v-584h115v-41h-115v-110h-48zM95 40h313l1 496z" />
    <glyph glyph-name="five.tosf" 
d="M276 -110c-90 0 -162 23 -210 70l15 38c46 -46 116 -66 190 -66c126 0 210 73 210 180c0 105 -74 175 -184 175c-49 0 -100 -10 -150 -27l-35 5l51 360h339v-41h-296l-42 -276c45 14 94 21 142 21c134 0 226 -86 226 -214c0 -135 -105 -225 -256 -225z" />
    <glyph glyph-name="six.tosf" 
d="M320 445c133 0 221 -90 221 -226c0 -138 -91 -229 -229 -229s-230 91 -230 227c0 59 14 109 48 157l246 366h56l-218 -319c31 16 67 24 106 24zM312 33c107 0 179 74 179 185c0 112 -72 186 -179 186c-108 0 -179 -74 -179 -186c0 -111 71 -185 179 -185z" />
    <glyph glyph-name="seven.tosf" 
d="M83 625h457l-265 -729l-46 13l244 675h-390v41z" />
    <glyph glyph-name="eight.tosf" 
d="M394 384c88 -27 143 -96 143 -190c0 -122 -92 -204 -230 -204s-230 81 -230 203c0 94 55 164 143 191c-76 26 -123 90 -123 174c0 115 84 192 210 192s210 -76 210 -191c0 -84 -47 -148 -123 -175zM148 555c0 -90 64 -150 159 -150s159 60 159 150c0 91 -64 152 -159 152
s-159 -61 -159 -152zM307 33c107 0 179 65 179 164c0 98 -72 164 -179 164s-179 -66 -179 -164c0 -99 72 -164 179 -164z" />
    <glyph glyph-name="nine.tosf" 
d="M303 635c137 0 229 -91 229 -228c0 -58 -14 -108 -48 -156l-238 -355l-46 13l201 295c-32 -16 -67 -25 -107 -25c-133 0 -221 91 -221 227c0 138 92 229 230 229zM123 406c0 -111 72 -186 179 -186c108 0 179 75 179 186c0 112 -71 185 -179 185
c-107 0 -179 -73 -179 -185z" />
    <glyph glyph-name="uni2080" unicode="&#x2080;" horiz-adv-x="381" 
d="M191 -106c-93 0 -155 91 -155 228s62 228 155 228s154 -91 154 -228s-61 -228 -154 -228zM191 -73c70 0 116 78 116 195s-46 195 -116 195c-69 0 -115 -78 -115 -195s46 -195 115 -195z" />
    <glyph glyph-name="uni2081" unicode="&#x2081;" horiz-adv-x="254" 
d="M147 -100v393l-115 -84l-20 28l144 107h30v-444h-39z" />
    <glyph glyph-name="uni2082" unicode="&#x2082;" horiz-adv-x="348" 
d="M34 -100v26l134 143c37 40 97 97 97 163c0 53 -37 85 -92 85c-58 0 -95 -36 -95 -91l-39 3c0 73 53 121 133 121c79 0 132 -45 132 -115c0 -74 -58 -134 -111 -190l-107 -113l224 1v-33h-276z" />
    <glyph glyph-name="uni2083" unicode="&#x2083;" horiz-adv-x="347" 
d="M169 153c85 0 142 -50 142 -126c0 -80 -60 -133 -153 -133c-55 0 -102 18 -128 51l16 29c24 -32 60 -47 107 -47c71 0 117 39 117 100c0 58 -46 96 -114 96c-25 0 -49 -5 -69 -15l-12 20l168 183h-196v33h250v-24l-158 -169c10 2 20 2 30 2z" />
    <glyph glyph-name="uni2084" unicode="&#x2084;" horiz-adv-x="373" 
d="M241 -100v98h-222v29l228 317h33v-313h68v-33h-68v-98h-39zM60 29h182l1 254z" />
    <glyph glyph-name="uni2085" unicode="&#x2085;" horiz-adv-x="350" 
d="M156 -106c-55 0 -98 14 -127 42l11 29c28 -27 68 -38 112 -38c74 0 122 41 122 105c0 60 -41 101 -105 101c-29 0 -58 -6 -86 -17l-26 4l30 224h207v-33h-173l-23 -157c25 7 51 11 78 11c83 0 139 -53 139 -132c0 -83 -65 -139 -159 -139z" />
    <glyph glyph-name="uni2086" unicode="&#x2086;" horiz-adv-x="346" 
d="M182 168c78 0 135 -55 135 -137s-57 -137 -142 -137c-86 0 -143 54 -143 137c0 39 12 69 33 99l143 214h44l-129 -186c17 6 36 10 59 10zM175 -73c61 0 102 41 102 104c0 64 -41 107 -102 107s-102 -43 -102 -107c0 -63 41 -104 102 -104z" />
    <glyph glyph-name="uni2087" unicode="&#x2087;" horiz-adv-x="310" 
d="M17 344h277l-159 -444h-41l149 411h-226v33z" />
    <glyph glyph-name="uni2088" unicode="&#x2088;" horiz-adv-x="367" 
d="M242 130c52 -17 84 -58 84 -113c0 -73 -57 -123 -142 -123c-86 0 -142 49 -142 123c0 55 31 96 83 113c-44 17 -71 55 -71 104c0 69 51 116 130 116c78 0 130 -46 130 -115c0 -49 -27 -87 -72 -105zM94 232c0 -52 36 -86 90 -86c53 0 90 34 90 86c0 51 -37 85 -90 85
c-54 0 -90 -34 -90 -85zM184 -73c61 0 102 36 102 92c0 57 -41 95 -102 95s-102 -38 -102 -95c0 -56 41 -92 102 -92z" />
    <glyph glyph-name="uni2089" unicode="&#x2089;" horiz-adv-x="346" 
d="M171 350c86 0 143 -54 143 -137c0 -39 -12 -69 -33 -99l-143 -214h-44l129 186c-17 -6 -36 -10 -59 -10c-78 0 -135 55 -135 137s57 137 142 137zM69 213c0 -64 41 -107 102 -107s102 43 102 107c0 63 -41 104 -102 104s-102 -41 -102 -104z" />
    <glyph glyph-name="zero.dnom" horiz-adv-x="381" 
d="M191 -6c-93 0 -155 91 -155 228s62 228 155 228s154 -91 154 -228s-61 -228 -154 -228zM191 27c70 0 116 78 116 195s-46 195 -116 195c-69 0 -115 -78 -115 -195s46 -195 115 -195z" />
    <glyph glyph-name="one.dnom" horiz-adv-x="254" 
d="M147 0v393l-115 -84l-20 28l144 107h30v-444h-39z" />
    <glyph glyph-name="two.dnom" horiz-adv-x="348" 
d="M34 0v26l134 143c37 40 97 97 97 163c0 53 -37 85 -92 85c-58 0 -95 -36 -95 -91l-39 3c0 73 53 121 133 121c79 0 132 -45 132 -115c0 -74 -58 -134 -111 -190l-107 -113l224 1v-33h-276z" />
    <glyph glyph-name="three.dnom" horiz-adv-x="347" 
d="M169 253c85 0 142 -50 142 -126c0 -80 -60 -133 -153 -133c-55 0 -102 18 -128 51l16 29c24 -32 60 -47 107 -47c71 0 117 39 117 100c0 58 -46 96 -114 96c-25 0 -49 -5 -69 -15l-12 20l168 183h-196v33h250v-24l-158 -169c10 2 20 2 30 2z" />
    <glyph glyph-name="four.dnom" horiz-adv-x="373" 
d="M241 0v98h-222v29l228 317h33v-313h68v-33h-68v-98h-39zM60 129h182l1 254z" />
    <glyph glyph-name="five.dnom" horiz-adv-x="350" 
d="M156 -6c-55 0 -98 14 -127 42l11 29c28 -27 68 -38 112 -38c74 0 122 41 122 105c0 60 -41 101 -105 101c-29 0 -58 -6 -86 -17l-26 4l30 224h207v-33h-173l-23 -157c25 7 51 11 78 11c83 0 139 -53 139 -132c0 -83 -65 -139 -159 -139z" />
    <glyph glyph-name="six.dnom" horiz-adv-x="346" 
d="M182 268c78 0 135 -55 135 -137s-57 -137 -142 -137c-86 0 -143 54 -143 137c0 39 12 69 33 99l143 214h44l-129 -186c17 6 36 10 59 10zM175 27c61 0 102 41 102 104c0 64 -41 107 -102 107s-102 -43 -102 -107c0 -63 41 -104 102 -104z" />
    <glyph glyph-name="seven.dnom" horiz-adv-x="310" 
d="M17 444h277l-159 -444h-41l149 411h-226v33z" />
    <glyph glyph-name="eight.dnom" horiz-adv-x="367" 
d="M242 230c52 -17 84 -58 84 -113c0 -73 -57 -123 -142 -123c-86 0 -142 49 -142 123c0 55 31 96 83 113c-44 17 -71 55 -71 104c0 69 51 116 130 116c78 0 130 -46 130 -115c0 -49 -27 -87 -72 -105zM94 332c0 -52 36 -86 90 -86c53 0 90 34 90 86c0 51 -37 85 -90 85
c-54 0 -90 -34 -90 -85zM184 27c61 0 102 36 102 92c0 57 -41 95 -102 95s-102 -38 -102 -95c0 -56 41 -92 102 -92z" />
    <glyph glyph-name="nine.dnom" horiz-adv-x="346" 
d="M171 450c86 0 143 -54 143 -137c0 -39 -12 -69 -33 -99l-143 -214h-44l129 186c-17 -6 -36 -10 -59 -10c-78 0 -135 55 -135 137s57 137 142 137zM69 313c0 -64 41 -107 102 -107s102 43 102 107c0 63 -41 104 -102 104s-102 -41 -102 -104z" />
    <glyph glyph-name="zero.numr" horiz-adv-x="381" 
d="M191 290c-93 0 -155 91 -155 228s62 228 155 228s154 -91 154 -228s-61 -228 -154 -228zM191 323c70 0 116 78 116 195s-46 195 -116 195c-69 0 -115 -78 -115 -195s46 -195 115 -195z" />
    <glyph glyph-name="one.numr" horiz-adv-x="254" 
d="M147 296v393l-115 -84l-20 28l144 107h30v-444h-39z" />
    <glyph glyph-name="two.numr" horiz-adv-x="348" 
d="M34 296v26l134 143c37 40 97 97 97 163c0 53 -37 85 -92 85c-58 0 -95 -36 -95 -91l-39 3c0 73 53 121 133 121c79 0 132 -45 132 -115c0 -74 -58 -134 -111 -190l-107 -113l224 1v-33h-276z" />
    <glyph glyph-name="three.numr" horiz-adv-x="347" 
d="M169 549c85 0 142 -50 142 -126c0 -80 -60 -133 -153 -133c-55 0 -102 18 -128 51l16 29c24 -32 60 -47 107 -47c71 0 117 39 117 100c0 58 -46 96 -114 96c-25 0 -49 -5 -69 -15l-12 20l168 183h-196v33h250v-24l-158 -169c10 2 20 2 30 2z" />
    <glyph glyph-name="four.numr" horiz-adv-x="373" 
d="M241 296v98h-222v29l228 317h33v-313h68v-33h-68v-98h-39zM60 425h182l1 254z" />
    <glyph glyph-name="five.numr" horiz-adv-x="350" 
d="M156 290c-55 0 -98 14 -127 42l11 29c28 -27 68 -38 112 -38c74 0 122 41 122 105c0 60 -41 101 -105 101c-29 0 -58 -6 -86 -17l-26 4l30 224h207v-33h-173l-23 -157c25 7 51 11 78 11c83 0 139 -53 139 -132c0 -83 -65 -139 -159 -139z" />
    <glyph glyph-name="six.numr" horiz-adv-x="346" 
d="M182 564c78 0 135 -55 135 -137s-57 -137 -142 -137c-86 0 -143 54 -143 137c0 39 12 69 33 99l143 214h44l-129 -186c17 6 36 10 59 10zM175 323c61 0 102 41 102 104c0 64 -41 107 -102 107s-102 -43 -102 -107c0 -63 41 -104 102 -104z" />
    <glyph glyph-name="seven.numr" horiz-adv-x="310" 
d="M17 740h277l-159 -444h-41l149 411h-226v33z" />
    <glyph glyph-name="eight.numr" horiz-adv-x="367" 
d="M242 526c52 -17 84 -58 84 -113c0 -73 -57 -123 -142 -123c-86 0 -142 49 -142 123c0 55 31 96 83 113c-44 17 -71 55 -71 104c0 69 51 116 130 116c78 0 130 -46 130 -115c0 -49 -27 -87 -72 -105zM94 628c0 -52 36 -86 90 -86c53 0 90 34 90 86c0 51 -37 85 -90 85
c-54 0 -90 -34 -90 -85zM184 323c61 0 102 36 102 92c0 57 -41 95 -102 95s-102 -38 -102 -95c0 -56 41 -92 102 -92z" />
    <glyph glyph-name="nine.numr" horiz-adv-x="346" 
d="M171 746c86 0 143 -54 143 -137c0 -39 -12 -69 -33 -99l-143 -214h-44l129 186c-17 -6 -36 -10 -59 -10c-78 0 -135 55 -135 137s57 137 142 137zM69 609c0 -64 41 -107 102 -107s102 43 102 107c0 63 -41 104 -102 104s-102 -41 -102 -104z" />
    <glyph glyph-name="uni2070" unicode="&#x2070;" horiz-adv-x="381" 
d="M191 390c-93 0 -155 91 -155 228s62 228 155 228s154 -91 154 -228s-61 -228 -154 -228zM191 423c70 0 116 78 116 195s-46 195 -116 195c-69 0 -115 -78 -115 -195s46 -195 115 -195z" />
    <glyph glyph-name="uni00B9" unicode="&#xb9;" horiz-adv-x="254" 
d="M147 396v393l-115 -84l-20 28l144 107h30v-444h-39z" />
    <glyph glyph-name="uni00B2" unicode="&#xb2;" horiz-adv-x="348" 
d="M34 396v26l134 143c37 40 97 97 97 163c0 53 -37 85 -92 85c-58 0 -95 -36 -95 -91l-39 3c0 73 53 121 133 121c79 0 132 -45 132 -115c0 -74 -58 -134 -111 -190l-107 -113l224 1v-33h-276z" />
    <glyph glyph-name="uni00B3" unicode="&#xb3;" horiz-adv-x="347" 
d="M169 649c85 0 142 -50 142 -126c0 -80 -60 -133 -153 -133c-55 0 -102 18 -128 51l16 29c24 -32 60 -47 107 -47c71 0 117 39 117 100c0 58 -46 96 -114 96c-25 0 -49 -5 -69 -15l-12 20l168 183h-196v33h250v-24l-158 -169c10 2 20 2 30 2z" />
    <glyph glyph-name="uni2074" unicode="&#x2074;" horiz-adv-x="373" 
d="M241 396v98h-222v29l228 317h33v-313h68v-33h-68v-98h-39zM60 525h182l1 254z" />
    <glyph glyph-name="uni2075" unicode="&#x2075;" horiz-adv-x="350" 
d="M156 390c-55 0 -98 14 -127 42l11 29c28 -27 68 -38 112 -38c74 0 122 41 122 105c0 60 -41 101 -105 101c-29 0 -58 -6 -86 -17l-26 4l30 224h207v-33h-173l-23 -157c25 7 51 11 78 11c83 0 139 -53 139 -132c0 -83 -65 -139 -159 -139z" />
    <glyph glyph-name="uni2076" unicode="&#x2076;" horiz-adv-x="346" 
d="M182 664c78 0 135 -55 135 -137s-57 -137 -142 -137c-86 0 -143 54 -143 137c0 39 12 69 33 99l143 214h44l-129 -186c17 6 36 10 59 10zM175 423c61 0 102 41 102 104c0 64 -41 107 -102 107s-102 -43 -102 -107c0 -63 41 -104 102 -104z" />
    <glyph glyph-name="uni2077" unicode="&#x2077;" horiz-adv-x="310" 
d="M17 840h277l-159 -444h-41l149 411h-226v33z" />
    <glyph glyph-name="uni2078" unicode="&#x2078;" horiz-adv-x="367" 
d="M242 626c52 -17 84 -58 84 -113c0 -73 -57 -123 -142 -123c-86 0 -142 49 -142 123c0 55 31 96 83 113c-44 17 -71 55 -71 104c0 69 51 116 130 116c78 0 130 -46 130 -115c0 -49 -27 -87 -72 -105zM94 728c0 -52 36 -86 90 -86c53 0 90 34 90 86c0 51 -37 85 -90 85
c-54 0 -90 -34 -90 -85zM184 423c61 0 102 36 102 92c0 57 -41 95 -102 95s-102 -38 -102 -95c0 -56 41 -92 102 -92z" />
    <glyph glyph-name="uni2079" unicode="&#x2079;" horiz-adv-x="346" 
d="M171 846c86 0 143 -54 143 -137c0 -39 -12 -69 -33 -99l-143 -214h-44l129 186c-17 -6 -36 -10 -59 -10c-78 0 -135 55 -135 137s57 137 142 137zM69 709c0 -64 41 -107 102 -107s102 43 102 107c0 63 -41 104 -102 104s-102 -41 -102 -104z" />
    <glyph glyph-name="fraction" unicode="&#x2044;" horiz-adv-x="187" 
d="M-108 -10l-31 20l434 740l31 -20z" />
    <glyph glyph-name="onehalf" unicode="&#xbd;" horiz-adv-x="789" 
d="M146 -10l-31 20l434 740l31 -20zM147 296v393l-115 -84l-20 28l144 107h30v-444h-39zM475 0v26l134 143c37 40 97 97 97 163c0 53 -37 85 -92 85c-58 0 -95 -36 -95 -91l-39 3c0 73 53 121 133 121c79 0 132 -45 132 -115c0 -74 -58 -134 -111 -190l-107 -113l224 1v-33
h-276z" />
    <glyph glyph-name="onequarter" unicode="&#xbc;" horiz-adv-x="777" 
d="M146 -10l-31 20l434 740l31 -20zM147 296v393l-115 -84l-20 28l144 107h30v-444h-39zM645 0v98h-222v29l228 317h33v-313h68v-33h-68v-98h-39zM464 129h182l1 254z" />
    <glyph glyph-name="threequarters" unicode="&#xbe;" horiz-adv-x="870" 
d="M642 750l31 -20l-434 -740l-31 20zM311 423c0 -80 -60 -133 -153 -133c-55 0 -102 18 -128 51l16 29c24 -32 60 -47 107 -47c71 0 117 39 117 100c0 58 -46 96 -114 96c-25 0 -49 -5 -69 -15l-12 20l168 183h-196v33h250v-24l-158 -169c10 2 20 2 30 2
c85 0 142 -50 142 -126zM777 131h68v-33h-68v-98h-39v98h-222v29l228 317h33v-313zM739 129l1 254l-183 -254h182z" />
    <glyph glyph-name="oneeighth" unicode="&#x215b;" horiz-adv-x="808" 
d="M549 750l31 -20l-434 -740l-31 20zM147 296v393l-115 -84l-20 28l144 107h30v-444h-39zM683 230c52 -17 84 -58 84 -113c0 -73 -57 -123 -142 -123c-86 0 -142 49 -142 123c0 55 31 96 83 113c-44 17 -71 55 -71 104c0 69 51 116 130 116c78 0 130 -46 130 -115
c0 -49 -27 -87 -72 -105zM535 332c0 -52 36 -86 90 -86c53 0 90 34 90 86c0 51 -37 85 -90 85c-54 0 -90 -34 -90 -85zM625 27c61 0 102 36 102 92c0 57 -41 95 -102 95s-102 -38 -102 -95c0 -56 41 -92 102 -92z" />
    <glyph glyph-name="threeeighths" unicode="&#x215c;" horiz-adv-x="901" 
d="M642 750l31 -20l-434 -740l-31 20zM311 423c0 -80 -60 -133 -153 -133c-55 0 -102 18 -128 51l16 29c24 -32 60 -47 107 -47c71 0 117 39 117 100c0 58 -46 96 -114 96c-25 0 -49 -5 -69 -15l-12 20l168 183h-196v33h250v-24l-158 -169c10 2 20 2 30 2
c85 0 142 -50 142 -126zM776 230c52 -17 84 -58 84 -113c0 -73 -57 -123 -142 -123c-86 0 -142 49 -142 123c0 55 31 96 83 113c-44 17 -71 55 -71 104c0 69 51 116 130 116c78 0 130 -46 130 -115c0 -49 -27 -87 -72 -105zM628 332c0 -52 36 -86 90 -86c53 0 90 34 90 86
c0 51 -37 85 -90 85c-54 0 -90 -34 -90 -85zM718 27c61 0 102 36 102 92c0 57 -41 95 -102 95s-102 -38 -102 -95c0 -56 41 -92 102 -92z" />
    <glyph glyph-name="fiveeighths" unicode="&#x215d;" horiz-adv-x="904" 
d="M645 750l31 -20l-434 -740l-31 20zM315 429c0 -83 -65 -139 -159 -139c-55 0 -98 14 -127 42l11 29c28 -27 68 -38 112 -38c74 0 122 41 122 105c0 60 -41 101 -105 101c-29 0 -58 -6 -86 -17l-26 4l30 224h207v-33h-173l-23 -157c25 7 51 11 78 11
c83 0 139 -53 139 -132zM779 230c52 -17 84 -58 84 -113c0 -73 -57 -123 -142 -123c-86 0 -142 49 -142 123c0 55 31 96 83 113c-44 17 -71 55 -71 104c0 69 51 116 130 116c78 0 130 -46 130 -115c0 -49 -27 -87 -72 -105zM631 332c0 -52 36 -86 90 -86c53 0 90 34 90 86
c0 51 -37 85 -90 85c-54 0 -90 -34 -90 -85zM721 27c61 0 102 36 102 92c0 57 -41 95 -102 95s-102 -38 -102 -95c0 -56 41 -92 102 -92z" />
    <glyph glyph-name="seveneighths" unicode="&#x215e;" horiz-adv-x="833" 
d="M574 750l31 -20l-434 -740l-31 20zM17 740h277l-159 -444h-41l149 411h-226v33zM708 230c52 -17 84 -58 84 -113c0 -73 -57 -123 -142 -123c-86 0 -142 49 -142 123c0 55 31 96 83 113c-44 17 -71 55 -71 104c0 69 51 116 130 116c78 0 130 -46 130 -115
c0 -49 -27 -87 -72 -105zM560 332c0 -52 36 -86 90 -86c53 0 90 34 90 86c0 51 -37 85 -90 85c-54 0 -90 -34 -90 -85zM650 27c61 0 102 36 102 92c0 57 -41 95 -102 95s-102 -38 -102 -95c0 -56 41 -92 102 -92z" />
    <glyph glyph-name="uni2081.ss02" horiz-adv-x="208" 
d="M101 -100v411h-83v33h122v-444h-39z" />
    <glyph glyph-name="one.dnom.ss02" horiz-adv-x="208" 
d="M101 0v411h-83v33h122v-444h-39z" />
    <glyph glyph-name="one.numr.ss02" horiz-adv-x="208" 
d="M101 296v411h-83v33h122v-444h-39z" />
    <glyph glyph-name="uni00B9.ss02" horiz-adv-x="208" 
d="M101 396v411h-83v33h122v-444h-39z" />
    <glyph glyph-name="onehalf.ss02" horiz-adv-x="743" 
d="M100 -10l-31 20l434 740l31 -20zM101 296v411h-83v33h122v-444h-39zM429 0v26l134 143c37 40 97 97 97 163c0 53 -37 85 -92 85c-58 0 -95 -36 -95 -91l-39 3c0 73 53 121 133 121c79 0 132 -45 132 -115c0 -74 -58 -134 -111 -190l-107 -113l224 1v-33h-276z" />
    <glyph glyph-name="onequarter.ss02" horiz-adv-x="731" 
d="M100 -10l-31 20l434 740l31 -20zM101 296v411h-83v33h122v-444h-39zM599 0v98h-222v29l228 317h33v-313h68v-33h-68v-98h-39zM418 129h182l1 254z" />
    <glyph glyph-name="oneeighth.ss02" horiz-adv-x="762" 
d="M503 750l31 -20l-434 -740l-31 20zM101 296v411h-83v33h122v-444h-39zM637 230c52 -17 84 -58 84 -113c0 -73 -57 -123 -142 -123c-86 0 -142 49 -142 123c0 55 31 96 83 113c-44 17 -71 55 -71 104c0 69 51 116 130 116c78 0 130 -46 130 -115c0 -49 -27 -87 -72 -105z
M489 332c0 -52 36 -86 90 -86c53 0 90 34 90 86c0 51 -37 85 -90 85c-54 0 -90 -34 -90 -85zM579 27c61 0 102 36 102 92c0 57 -41 95 -102 95s-102 -38 -102 -95c0 -56 41 -92 102 -92z" />
    <glyph glyph-name="asterisk" unicode="*" horiz-adv-x="390" 
d="M329 628l-107 -32l68 -89l-32 -22l-63 91l-64 -91l-31 22l68 89l-107 32l11 37l106 -37l-3 112h39l-2 -112l105 37z" />
    <glyph glyph-name="backslash" unicode="\" horiz-adv-x="379" 
d="M284 -100l-239 880h49l239 -880h-49z" />
    <glyph glyph-name="periodcentered" unicode="&#xb7;" horiz-adv-x="226" 
d="M113 246c-22 0 -41 19 -41 41c0 23 19 41 41 41s41 -18 41 -41c0 -22 -19 -41 -41 -41z" />
    <glyph glyph-name="bullet" unicode="&#x2022;" horiz-adv-x="350" 
d="M175 242c-48 0 -80 32 -80 80s32 80 80 80s80 -32 80 -80s-32 -80 -80 -80z" />
    <glyph glyph-name="colon" unicode=":" horiz-adv-x="229" 
d="M115 452c-23 0 -41 19 -41 42c0 22 18 41 41 41c22 0 41 -19 41 -41c0 -23 -19 -42 -41 -42zM115 -10c-23 0 -41 19 -41 41c0 23 18 41 41 41c22 0 41 -18 41 -41c0 -22 -19 -41 -41 -41z" />
    <glyph glyph-name="comma" unicode="," horiz-adv-x="209" 
d="M14 -145l69 208h59l-78 -208h-50z" />
    <glyph glyph-name="ellipsis" unicode="&#x2026;" horiz-adv-x="576" 
d="M105 -10c-22 0 -41 19 -41 41c0 23 19 41 41 41s41 -18 41 -41c0 -22 -19 -41 -41 -41zM288 -10c-22 0 -41 19 -41 41c0 23 19 41 41 41c23 0 41 -18 41 -41c0 -22 -18 -41 -41 -41zM472 -10c-23 0 -42 19 -42 41c0 23 19 41 42 41c22 0 41 -18 41 -41
c0 -22 -19 -41 -41 -41z" />
    <glyph glyph-name="exclam" unicode="!" horiz-adv-x="248" 
d="M102 144l-4 596h52l-4 -596h-44zM124 -10c-21 0 -36 16 -36 36c0 21 15 36 36 36c20 0 36 -15 36 -36c0 -20 -16 -36 -36 -36z" />
    <glyph glyph-name="exclamdown" unicode="&#xa1;" horiz-adv-x="232" 
d="M116 462c-20 0 -36 16 -36 37c0 20 16 36 36 36c21 0 36 -16 36 -36c0 -21 -15 -37 -36 -37zM90 -220l4 601h44l4 -601h-52z" />
    <glyph glyph-name="numbersign" unicode="#" horiz-adv-x="664" 
d="M619 450h-123l-47 -204h123l-9 -36h-122l-49 -210h-39l49 210h-204l-49 -210h-40l49 210h-122l9 36h121l47 204h-122l9 36h121l50 214h40l-50 -214h204l50 214h39l-50 -214h123zM410 246l47 204h-204l-47 -204h204z" />
    <glyph glyph-name="period" unicode="." horiz-adv-x="210" 
d="M105 -10c-22 0 -41 19 -41 41c0 23 19 41 41 41s41 -18 41 -41c0 -22 -19 -41 -41 -41z" />
    <glyph glyph-name="question" unicode="?" horiz-adv-x="509" 
d="M222 144c0 185 65 242 122 289c39 32 72 61 72 127c0 88 -66 147 -166 147c-96 0 -162 -59 -166 -147l-49 2c4 113 90 188 215 188c133 0 220 -75 220 -186c0 -84 -41 -120 -87 -159c-56 -48 -118 -100 -118 -261h-43zM244 -10c-21 0 -37 16 -37 36c0 21 16 36 37 36
c20 0 36 -15 36 -36c0 -20 -16 -36 -36 -36z" />
    <glyph glyph-name="questiondown" unicode="&#xbf;" horiz-adv-x="501" 
d="M261 462c-20 0 -36 16 -36 37c0 20 16 36 36 36c21 0 37 -16 37 -36c0 -21 -16 -37 -37 -37zM255 -230c-132 0 -220 75 -220 186c0 84 41 119 87 159c56 49 118 103 118 266h43c0 -188 -65 -247 -121 -294c-39 -32 -73 -60 -73 -127c0 -88 66 -147 166 -147
c96 0 163 59 166 147l49 -2c-4 -113 -90 -188 -215 -188z" />
    <glyph glyph-name="quotedbl" unicode="&#x22;" horiz-adv-x="312" 
d="M72 564l-1 216h44l-1 -216h-42zM198 564l-1 216h44l-1 -216h-42z" />
    <glyph glyph-name="quotesingle" unicode="'" horiz-adv-x="186" 
d="M72 564l-1 216h44l-1 -216h-42z" />
    <glyph glyph-name="semicolon" unicode=";" horiz-adv-x="282" 
d="M145 452c-22 0 -41 19 -41 42c0 22 19 41 41 41s41 -19 41 -41c0 -23 -19 -42 -41 -42zM61 -145l69 208h59l-78 -208h-50z" />
    <glyph glyph-name="slash" unicode="/" horiz-adv-x="379" 
d="M45 -100l239 880h49l-239 -880h-49z" />
    <glyph glyph-name="underscore" unicode="_" horiz-adv-x="501" 
d="M25 -37v37h451v-37h-451z" />
    <glyph glyph-name="exclamdown.case" horiz-adv-x="258" 
d="M129 750c20 0 36 -16 36 -36c0 -21 -16 -36 -36 -36c-21 0 -36 15 -36 36c0 20 15 36 36 36zM107 596h44l4 -596h-52z" />
    <glyph glyph-name="questiondown.case" horiz-adv-x="508" 
d="M265 750c21 0 36 -16 36 -36c0 -21 -15 -36 -36 -36c-20 0 -36 15 -36 36c0 20 16 36 36 36zM287 596c0 -185 -66 -242 -122 -289c-39 -32 -72 -61 -72 -127c0 -88 66 -147 165 -147c97 0 163 59 167 147l49 -2c-4 -113 -90 -188 -216 -188c-132 0 -219 75 -219 186
c0 84 41 120 87 159c56 48 117 100 117 261h44z" />
    <glyph glyph-name="slash.case" horiz-adv-x="349" 
d="M49 0l201 740h49l-201 -740h-49z" />
    <glyph glyph-name="braceleft" unicode="{" horiz-adv-x="380" 
d="M257 -190c-78 0 -129 55 -129 138v202c0 77 -35 128 -86 128h-9v44h9c51 0 86 51 86 128v202c0 83 51 138 129 138c37 0 65 -4 96 -12v-42c-29 7 -54 11 -86 11c-52 0 -88 -43 -88 -106v-196c0 -74 -30 -132 -75 -145c45 -13 75 -71 75 -145v-196c0 -63 36 -106 88 -106
c32 0 57 4 86 11v-42c-31 -8 -59 -12 -96 -12z" />
    <glyph glyph-name="braceright" unicode="}" horiz-adv-x="380" 
d="M123 -190c-37 0 -65 4 -95 12v42c28 -7 53 -11 85 -11c53 0 88 43 88 106v196c0 74 30 132 75 145c-45 13 -75 71 -75 145v196c0 63 -35 106 -88 106c-32 0 -57 -4 -85 -11v42c30 8 58 12 95 12c78 0 129 -55 129 -138v-202c0 -77 35 -128 86 -128h9v-44h-9
c-51 0 -86 -51 -86 -128v-202c0 -83 -51 -138 -129 -138z" />
    <glyph glyph-name="bracketleft" unicode="[" horiz-adv-x="342" 
d="M100 -180v960h216v-42h-167v-876h167v-42h-216z" />
    <glyph glyph-name="bracketright" unicode="]" horiz-adv-x="342" 
d="M242 -180h-216v42h167v876h-167v42h216v-960z" />
    <glyph glyph-name="parenleft" unicode="(" horiz-adv-x="275" 
d="M203 -180c-56 87 -148 260 -148 480s92 393 148 480h44c-40 -70 -140 -237 -140 -480s100 -410 140 -480h-44z" />
    <glyph glyph-name="parenright" unicode=")" horiz-adv-x="275" 
d="M28 -180c40 70 140 237 140 480s-100 410 -140 480h44c56 -87 148 -260 148 -480s-92 -393 -148 -480h-44z" />
    <glyph glyph-name="braceleft.case" horiz-adv-x="399" 
d="M264 -50c-78 0 -129 55 -129 138v132c0 77 -35 128 -86 128h-9v44h9c51 0 86 51 86 128v132c0 83 51 138 129 138c37 0 65 -4 96 -12v-42c-29 7 -54 11 -86 11c-52 0 -88 -43 -88 -106v-126c0 -74 -30 -132 -75 -145c45 -13 75 -71 75 -145v-126c0 -63 36 -106 88 -106
c32 0 57 4 86 11v-42c-31 -8 -59 -12 -96 -12z" />
    <glyph glyph-name="braceright.case" horiz-adv-x="399" 
d="M135 -50c-36 0 -65 4 -95 12v42c29 -7 54 -11 85 -11c53 0 88 43 88 106v126c0 74 30 132 75 145c-45 13 -75 71 -75 145v126c0 63 -35 106 -88 106c-31 0 -56 -4 -85 -11v42c30 8 59 12 95 12c78 0 130 -55 130 -138v-132c0 -77 34 -128 85 -128h9v-44h-9
c-51 0 -85 -51 -85 -128v-132c0 -83 -52 -138 -130 -138z" />
    <glyph glyph-name="bracketleft.case" horiz-adv-x="360" 
d="M106 -40v820h216v-42h-167v-736h167v-42h-216z" />
    <glyph glyph-name="bracketright.case" horiz-adv-x="360" 
d="M254 -40h-216v42h167v736h-167v42h216v-820z" />
    <glyph glyph-name="parenleft.case" horiz-adv-x="288" 
d="M207 -40c-66 87 -148 220 -148 410s82 323 148 410h44c-50 -70 -140 -237 -140 -410s90 -340 140 -410h-44z" />
    <glyph glyph-name="parenright.case" horiz-adv-x="288" 
d="M37 -40c50 70 140 237 140 410s-90 340 -140 410h44c66 -87 148 -220 148 -410s-82 -323 -148 -410h-44z" />
    <glyph glyph-name="emdash" unicode="&#x2014;" horiz-adv-x="872" 
d="M74 268v37h723v-37h-723z" />
    <glyph glyph-name="endash" unicode="&#x2013;" horiz-adv-x="551" 
d="M74 268v37h402v-37h-402z" />
    <glyph glyph-name="hyphen" unicode="-" horiz-adv-x="419" 
d="M74 268v37h271v-37h-271z" />
    <glyph glyph-name="uni00AD" unicode="&#xad;" horiz-adv-x="419" 
d="M74 268v37h271v-37h-271z" />
    <glyph glyph-name="guillemotleft" unicode="&#xab;" horiz-adv-x="541" 
d="M273 492l-171 -222l171 -222h-51l-175 222l175 222h51zM489 492l-171 -222l171 -222h-52l-174 222l174 222h52z" />
    <glyph glyph-name="guillemotright" unicode="&#xbb;" horiz-adv-x="541" 
d="M104 492l174 -222l-174 -222h-52l171 222l-171 222h52zM319 492l175 -222l-175 -222h-51l171 222l-171 222h51z" />
    <glyph glyph-name="guilsinglleft" unicode="&#x2039;" horiz-adv-x="325" 
d="M273 492l-171 -222l171 -222h-51l-175 222l175 222h51z" />
    <glyph glyph-name="guilsinglright" unicode="&#x203a;" horiz-adv-x="325" 
d="M104 492l174 -222l-174 -222h-52l171 222l-171 222h52z" />
    <glyph glyph-name="quotedblbase" unicode="&#x201e;" horiz-adv-x="328" 
d="M15 -140l67 204h51l-75 -204h-43zM142 -140l68 204h51l-75 -204h-44z" />
    <glyph glyph-name="quotedblleft" unicode="&#x201c;" horiz-adv-x="342" 
d="M174 739l-68 -203h-51l76 203h43zM301 739l-67 -203h-51l75 203h43z" />
    <glyph glyph-name="quotedblright" unicode="&#x201d;" horiz-adv-x="339" 
d="M55 537l67 204h51l-75 -204h-43zM182 537l67 204h51l-75 -204h-43z" />
    <glyph glyph-name="quoteleft" unicode="&#x2018;" horiz-adv-x="212" 
d="M171 740l-67 -204h-51l75 204h43z" />
    <glyph glyph-name="quoteright" unicode="&#x2019;" horiz-adv-x="212" 
d="M55 536l67 204h51l-75 -204h-43z" />
    <glyph glyph-name="quotesinglbase" unicode="&#x201a;" horiz-adv-x="201" 
d="M15 -140l67 204h51l-75 -204h-43z" />
    <glyph glyph-name="space" unicode=" " horiz-adv-x="272" 
 />
    <glyph glyph-name="uni00A0" unicode="&#xa0;" horiz-adv-x="272" 
 />
    <glyph glyph-name="CR" unicode="&#xd;" horiz-adv-x="233" 
 />
    <glyph glyph-name=".null" horiz-adv-x="0" 
 />
    <glyph glyph-name="cent" unicode="&#xa2;" horiz-adv-x="558" 
d="M497 109c-40 -40 -95 -63 -159 -68v-81h-46v81c-145 8 -241 115 -241 272c0 155 95 261 241 271v81h46v-81c56 -4 103 -22 144 -55l-29 -34c-35 28 -71 43 -115 47v-459c49 4 95 23 131 59zM102 312c0 -129 75 -218 190 -229v459c-115 -10 -190 -99 -190 -230z" />
    <glyph glyph-name="currency" unicode="&#xa4;" horiz-adv-x="597" 
d="M518 344c0 -53 -19 -101 -50 -139l54 -54l-30 -31l-54 55c-38 -31 -86 -49 -139 -49s-101 18 -139 48l-54 -54l-31 30l55 55c-32 37 -51 86 -51 139s19 101 50 139l-54 54l31 30l54 -54c38 30 86 48 139 48s101 -18 139 -49l54 55l30 -31l-54 -54c31 -37 50 -86 50 -138z
M299 164c97 0 176 81 176 180c0 98 -79 179 -176 179c-98 0 -177 -81 -177 -179c0 -99 79 -180 177 -180z" />
    <glyph glyph-name="dollar" unicode="$" horiz-adv-x="611" 
d="M558 186c0 -110 -92 -186 -231 -195v-81h-50v80c-84 4 -164 30 -212 84l23 37c50 -51 116 -75 189 -78v325l-32 10c-98 28 -184 73 -184 187c0 109 84 184 216 194v81h50v-80c91 -5 154 -36 202 -85l-26 -37c-46 47 -103 74 -176 78v-309h1c103 -31 230 -79 230 -211z
M273 414l4 -1v293c-99 -9 -162 -65 -162 -144c0 -91 75 -124 158 -148zM327 34c108 10 176 66 176 148c0 84 -71 127 -176 161v-309z" />
    <glyph glyph-name="Euro" unicode="&#x20ac;" horiz-adv-x="805" 
d="M721 166l35 -33c-64 -86 -167 -143 -295 -143c-190 0 -326 114 -358 294h-61v36h56c-2 17 -3 34 -3 51v13h-53v37h55c21 199 162 329 365 329c121 0 207 -48 274 -121l-32 -33c-56 63 -134 111 -239 111c-174 0 -294 -113 -313 -286h295v-37h-298v-12c0 -18 1 -35 3 -52
h295v-36h-289c31 -153 145 -251 303 -251c114 0 204 55 260 133z" />
    <glyph glyph-name="florin" unicode="&#x192;" horiz-adv-x="466" 
d="M369 707c-64 0 -118 -42 -131 -119l-39 -222h209v-43h-217l-74 -423h-50l74 423h-88v43h95l41 233c17 98 86 151 182 151c27 0 53 -5 74 -13l-7 -41c-21 8 -45 11 -69 11z" />
    <glyph glyph-name="uni20BD" unicode="&#x20bd;" horiz-adv-x="619" 
d="M161 328v-64h272v-36h-272v-228h-51v228h-52v36h52v64h-52v37h52v375h237c142 0 236 -82 236 -204c0 -125 -94 -208 -234 -208h-188zM161 697v-325h178c114 0 190 65 190 162c0 98 -76 163 -190 163h-178z" />
    <glyph glyph-name="uni20B9" unicode="&#x20b9;" horiz-adv-x="650" 
d="M603 740v-36h-209c69 -34 112 -97 117 -179h87v-36h-87c-6 -97 -60 -170 -144 -200l193 -289h-61l-182 276c-15 -2 -30 -3 -46 -3h-194v43h186c111 0 187 69 194 173h-380v36h380c-8 105 -85 172 -197 172h-183v43h526z" />
    <glyph glyph-name="sterling" unicode="&#xa3;" horiz-adv-x="574" 
d="M168 42h343v-42h-456v42h62v281h-52v42h52v201c0 111 78 184 194 184c117 0 195 -74 195 -185l-51 -4c0 87 -58 146 -144 146c-85 0 -143 -59 -143 -147v-195h307v-42h-307v-281z" />
    <glyph glyph-name="yen" unicode="&#xa5;" horiz-adv-x="668" 
d="M638 740l-263 -407h161v-36h-176v-64h176v-36h-176v-197h-51v197h-178v36h178v64h-178v36h163l-263 407h58l246 -383l245 383h58z" />
    <glyph glyph-name="plus" unicode="+" horiz-adv-x="520" 
d="M467 366v-41h-183v-180h-48v180h-183v41h183v181h48v-181h183z" />
    <glyph glyph-name="minus" unicode="&#x2212;" horiz-adv-x="570" 
d="M77 325v41h415v-41h-415z" />
    <glyph glyph-name="multiply" unicode="&#xd7;" horiz-adv-x="494" 
d="M425 493l-148 -148l148 -148l-30 -30l-148 148l-147 -148l-30 30l147 148l-148 148l31 30l148 -148l147 148z" />
    <glyph glyph-name="divide" unicode="&#xf7;" horiz-adv-x="562" 
d="M281 454c-20 0 -36 16 -36 37c0 20 16 36 36 36c21 0 36 -16 36 -36c0 -21 -15 -37 -36 -37zM74 325v41h415v-41h-415zM281 164c-20 0 -36 16 -36 37c0 20 16 36 36 36c21 0 36 -16 36 -36c0 -21 -15 -37 -36 -37z" />
    <glyph glyph-name="equal" unicode="=" horiz-adv-x="569" 
d="M77 443v41h415v-41h-415zM77 208v40h415v-40h-415z" />
    <glyph glyph-name="notequal" unicode="&#x2260;" horiz-adv-x="569" 
d="M492 443h-156l-53 -195h209v-40h-220l-31 -112h-49l31 112h-146v40h157l53 195h-210v41h222l30 111h49l-30 -111h144v-41z" />
    <glyph glyph-name="greater" unicode="&#x3e;" horiz-adv-x="509" 
d="M73 572l398 -208v-28l-398 -208v47l338 175l-338 175v47z" />
    <glyph glyph-name="less" unicode="&#x3c;" horiz-adv-x="509" 
d="M436 572v-47l-338 -175l338 -175v-47l-398 208v28z" />
    <glyph glyph-name="greaterequal" unicode="&#x2265;" horiz-adv-x="562" 
d="M83 586l398 -180v-29l-398 -179v46l331 148l-331 147v47zM83 91v41h398v-41h-398z" />
    <glyph glyph-name="lessequal" unicode="&#x2264;" horiz-adv-x="562" 
d="M479 586v-47l-330 -147l330 -148v-46l-398 179v29zM81 91v41h398v-41h-398z" />
    <glyph glyph-name="plusminus" unicode="&#xb1;" horiz-adv-x="573" 
d="M310 428h176v-41h-176v-180h-47v180h-176v41h176v180h47v-180zM87 91v42h399v-42h-399z" />
    <glyph glyph-name="approxequal" unicode="&#x2248;" horiz-adv-x="566" 
d="M376 338c-79 0 -119 77 -185 77c-43 0 -79 -26 -79 -67h-33c0 65 49 108 113 108c80 0 119 -78 185 -78c44 0 80 26 80 68h33c0 -66 -49 -108 -114 -108zM376 138c-79 0 -119 77 -185 77c-43 0 -79 -26 -79 -67h-33c0 65 49 108 113 108c80 0 119 -78 185 -78
c44 0 80 26 80 68h33c0 -66 -49 -108 -114 -108z" />
    <glyph glyph-name="asciitilde" unicode="~" horiz-adv-x="567" 
d="M376 238c-79 0 -119 77 -185 77c-43 0 -79 -26 -79 -67h-33c0 65 49 108 113 108c80 0 119 -78 185 -78c44 0 80 26 80 68h33c0 -66 -49 -108 -114 -108z" />
    <glyph glyph-name="logicalnot" unicode="&#xac;" horiz-adv-x="574" 
d="M496 417v-188h-48v147h-367v41h415z" />
    <glyph glyph-name="emptyset" unicode="&#x2205;" horiz-adv-x="661" 
d="M527 534c41 -48 65 -113 65 -191c0 -163 -105 -272 -262 -272c-70 0 -130 21 -174 59l-55 -59l-25 19l57 62c-42 48 -66 113 -66 191c0 164 105 273 263 273c70 0 130 -22 174 -60l55 59l25 -19zM118 343c0 -63 17 -116 48 -155l307 333c-36 34 -85 53 -143 53
c-128 0 -212 -92 -212 -231zM330 113c127 0 212 92 212 230c0 63 -17 116 -48 155l-307 -333c37 -33 85 -52 143 -52z" />
    <glyph glyph-name="infinity" unicode="&#x221e;" horiz-adv-x="712" 
d="M495 442c93 0 155 -65 155 -163s-62 -163 -155 -163c-66 0 -116 34 -139 91c-22 -57 -72 -91 -138 -91c-93 0 -156 65 -156 163s63 163 156 163c66 0 116 -34 138 -91c23 57 73 91 139 91zM221 150c68 0 113 52 113 129s-45 129 -113 129c-69 0 -114 -52 -114 -129
s45 -129 114 -129zM492 150c68 0 113 52 113 129s-45 129 -113 129c-69 0 -114 -52 -114 -129s45 -129 114 -129z" />
    <glyph glyph-name="integral" unicode="&#x222b;" horiz-adv-x="451" 
d="M340 790c43 0 85 -14 110 -40l-15 -36c-24 22 -57 33 -89 33c-59 0 -95 -39 -95 -96v-753c0 -77 -53 -128 -139 -128c-44 0 -86 14 -111 40l15 36c24 -22 57 -33 89 -33c59 0 95 39 95 96v753c0 77 53 128 140 128z" />
    <glyph glyph-name="product" unicode="&#x220f;" horiz-adv-x="724" 
d="M618 780v-1000h-52v957h-409v-957h-51v1000h512z" />
    <glyph glyph-name="summation" unicode="&#x2211;" horiz-adv-x="608" 
d="M33 -220v33l331 470l-322 464v33h516v-43h-453l321 -454l-330 -460h472v-43h-535z" />
    <glyph glyph-name="radical" unicode="&#x221a;" horiz-adv-x="755" 
d="M248 -220l-238 525h53l210 -469l425 944h54l-454 -1000h-50z" />
    <glyph glyph-name="partialdiff" unicode="&#x2202;" horiz-adv-x="625" 
d="M302 750c161 0 268 -152 268 -379c0 -229 -127 -381 -318 -381c-131 0 -218 73 -218 182c0 141 192 236 481 241c-11 178 -95 294 -217 294c-87 0 -151 -48 -198 -111l-33 33c58 73 131 121 235 121zM252 33c157 0 263 135 264 337c-258 -3 -429 -82 -429 -201
c0 -81 66 -136 165 -136z" />
    <glyph glyph-name="percent" unicode="%" horiz-adv-x="735" 
d="M196 423c-95 0 -158 65 -158 164c0 98 63 163 158 163s157 -65 157 -163c0 -99 -62 -164 -157 -164zM167 -10l-31 20l434 740l31 -20zM196 458c68 0 113 51 113 129c0 77 -45 128 -113 128c-69 0 -114 -51 -114 -128c0 -78 45 -129 114 -129zM539 -10
c-95 0 -158 65 -158 163c0 99 63 164 158 164s157 -65 157 -164c0 -98 -62 -163 -157 -163zM539 25c68 0 113 51 113 128c0 78 -45 129 -113 129c-69 0 -114 -51 -114 -129c0 -77 45 -128 114 -128z" />
    <glyph glyph-name="perthousand" unicode="&#x2030;" horiz-adv-x="1102" 
d="M196 423c-95 0 -158 65 -158 164c0 98 63 163 158 163s157 -65 157 -163c0 -99 -62 -164 -157 -164zM167 -10l-31 20l434 740l31 -20zM196 458c68 0 113 51 113 129c0 77 -45 128 -113 128c-69 0 -114 -51 -114 -128c0 -78 45 -129 114 -129zM539 -10
c-95 0 -158 65 -158 163c0 99 63 164 158 164s157 -65 157 -164c0 -98 -62 -163 -157 -163zM910 -10c-94 0 -158 65 -158 163c0 99 64 164 158 164c95 0 158 -65 158 -164c0 -98 -63 -163 -158 -163zM539 25c68 0 113 51 113 128c0 78 -45 129 -113 129
c-69 0 -114 -51 -114 -129c0 -77 45 -128 114 -128zM910 25c68 0 113 51 113 128c0 78 -45 129 -113 129c-69 0 -114 -51 -114 -129c0 -77 45 -128 114 -128z" />
    <glyph glyph-name="lozenge" unicode="&#x25ca;" horiz-adv-x="539" 
d="M290 625l205 -313l-205 -312h-41l-204 312l204 313h41zM270 45l172 267l-172 268l-173 -268z" />
    <glyph glyph-name="at" unicode="@" horiz-adv-x="1048" 
d="M673 470h46v-281c0 -63 33 -104 87 -104c78 0 133 92 133 229c0 239 -167 397 -407 397c-259 0 -427 -182 -427 -454c0 -268 164 -445 427 -445c73 0 188 13 269 38l17 -37c-83 -27 -200 -43 -285 -43c-296 0 -478 195 -478 488c0 297 187 494 477 494
c270 0 456 -173 456 -434c0 -164 -73 -275 -182 -275c-68 0 -115 44 -127 111c-28 -66 -87 -113 -178 -113c-124 0 -205 87 -205 218c0 132 82 219 204 219c84 0 142 -41 171 -106zM509 82c98 0 162 72 162 177c0 106 -64 177 -162 177s-163 -71 -163 -177s65 -177 163 -177
z" />
    <glyph glyph-name="ampersand" unicode="&#x26;" horiz-adv-x="780" 
d="M619 32c38 0 74 6 110 19v-40c-33 -15 -75 -21 -124 -21c-65 0 -113 36 -129 93c-40 -64 -116 -93 -198 -93c-132 0 -222 83 -222 207c0 101 63 175 164 201c-78 26 -126 89 -126 171c0 109 85 181 213 181c127 0 211 -73 211 -182v-151h203v-40h-203v-241
c0 -62 41 -104 101 -104zM145 563c0 -88 65 -146 162 -146h163v145c0 88 -65 146 -163 146c-97 0 -162 -58 -162 -145zM290 32c92 0 180 48 180 143v202h-163c-120 0 -200 -69 -200 -173c0 -103 73 -172 183 -172z" />
    <glyph glyph-name="paragraph" unicode="&#xb6;" horiz-adv-x="543" 
d="M431 740v-960h-42v921h-115v-921h-42v641h-66c-80 0 -133 65 -133 161c0 95 60 158 149 158h249z" />
    <glyph glyph-name="section" unicode="&#xa7;" horiz-adv-x="574" 
d="M463 94c32 -30 54 -71 54 -128c0 -117 -95 -196 -238 -196c-84 0 -165 26 -213 84l22 37c50 -55 115 -78 187 -78c114 0 188 59 188 148c0 93 -77 135 -184 170l-48 16c-90 30 -169 74 -169 188c0 54 20 100 54 134c-33 28 -54 68 -54 126c0 117 90 195 224 195
c93 0 157 -32 204 -85l-25 -37c-46 52 -105 79 -180 79c-102 0 -169 -59 -169 -145c0 -91 68 -123 143 -148l49 -17c94 -32 209 -79 209 -211c0 -53 -20 -98 -54 -132zM259 191l49 -16c39 -13 81 -29 117 -52c26 26 40 59 40 99c0 93 -78 136 -186 172l-48 15
c-27 9 -53 19 -77 33c-25 -26 -40 -59 -40 -100c0 -92 68 -124 145 -151z" />
    <glyph glyph-name="copyright" unicode="&#xa9;" horiz-adv-x="849" 
d="M425 -10c-222 0 -368 152 -368 380s146 380 368 380c221 0 367 -152 367 -380s-146 -380 -367 -380zM425 20c198 0 329 140 329 350s-131 350 -329 350c-199 0 -330 -140 -330 -350s131 -350 330 -350zM430 158c-122 0 -205 83 -205 209c0 125 82 209 205 209
c67 0 116 -26 153 -67l-24 -25c-30 33 -71 58 -127 58c-99 0 -165 -69 -165 -174c0 -107 66 -177 164 -177c60 0 107 28 137 71l27 -25c-36 -49 -93 -79 -165 -79z" />
    <glyph glyph-name="registered" unicode="&#xae;" horiz-adv-x="418" 
d="M209 790c90 0 150 -61 150 -153c0 -91 -60 -152 -150 -152s-150 61 -150 152c0 92 60 153 150 153zM209 500c78 0 131 55 131 137s-53 138 -131 138c-79 0 -130 -56 -130 -138s51 -137 130 -137zM270 668c0 -22 -13 -38 -34 -44l46 -69h-26l-42 65h-2h-38v-65h-23v163h64
c33 0 55 -20 55 -50zM174 701v-63h37c21 0 36 12 36 30c0 20 -14 33 -35 33h-38z" />
    <glyph glyph-name="trademark" unicode="&#x2122;" horiz-adv-x="711" 
d="M262 780v-28h-95v-258h-34v258h-94v28h223zM635 494h-34l-13 228l-108 -228h-24l-108 229l-13 -229h-34l18 286h34l115 -247l115 247h33z" />
    <glyph glyph-name="degree" unicode="&#xb0;" horiz-adv-x="353" 
d="M176 557c-74 0 -123 46 -123 117c0 70 49 116 123 116c75 0 124 -46 124 -116c0 -71 -49 -117 -124 -117zM176 587c52 0 86 35 86 87c0 51 -34 86 -86 86c-51 0 -85 -35 -85 -86c0 -52 34 -87 85 -87z" />
    <glyph glyph-name="bar" unicode="|" horiz-adv-x="253" 
d="M101 -220v1000h51v-1000h-51z" />
    <glyph glyph-name="brokenbar" unicode="&#xa6;" horiz-adv-x="249" 
d="M99 380v400h51v-400h-51zM99 -220v400h51v-400h-51z" />
    <glyph glyph-name="dagger" unicode="&#x2020;" horiz-adv-x="516" 
d="M475 525v-44h-191v-701h-52v701h-192v44h192v255h52v-255h191z" />
    <glyph glyph-name="daggerdbl" unicode="&#x2021;" horiz-adv-x="516" 
d="M475 481h-191v-161h191v-43h-191v-497h-52v497h-192v43h192v161h-192v44h192v255h52v-255h191v-44z" />
    <glyph glyph-name="asciicircum" unicode="^" horiz-adv-x="457" 
d="M402 329h-50l-123 245l-124 -245h-50l148 296h51z" />
    <glyph glyph-name="uni0308" unicode="&#x308;" horiz-adv-x="0" 
d="M-296 675c-21 0 -37 16 -37 37c0 20 16 36 37 36c20 0 36 -16 36 -36c0 -21 -16 -37 -36 -37zM-109 675c-20 0 -36 16 -36 37c0 20 16 36 36 36c21 0 36 -16 36 -36c0 -21 -15 -37 -36 -37z" />
    <glyph glyph-name="uni0307" unicode="&#x307;" horiz-adv-x="0" 
d="M-108 675c-21 0 -37 16 -37 37c0 20 16 36 37 36c20 0 36 -16 36 -36c0 -21 -16 -37 -36 -37z" />
    <glyph glyph-name="gravecomb" unicode="&#x300;" horiz-adv-x="0" 
d="M-178 620l-146 145h63l128 -145h-45z" />
    <glyph glyph-name="acutecomb" unicode="&#x301;" horiz-adv-x="0" 
d="M-194 620l128 145h63l-147 -145h-44z" />
    <glyph glyph-name="uni030B" unicode="&#x30b;" horiz-adv-x="0" 
d="M-332 620l106 145h62l-124 -145h-44zM-201 620l106 145h62l-124 -145h-44z" />
    <glyph glyph-name="uni0302" unicode="&#x302;" horiz-adv-x="0" 
d="M-47 620h-48l-106 116l-107 -116h-49l129 145h53z" />
    <glyph glyph-name="uni030C" unicode="&#x30c;" horiz-adv-x="0" 
d="M-95 765h48l-128 -145h-53l-129 145h49l107 -116z" />
    <glyph glyph-name="uni0306" unicode="&#x306;" horiz-adv-x="0" 
d="M-197 610c-92 0 -153 62 -153 155h42c0 -73 44 -123 111 -123c66 0 110 50 110 123h42c0 -93 -61 -155 -152 -155z" />
    <glyph glyph-name="uni030A" unicode="&#x30a;" horiz-adv-x="0" 
d="M-171 584c-63 0 -106 41 -106 104s43 104 106 104s106 -41 106 -104s-43 -104 -106 -104zM-171 612c44 0 72 30 72 76s-28 77 -72 77s-72 -31 -72 -77s28 -76 72 -76z" />
    <glyph glyph-name="tildecomb" unicode="&#x303;" horiz-adv-x="0" 
d="M-153 630c-69 0 -103 78 -161 78c-32 0 -59 -27 -59 -68h-33c0 65 40 108 93 108c70 0 103 -77 161 -77c32 0 59 26 59 67h33c0 -66 -40 -108 -93 -108z" />
    <glyph glyph-name="uni0304" unicode="&#x304;" horiz-adv-x="0" 
d="M-364 655v40h293v-40h-293z" />
    <glyph glyph-name="uni0312" unicode="&#x312;" horiz-adv-x="0" 
d="M-122 593l71 187h39l-63 -187h-47z" />
    <glyph glyph-name="uni0326" unicode="&#x326;" horiz-adv-x="0" 
d="M-116 -220l56 168h47l-65 -168h-38z" />
    <glyph glyph-name="uni0327" unicode="&#x327;" horiz-adv-x="0" 
d="M-129 -69c64 0 105 -32 105 -78c0 -50 -45 -83 -116 -83c-40 0 -74 11 -93 30l12 25c17 -18 44 -26 77 -26c49 0 80 22 80 54c0 31 -31 51 -78 51c-17 0 -34 -3 -49 -9l-9 17l56 88h36l-46 -71c8 1 17 2 25 2z" />
    <glyph glyph-name="uni0328" unicode="&#x328;" horiz-adv-x="0" 
d="M-92 -230c-48 0 -81 30 -81 75c0 61 56 127 154 185v-30c-77 -51 -113 -104 -113 -150c0 -28 19 -48 48 -48c23 0 45 10 62 26l6 -30c-22 -19 -47 -28 -76 -28z" />
    <glyph glyph-name="uni0335" unicode="&#x335;" horiz-adv-x="0" 
d="M-507 268v37h354v-37h-354z" />
    <glyph glyph-name="uni0336" unicode="&#x336;" horiz-adv-x="0" 
d="M-852 268v37h763v-37h-763z" />
    <glyph glyph-name="uni0337" unicode="&#x337;" horiz-adv-x="0" 
d="M-277 448l123 85v-43l-123 -85v6l-122 -86v43l122 86v-6z" />
    <glyph glyph-name="uni0338" unicode="&#x338;" horiz-adv-x="0" 
d="M-450 -10l-31 20l434 740l31 -20z" />
    <glyph glyph-name="acute" unicode="&#xb4;" horiz-adv-x="600" 
d="M133 620l128 145h63l-147 -145h-44z" />
    <glyph glyph-name="breve" unicode="&#x2d8;" horiz-adv-x="600" 
d="M198 610c-92 0 -153 62 -153 155h42c0 -73 44 -123 111 -123c66 0 110 50 110 123h42c0 -93 -61 -155 -152 -155z" />
    <glyph glyph-name="caron" unicode="&#x2c7;" horiz-adv-x="600" 
d="M308 765h48l-128 -145h-53l-129 145h49l107 -116z" />
    <glyph glyph-name="cedilla" unicode="&#xb8;" horiz-adv-x="600" 
d="M127 -69c64 0 105 -32 105 -78c0 -50 -45 -83 -116 -83c-40 0 -74 11 -93 30l12 25c17 -18 44 -26 77 -26c49 0 80 22 80 54c0 31 -31 51 -78 51c-17 0 -34 -3 -49 -9l-9 17l56 88h36l-46 -71c8 1 17 2 25 2z" />
    <glyph glyph-name="circumflex" unicode="&#x2c6;" horiz-adv-x="600" 
d="M356 620h-48l-106 116l-107 -116h-49l129 145h53z" />
    <glyph glyph-name="dieresis" unicode="&#xa8;" horiz-adv-x="600" 
d="M109 675c-21 0 -37 16 -37 37c0 20 16 36 37 36c20 0 36 -16 36 -36c0 -21 -16 -37 -36 -37zM296 675c-20 0 -36 16 -36 37c0 20 16 36 36 36c21 0 36 -16 36 -36c0 -21 -15 -37 -36 -37z" />
    <glyph glyph-name="dotaccent" unicode="&#x2d9;" horiz-adv-x="600" 
d="M109 675c-21 0 -37 16 -37 37c0 20 16 36 37 36c20 0 36 -16 36 -36c0 -21 -16 -37 -36 -37z" />
    <glyph glyph-name="grave" unicode="`" horiz-adv-x="600" 
d="M149 620l-146 145h63l128 -145h-45z" />
    <glyph glyph-name="hungarumlaut" unicode="&#x2dd;" horiz-adv-x="600" 
d="M146 620l106 145h62l-124 -145h-44zM277 620l106 145h62l-124 -145h-44z" />
    <glyph glyph-name="macron" unicode="&#xaf;" horiz-adv-x="600" 
d="M71 655v40h293v-40h-293z" />
    <glyph glyph-name="ogonek" unicode="&#x2db;" horiz-adv-x="600" 
d="M164 -230c-48 0 -81 30 -81 75c0 61 56 127 154 185v-30c-77 -51 -113 -104 -113 -150c0 -28 19 -48 48 -48c23 0 45 10 62 26l6 -30c-22 -19 -47 -28 -76 -28z" />
    <glyph glyph-name="ring" unicode="&#x2da;" horiz-adv-x="600" 
d="M171 584c-63 0 -106 41 -106 104s43 104 106 104s106 -41 106 -104s-43 -104 -106 -104zM171 612c44 0 72 30 72 76s-28 77 -72 77s-72 -31 -72 -77s28 -76 72 -76z" />
    <glyph glyph-name="tilde" unicode="&#x2dc;" horiz-adv-x="600" 
d="M312 630c-69 0 -103 78 -161 78c-32 0 -59 -27 -59 -68h-33c0 65 40 108 93 108c70 0 103 -77 161 -77c32 0 59 26 59 67h33c0 -66 -40 -108 -93 -108z" />
    <glyph glyph-name="logo" horiz-adv-x="1274" 
d="M76 -10c-10 0 -17 8 -17 18c0 5 1 11 5 15l342 341h-324c-10 0 -23 2 -23 19c0 7 3 11 7 16l340 342h-327c-12 0 -20 7 -20 19v1c0 12 8 19 20 19h370c10 0 23 -1 23 -20c0 -6 -2 -12 -8 -17l-341 -340h330c11 0 20 -9 20 -20v-327l339 338c5 6 11 8 17 8
c17 0 18 -13 18 -22v-324l340 338c4 5 10 8 16 8c10 0 17 -9 17 -19c0 -4 -1 -10 -6 -14l-368 -372c-6 -6 -11 -7 -17 -7c-19 0 -20 13 -20 23v324l-339 -340c-6 -6 -11 -7 -17 -7c-19 0 -20 13 -20 23v324l-340 -340c-6 -6 -11 -7 -17 -7z" />
    </font>
</defs>
</svg>
